<?xml version="1.0" standalone="no"?>
<!DOCTYPE svg PUBLIC "-//W3C//DTD SVG 20010904//EN"
 "http://www.w3.org/TR/2001/REC-SVG-20010904/DTD/svg10.dtd">
<svg version="1.0" xmlns="http://www.w3.org/2000/svg"
 width="700.000000pt" height="700.000000pt" viewBox="0 0 700.000000 700.000000"
 preserveAspectRatio="xMidYMid meet">
<metadata>
Created by potrace 1.14, written by Peter Selinger 2001-2017
</metadata>
<g transform="translate(0.000000,700.000000) scale(0.100000,-0.100000)"
fill="#000000" stroke="none">
<path d="M3113 5137 c-11 -17 -114 -275 -227 -572 -114 -297 -209 -547 -213
-555 -3 -8 -7 -17 -7 -20 -2 -7 -26 -71 -37 -95 -21 -49 -78 -205 -92 -255
-34 -122 -50 -226 -63 -415 -3 -55 -8 -103 -10 -106 -2 -4 2 -11 9 -16 15 -12
138 -56 141 -51 2 1 39 77 83 168 93 190 122 267 158 416 27 111 83 360 91
404 2 14 11 57 20 95 9 39 18 81 20 95 3 13 12 56 20 95 20 92 21 96 39 190 9
44 29 143 45 220 16 77 31 151 34 165 2 14 7 36 10 50 3 14 8 36 10 50 3 14 9
47 14 74 6 27 8 56 7 65 -2 9 -4 19 -4 24 -2 18 -28 4 -48 -26z"/>
<path d="M4260 4953 c-264 -29 -399 -73 -526 -169 -160 -121 -241 -279 -251
-489 -17 -346 131 -548 487 -667 80 -27 197 -55 374 -89 376 -71 526 -197 527
-440 1 -230 -134 -375 -396 -424 -269 -51 -575 4 -887 161 -48 24 -90 44 -93
44 -3 0 -5 -76 -5 -169 l0 -169 58 -21 c250 -91 489 -135 742 -135 369 -1 635
94 791 281 41 50 109 178 109 207 0 9 4 16 9 16 5 0 9 -38 9 -85 -1 -90 3
-104 24 -88 7 5 85 47 173 93 88 46 192 100 230 120 39 20 140 74 225 118 85
44 220 115 300 156 80 42 178 93 218 113 l73 38 -3 115 -3 115 -80 43 c-44 24
-132 70 -195 104 -139 73 -228 121 -295 158 -27 15 -95 51 -150 80 -55 29
-152 81 -215 115 -248 134 -288 155 -296 155 -5 0 -8 -53 -7 -117 2 -151 2
-143 12 -143 4 0 120 -55 257 -121 137 -67 359 -175 493 -240 134 -66 248
-119 252 -119 5 0 9 -3 9 -8 0 -9 -42 -32 -565 -297 -236 -120 -435 -222 -442
-227 -9 -8 -11 2 -6 39 13 99 3 246 -23 333 -39 132 -132 260 -249 340 -91 62
-294 141 -425 164 -74 13 -333 69 -385 83 -139 37 -243 102 -280 173 -58 113
-47 289 26 394 54 77 197 156 315 172 27 3 58 8 69 10 23 5 208 5 245 0 115
-16 124 -17 243 -50 69 -19 218 -76 276 -105 29 -15 41 -18 42 -9 6 84 2 311
-6 317 -26 19 -281 82 -425 105 -95 15 -317 26 -380 19z m947 -2045 c-3 -8 -6
-5 -6 6 -1 11 2 17 5 13 3 -3 4 -12 1 -19z"/>
<path d="M1825 4241 c-6 -4 -73 -41 -150 -81 -77 -40 -144 -76 -150 -80 -5 -4
-64 -35 -130 -70 -66 -34 -138 -73 -160 -85 -22 -12 -85 -46 -140 -75 -273
-145 -491 -264 -496 -272 -4 -6 -6 -58 -5 -116 l1 -106 65 -34 c189 -99 298
-156 415 -217 72 -37 166 -87 210 -110 44 -23 161 -84 260 -135 99 -51 203
-105 231 -121 28 -16 54 -29 57 -29 2 0 4 57 3 126 l-1 125 -150 78 c-82 43
-312 160 -510 261 -198 100 -362 184 -364 186 -2 2 30 18 70 37 41 19 200 97
354 172 154 76 352 172 441 215 l161 78 0 131 c0 72 -1 131 -1 131 -1 0 -6 -4
-11 -9z"/>
<path d="M2400 2972 c0 -6 -7 -9 -15 -6 -8 4 -17 -1 -21 -10 -3 -9 -10 -14
-14 -11 -14 9 -109 -95 -144 -158 -90 -162 -96 -352 -17 -522 41 -87 71 -124
71 -86 0 30 30 102 53 128 10 12 16 26 12 33 -4 6 -1 9 7 8 7 -2 12 2 11 9 -2
8 4 10 14 6 11 -4 14 -3 9 5 -4 7 -3 12 2 12 5 0 18 8 29 18 12 9 39 32 62 51
22 19 38 39 34 44 -3 6 -1 7 5 3 15 -9 67 70 82 123 6 24 13 69 15 98 2 48 0
54 -15 50 -24 -6 -50 11 -44 28 7 17 34 20 34 4 0 -5 -4 -8 -9 -4 -5 3 -12 1
-15 -4 -3 -5 1 -11 9 -15 8 -3 17 -1 20 5 4 5 11 6 17 3 5 -4 4 4 -3 17 -7 13
-14 35 -15 48 -4 36 -53 104 -70 97 -8 -3 -12 -2 -9 3 7 12 -1 17 -44 26 -27
6 -32 4 -25 -6 6 -12 5 -12 -9 0 -11 8 -17 9 -17 3z m15 -32 c-3 -5 -12 -10
-18 -10 -7 0 -6 4 3 10 19 12 23 12 15 0z m58 -26 c-7 -19 -10 -18 -16 5 -3
13 -1 18 9 14 7 -2 10 -11 7 -19z m-29 7 c3 -5 -2 -15 -12 -22 -15 -12 -16
-12 -5 2 7 9 10 19 6 22 -3 4 -4 7 0 7 3 0 8 -4 11 -9z m23 -48 c0 -9 -4 -10
-14 -2 -7 6 -13 12 -13 14 0 1 6 2 13 2 8 0 14 -6 14 -14z m88 7 c3 -6 -1 -7
-9 -4 -18 7 -21 14 -7 14 6 0 13 -4 16 -10z m-21 -13 c17 -12 17 -14 -1 -28
-16 -13 -17 -13 -4 4 7 9 11 17 8 17 -3 0 -13 3 -23 7 -13 5 -15 3 -9 -7 5 -9
4 -11 -4 -6 -11 7 -6 26 8 26 4 0 15 -6 25 -13z m-190 -5 c3 -5 -1 -9 -9 -9
-8 0 -12 4 -9 9 3 4 7 8 9 8 2 0 6 -4 9 -8z m146 -22 c0 -5 -2 -10 -4 -10 -3
0 -8 5 -11 10 -3 6 -1 10 4 10 6 0 11 -4 11 -10z m80 6 c0 -2 -8 -10 -17 -17
-16 -13 -17 -12 -4 4 13 16 21 21 21 13z m-47 -41 c-3 -9 -8 -14 -10 -11 -3 3
-2 9 2 15 9 16 15 13 8 -4z m-74 2 c-2 -1 -13 -9 -24 -17 -19 -14 -19 -14 -6
3 7 9 18 17 24 17 6 0 8 -1 6 -3z m-102 -32 c0 -8 -4 -12 -9 -9 -5 3 -6 10 -3
15 9 13 12 11 12 -6z m128 -32 c-11 -10 -14 -12 -8 -4 9 10 9 20 1 35 -10 20
-10 20 8 4 18 -17 18 -19 -1 -35z m50 17 c0 -7 -7 -15 -15 -17 -13 -4 -13 -3
0 6 13 10 13 12 0 22 -13 9 -13 10 0 6 8 -2 15 -10 15 -17z m-104 -13 c-10 -9
-11 -8 -5 6 3 10 9 15 12 12 3 -3 0 -11 -7 -18z m134 -5 c-15 -11 -19 -46 -4
-36 8 4 10 3 5 -5 -16 -26 -28 7 -17 47 1 1 7 2 14 2 7 0 8 -3 2 -8z m35 4 c0
-2 -7 -9 -15 -16 -13 -11 -14 -10 -9 4 5 14 24 23 24 12z m-225 -26 c3 -5 1
-10 -4 -10 -6 0 -11 5 -11 10 0 6 2 10 4 10 3 0 8 -4 11 -10z m85 -5 c0 -2 -9
-3 -19 -2 -11 0 -18 5 -15 9 4 6 34 0 34 -7z m140 -15 c0 -5 -2 -10 -4 -10 -3
0 -8 5 -11 10 -3 6 -1 10 4 10 6 0 11 -4 11 -10z m-109 -37 c-12 -20 -14 -14
-5 12 4 9 9 14 11 11 3 -2 0 -13 -6 -23z m69 -29 c0 -2 -5 -4 -11 -4 -5 0 -8
4 -4 9 3 5 1 12 -5 16 -5 3 -10 14 -10 23 0 11 6 6 15 -12 8 -15 15 -30 15
-32z m21 33 c-13 -13 -26 -3 -16 12 3 6 11 8 17 5 6 -4 6 -10 -1 -17z m-66 -7
c-3 -5 -1 -10 5 -10 6 0 8 -5 4 -11 -4 -8 -9 -7 -15 2 -7 12 -3 29 7 29 3 0 2
-4 -1 -10z m-61 -26 c3 -8 2 -12 -4 -9 -6 3 -10 10 -10 16 0 14 7 11 14 -7z
m46 -15 c0 -5 -4 -9 -8 -9 -5 0 -9 7 -9 15 0 8 4 12 9 9 4 -3 8 -9 8 -15z m77
-4 c0 -8 -4 -15 -9 -15 -10 0 -11 14 -1 23 9 10 10 9 10 -8z m-47 -32 c-11
-17 -11 -17 -6 0 3 10 6 24 7 30 0 9 2 9 5 0 3 -7 0 -20 -6 -30z m36 -5 c4 -6
3 -8 -4 -4 -6 3 -14 -3 -17 -15 -4 -11 -9 -18 -12 -16 -5 5 14 47 22 47 2 0 7
-5 11 -12z m-62 -10 c4 3 4 -2 0 -12 -6 -15 -4 -17 7 -11 8 4 11 4 6 0 -4 -5
-16 -9 -27 -10 -16 -1 -18 1 -7 14 10 12 9 14 -4 9 -9 -4 -16 -1 -16 7 0 10 5
11 17 5 10 -5 20 -6 24 -2z m-50 -26 c3 -5 -1 -9 -9 -9 -8 0 -12 4 -9 9 3 4 7
8 9 8 2 0 6 -4 9 -8z m-94 -62 c0 -5 -2 -10 -4 -10 -3 0 -8 5 -11 10 -3 6 -1
10 4 10 6 0 11 -4 11 -10z m77 -7 c0 -9 -4 -10 -14 -2 -7 6 -13 12 -13 14 0 1
6 2 13 2 8 0 14 -6 14 -14z m-7 -26 c0 -2 -9 -12 -19 -21 -14 -13 -21 -14 -27
-5 -4 7 -3 10 3 6 6 -4 16 0 23 8 12 14 20 19 20 12z"/>
</g>
</svg>
