<?xml version="1.0" encoding="UTF-8"?><svg id="Calque_1" xmlns="http://www.w3.org/2000/svg" viewBox="0 0 291.28 567.99"><line x1="282.19" x2="282.19" y2="564.04" fill="#fff" opacity=".3"/><line x1="278.1" x2="278.1" y2="564.04" fill="#fff" opacity=".3"/><line x1="274.01" x2="274.01" y2="564.04" fill="#fff" opacity=".3"/><line x1="269.92" x2="269.92" y2="564.04" fill="#fff" opacity=".3"/><line x1="265.83" x2="265.83" y2="564.04" fill="#fff" opacity=".3"/><line x1="261.74" x2="261.74" y2="564.04" fill="#fff" opacity=".3"/><line x1="257.65" x2="257.65" y2="564.04" fill="#fff" opacity=".3"/><line x1="253.56" x2="253.56" y2="564.04" fill="#fff" opacity=".3"/><line x1="249.47" x2="249.47" y2="564.04" fill="#fff" opacity=".3"/><line x1="245.38" x2="245.38" y2="564.04" fill="#fff" opacity=".3"/><line x1="241.29" x2="241.29" y2="564.04" fill="#fff" opacity=".3"/><line x1="237.2" x2="237.2" y2="564.04" fill="#fff" opacity=".3"/><line x1="233.11" x2="233.11" y2="564.04" fill="#fff" opacity=".3"/><line x1="229.02" x2="229.02" y2="564.04" fill="#fff" opacity=".3"/><line x1="224.94" x2="224.94" y2="564.04" fill="#fff" opacity=".3"/><line x1="220.85" x2="220.85" y2="564.04" fill="#fff" opacity=".3"/><line x1="216.76" x2="216.76" y2="564.04" fill="#fff" opacity=".3"/><line x1="212.67" x2="212.67" y2="564.04" fill="#fff" opacity=".3"/><line x1="208.58" x2="208.58" y2="564.04" fill="#fff" opacity=".3"/><line x1="204.49" x2="204.49" y2="564.04" fill="#fff" opacity=".3"/><line x1="200.4" x2="200.4" y2="564.04" fill="#fff" opacity=".3"/><line x1="196.31" x2="196.31" y2="564.04" fill="#fff" opacity=".3"/><line x1="192.22" x2="192.22" y2="564.04" fill="#fff" opacity=".3"/><line x1="188.13" x2="188.13" y2="564.04" fill="#fff" opacity=".3"/><line x1="184.04" x2="184.04" y2="564.04" fill="#fff" opacity=".3"/><line x1="179.95" x2="179.95" y2="564.04" fill="#fff" opacity=".3"/><line x1="175.86" x2="175.86" y2="564.04" fill="#fff" opacity=".3"/><line x1="171.77" x2="171.77" y2="564.04" fill="#fff" opacity=".3"/><line x1="167.68" x2="167.68" y2="564.04" fill="#fff" opacity=".3"/><line x1="163.59" x2="163.59" y2="564.04" fill="#fff" opacity=".3"/><line x1="159.5" x2="159.5" y2="564.04" fill="#fff" opacity=".3"/><line x1="155.41" x2="155.41" y2="564.04" fill="#fff" opacity=".3"/><line x1="151.32" x2="151.32" y2="564.04" fill="#fff" opacity=".3"/><line x1="147.23" x2="147.23" y2="564.04" fill="#fff" opacity=".3"/><line x1="143.14" x2="143.14" y2="564.04" fill="#fff" opacity=".3"/><line x1="139.05" x2="139.05" y2="564.04" fill="#fff" opacity=".3"/><line x1="134.96" x2="134.96" y2="564.04" fill="#fff" opacity=".3"/><line x1="130.87" x2="130.87" y2="564.04" fill="#fff" opacity=".3"/><line x1="126.78" x2="126.78" y2="564.04" fill="#fff" opacity=".3"/><line x1="122.69" x2="122.69" y2="564.04" fill="#fff" opacity=".3"/><line x1="118.6" x2="118.6" y2="564.04" fill="#fff" opacity=".3"/><line x1="114.51" x2="114.51" y2="564.04" fill="#fff" opacity=".3"/><line x1="110.42" x2="110.42" y2="564.04" fill="#fff" opacity=".3"/><line x1="106.33" x2="106.33" y2="564.04" fill="#fff" opacity=".3"/><line x1="102.24" x2="102.24" y2="564.04" fill="#fff" opacity=".3"/><line x1="98.15" x2="98.15" y2="564.04" fill="#fff" opacity=".3"/><line x1="94.06" x2="94.06" y2="564.04" fill="#fff" opacity=".3"/><line x1="89.97" x2="89.97" y2="564.04" fill="#fff" opacity=".3"/><line x1="85.88" x2="85.88" y2="564.04" fill="#fff" opacity=".3"/><line x1="81.79" x2="81.79" y2="564.04" fill="#fff" opacity=".3"/><line x1="77.7" x2="77.7" y2="564.04" fill="#fff" opacity=".3"/><line x1="73.62" x2="73.62" y2="564.04" fill="#fff" opacity=".3"/><line x1="69.53" x2="69.53" y2="564.04" fill="#fff" opacity=".3"/><line x1="65.44" x2="65.44" y2="564.04" fill="#fff" opacity=".3"/><line x1="61.35" x2="61.35" y2="564.04" fill="#fff" opacity=".3"/><line x1="57.26" x2="57.26" y2="564.04" fill="#fff" opacity=".3"/><line x1="53.17" x2="53.17" y2="564.04" fill="#fff" opacity=".3"/><line x1="49.08" x2="49.08" y2="564.04" fill="#fff" opacity=".3"/><line x1="44.99" x2="44.99" y2="564.04" fill="#fff" opacity=".3"/><line x1="40.9" x2="40.9" y2="564.04" fill="#fff" opacity=".3"/><line x1="36.81" x2="36.81" y2="564.04" fill="#fff" opacity=".3"/><line x1="32.72" x2="32.72" y2="564.04" fill="#fff" opacity=".3"/><line x1="28.63" x2="28.63" y2="564.04" fill="#fff" opacity=".3"/><line x1="24.54" x2="24.54" y2="564.04" fill="#fff" opacity=".3"/><line x1="20.45" x2="20.45" y2="564.04" fill="#fff" opacity=".3"/><line x1="16.36" x2="16.36" y2="564.04" fill="#fff" opacity=".3"/><line x1="12.27" x2="12.27" y2="564.04" fill="#fff" opacity=".3"/><line x1="8.18" x2="8.18" y2="564.04" fill="#fff" opacity=".3"/><line x1="4.09" x2="4.09" y2="564.04" fill="#fff" opacity=".3"/><line x1="0" y2="564.04" fill="#fff" opacity=".3"/></svg>