<?xml version="1.0" encoding="UTF-8"?>
<svg id="Calque_1" data-name="Calque 1" xmlns="http://www.w3.org/2000/svg" viewBox="0 0 1280 2000">
  <defs>
    <style>
      .cls-1 {
        fill: #fff;
        opacity: .3;
        stroke: #fff;
        stroke-miterlimit: 10;
      }
    </style>
  </defs>
  <line class="cls-1" x1="1276.4362581071" y1="-452" x2="1276.4362581071" y2="2114.0990721128"/>
  <line class="cls-1" x1="1276.4362581071" y1="-452" x2="1276.4362581071" y2="2114.0990721128"/>
  <line class="cls-1" x1="1258.149419589" y1="-452" x2="1258.149419589" y2="2114.0990721128"/>
  <line class="cls-1" x1="1239.8625878531" y1="-452" x2="1239.8625810709" y2="2114.0990721128"/>
  <line class="cls-1" x1="1221.5757425529" y1="-452" x2="1221.5757357708" y2="2114.0990721128"/>
  <line class="cls-1" x1="1203.2888972527" y1="-452" x2="1203.2888904706" y2="2114.0990721128"/>
  <line class="cls-1" x1="1185.0020519525" y1="-452" x2="1185.0020451704" y2="2114.0990721128"/>
  <line class="cls-1" x1="1166.7152066523" y1="-452" x2="1166.7151998702" y2="2114.0990721128"/>
  <line class="cls-1" x1="1148.4283613521" y1="-452" x2="1148.42835457" y2="2114.0990721128"/>
  <line class="cls-1" x1="1130.141516052" y1="-452" x2="1130.1415092699" y2="2114.0990721128"/>
  <line class="cls-1" x1="1111.8546707518" y1="-452" x2="1111.8546639697" y2="2114.0990721128"/>
  <line class="cls-1" x1="1093.5678254516" y1="-452" x2="1093.5678186695" y2="2114.0990721128"/>
  <line class="cls-1" x1="1075.2809801514" y1="-452" x2="1075.2809733693" y2="2114.0990721128"/>
  <line class="cls-1" x1="1056.9941348513" y1="-452" x2="1056.9941280692" y2="2114.0990721128"/>
  <line class="cls-1" x1="1038.7072895511" y1="-452" x2="1038.707282769" y2="2114.0990721128"/>
  <line class="cls-1" x1="1020.4204442509" y1="-452" x2="1020.4204374688" y2="2114.0990721128"/>
  <line class="cls-1" x1="1002.1335989507" y1="-452" x2="1002.1335921686" y2="2114.0990721128"/>
  <line class="cls-1" x1="983.8467536505" y1="-452" x2="983.8467468684" y2="2114.0990721128"/>
  <line class="cls-1" x1="965.5599083504" y1="-452" x2="965.5599015683" y2="2114.0990721128"/>
  <line class="cls-1" x1="947.2730630502" y1="-452" x2="947.2730562681" y2="2114.0990721128"/>
  <line class="cls-1" x1="928.98621775" y1="-452" x2="928.9862109679" y2="2114.0990721128"/>
  <line class="cls-1" x1="910.6993724498" y1="-452" x2="910.6993656677" y2="2114.0990721128"/>
  <line class="cls-1" x1="892.4125271497" y1="-452" x2="892.4125203676" y2="2114.0990721128"/>
  <line class="cls-1" x1="874.1256818495" y1="-452" x2="874.1256750674" y2="2114.0990721128"/>
  <line class="cls-1" x1="855.8388365493" y1="-452" x2="855.8388297672" y2="2114.0990721128"/>
  <line class="cls-1" x1="837.5519912491" y1="-452" x2="837.551984467" y2="2114.0990721128"/>
  <line class="cls-1" x1="819.265145949" y1="-452" x2="819.2651391669" y2="2114.0990721128"/>
  <line class="cls-1" x1="800.9783006488" y1="-452" x2="800.9782938667" y2="2114.0990721128"/>
  <line class="cls-1" x1="782.6914553486" y1="-452" x2="782.6914485665" y2="2114.0990721128"/>
  <line class="cls-1" x1="764.4046100484" y1="-452" x2="764.4046032663" y2="2114.0990721128"/>
  <line class="cls-1" x1="746.1177647482" y1="-452" x2="746.1177579661" y2="2114.0990721128"/>
  <line class="cls-1" x1="727.830919448" y1="-452" x2="727.8309126659" y2="2114.0990721128"/>
  <line class="cls-1" x1="709.5440741479" y1="-452" x2="709.5440673658" y2="2114.0990721128"/>
  <line class="cls-1" x1="691.2572288477" y1="-452" x2="691.2572220656" y2="2114.0990721128"/>
  <line class="cls-1" x1="672.9703835475" y1="-452" x2="672.9703767654" y2="2114.0990721128"/>
  <line class="cls-1" x1="654.6835382474" y1="-452" x2="654.6835314652" y2="2114.0990721128"/>
  <line class="cls-1" x1="636.3966929472" y1="-452" x2="636.3966861651" y2="2114.0990721128"/>
  <line class="cls-1" x1="618.109847647" y1="-452" x2="618.1098408649" y2="2114.0990721128"/>
  <line class="cls-1" x1="599.8230023468" y1="-452" x2="599.8229955647" y2="2114.0990721128"/>
  <line class="cls-1" x1="581.5361570466" y1="-452" x2="581.5361502645" y2="2114.0990721128"/>
  <line class="cls-1" x1="563.2493117465" y1="-452" x2="563.2493049644" y2="2114.0990721128"/>
  <line class="cls-1" x1="544.9624664463" y1="-452" x2="544.9624596642" y2="2114.0990721128"/>
  <line class="cls-1" x1="526.6756211461" y1="-452" x2="526.675614364" y2="2114.0990721128"/>
  <line class="cls-1" x1="508.3887758459" y1="-452" x2="508.3887690638" y2="2114.0990721128"/>
  <line class="cls-1" x1="490.1019305457" y1="-452" x2="490.1019237636" y2="2114.0990721128"/>
  <line class="cls-1" x1="471.8150852456" y1="-452" x2="471.8150784635" y2="2114.0990721128"/>
  <line class="cls-1" x1="453.5282399454" y1="-452" x2="453.5282331633" y2="2114.0990721128"/>
  <line class="cls-1" x1="435.2413946452" y1="-452" x2="435.2413878631" y2="2114.0990721128"/>
  <line class="cls-1" x1="416.954549345" y1="-452" x2="416.9545425629" y2="2114.0990721128"/>
  <line class="cls-1" x1="398.6677040449" y1="-452" x2="398.6676972628" y2="2114.0990721128"/>
  <line class="cls-1" x1="380.3808587447" y1="-452" x2="380.3808519626" y2="2114.0990721128"/>
  <line class="cls-1" x1="362.0940134445" y1="-452" x2="362.0940066624" y2="2114.0990721128"/>
  <line class="cls-1" x1="343.8071681443" y1="-452" x2="343.8071613622" y2="2114.0990721128"/>
  <line class="cls-1" x1="325.5203228441" y1="-452" x2="325.520316062" y2="2114.0990721128"/>
  <line class="cls-1" x1="307.233477544" y1="-452" x2="307.2334707619" y2="2114.0990721128"/>
  <line class="cls-1" x1="288.9466322438" y1="-452" x2="288.9466254617" y2="2114.0990721128"/>
  <line class="cls-1" x1="270.6597869436" y1="-452" x2="270.6597801615" y2="2114.0990721128"/>
  <line class="cls-1" x1="252.3729416434" y1="-452" x2="252.3729348613" y2="2114.0990721128"/>
  <line class="cls-1" x1="234.0860963433" y1="-452" x2="234.0860895612" y2="2114.0990721128"/>
  <line class="cls-1" x1="215.7992510431" y1="-452" x2="215.799244261" y2="2114.0990721128"/>
  <line class="cls-1" x1="197.5124057429" y1="-452" x2="197.5123989608" y2="2114.0990721128"/>
  <line class="cls-1" x1="179.2255604427" y1="-452" x2="179.2255536606" y2="2114.0990721128"/>
  <line class="cls-1" x1="160.9387151425" y1="-452" x2="160.9387083604" y2="2114.0990721128"/>
  <line class="cls-1" x1="142.6518698424" y1="-452" x2="142.6518630603" y2="2114.0990721128"/>
  <line class="cls-1" x1="124.3650245422" y1="-452" x2="124.3650177601" y2="2114.0990721128"/>
  <line class="cls-1" x1="106.078179242" y1="-452" x2="106.0781724599" y2="2114.0990721128"/>
  <line class="cls-1" x1="87.7913339418" y1="-452" x2="87.7913271597" y2="2114.0990721128"/>
  <line class="cls-1" x1="69.5044886416" y1="-452" x2="69.5044818595" y2="2114.0990721128"/>
  <line class="cls-1" x1="51.2176433415" y1="-452" x2="51.2176365594" y2="2114.0990721128"/>
  <line class="cls-1" x1="32.9307980413" y1="-452" x2="32.9307912592" y2="2114.0990721128"/>
  <line class="cls-1" x1="14.6439527411" y1="-452" x2="14.643945959" y2="2114.0990721128"/>
  <line class="cls-1" x1="-20.5746960454" y1="14.3017943716" x2="1280.5" y2="14.3017943716"/>
  <line class="cls-1" x1="-20.5746960454" y1="33.7310358037" x2="1280.5" y2="33.7310358037"/>
  <line class="cls-1" x1="-20.5746960454" y1="53.1602772359" x2="1280.5" y2="53.1602772359"/>
  <line class="cls-1" x1="-20.5746960454" y1="72.589518668" x2="1280.5" y2="72.589518668"/>
  <line class="cls-1" x1="-20.5746960454" y1="92.0187601002" x2="1280.5" y2="92.0187601002"/>
  <line class="cls-1" x1="-20.5746960454" y1="111.4480015323" x2="1280.5" y2="111.4480015323"/>
  <line class="cls-1" x1="-20.5746960454" y1="130.8772429645" x2="1280.5" y2="130.8772429645"/>
  <line class="cls-1" x1="-20.5746960454" y1="150.3064843966" x2="1280.5" y2="150.3064843966"/>
  <line class="cls-1" x1="-20.5746960454" y1="169.7357258288" x2="1280.5" y2="169.7357258288"/>
  <line class="cls-1" x1="-20.5746960454" y1="189.1649672609" x2="1280.5" y2="189.1649672609"/>
  <line class="cls-1" x1="-20.5746960454" y1="208.5942086931" x2="1280.5" y2="208.5942086931"/>
  <line class="cls-1" x1="-20.5746960454" y1="228.0234501252" x2="1280.5" y2="228.0234501252"/>
  <line class="cls-1" x1="-20.5746960454" y1="247.4526915574" x2="1280.5" y2="247.4526915574"/>
  <line class="cls-1" x1="-20.5746960454" y1="266.8819329895" x2="1280.5" y2="266.8819329895"/>
  <line class="cls-1" x1="-20.5746960454" y1="286.3111744217" x2="1280.5" y2="286.3111744217"/>
  <line class="cls-1" x1="-20.5746960454" y1="305.7404158538" x2="1280.5" y2="305.7404158538"/>
  <line class="cls-1" x1="-20.5746960454" y1="325.169657286" x2="1280.5" y2="325.169657286"/>
  <line class="cls-1" x1="-20.5746960454" y1="344.5988987181" x2="1280.5" y2="344.5988987181"/>
  <line class="cls-1" x1="-20.5746960454" y1="364.0281401503" x2="1280.5" y2="364.0281401503"/>
  <line class="cls-1" x1="-20.5746960454" y1="383.4573815824" x2="1280.5" y2="383.4573815824"/>
  <line class="cls-1" x1="-20.5746960454" y1="402.8866230146" x2="1280.5" y2="402.8866230146"/>
  <line class="cls-1" x1="-20.5746960454" y1="422.3158644467" x2="1280.5" y2="422.3158644467"/>
  <line class="cls-1" x1="-20.5746960454" y1="441.7451058789" x2="1280.5" y2="441.7451058789"/>
  <line class="cls-1" x1="-20.5746960454" y1="461.174347311" x2="1280.5" y2="461.174347311"/>
  <line class="cls-1" x1="-20.5746960454" y1="480.6035887432" x2="1280.5" y2="480.6035887432"/>
  <line class="cls-1" x1="-20.5746960454" y1="500.0328301753" x2="1280.5" y2="500.0328301753"/>
  <line class="cls-1" x1="-20.5746960454" y1="519.4620716075" x2="1280.5" y2="519.4620716075"/>
  <line class="cls-1" x1="-20.5746960454" y1="538.8913130396" x2="1280.5" y2="538.8913130396"/>
  <line class="cls-1" x1="-20.5746960454" y1="558.3205544718" x2="1280.5" y2="558.3205544718"/>
  <line class="cls-1" x1="-20.5746960454" y1="577.7497959039" x2="1280.5" y2="577.7497959039"/>
  <line class="cls-1" x1="-20.5746960454" y1="597.1790373361" x2="1280.5" y2="597.1790373361"/>
  <line class="cls-1" x1="-20.5746960454" y1="616.6082787682" x2="1280.5" y2="616.6082787682"/>
  <line class="cls-1" x1="-20.5746960454" y1="636.0375202004" x2="1280.5" y2="636.0375202004"/>
  <line class="cls-1" x1="-20.5746960454" y1="655.4667616325" x2="1280.5" y2="655.4667616325"/>
  <line class="cls-1" x1="-20.5746960454" y1="674.8960030647" x2="1280.5" y2="674.8960030647"/>
  <line class="cls-1" x1="-20.5746960454" y1="694.3252444968" x2="1280.5" y2="694.3252444968"/>
  <line class="cls-1" x1="-20.5746960454" y1="713.754485929" x2="1280.5" y2="713.754485929"/>
  <line class="cls-1" x1="-20.5746960454" y1="733.1837273611" x2="1280.5" y2="733.1837273611"/>
  <line class="cls-1" x1="-20.5746960454" y1="752.6129687933" x2="1280.5" y2="752.6129687933"/>
  <line class="cls-1" x1="-20.5746960454" y1="772.0422102254" x2="1280.5" y2="772.0422102254"/>
  <line class="cls-1" x1="-20.5746960454" y1="791.4714516576" x2="1280.5" y2="791.4714516576"/>
  <line class="cls-1" x1="-20.5746960454" y1="810.9006930897" x2="1280.5" y2="810.9006930897"/>
  <line class="cls-1" x1="-20.5746960454" y1="830.3299345219" x2="1280.5" y2="830.3299345219"/>
  <line class="cls-1" x1="-20.5746960454" y1="849.759175954" x2="1280.5" y2="849.759175954"/>
  <line class="cls-1" x1="-20.5746960454" y1="869.1884173862" x2="1280.5" y2="869.1884173862"/>
  <line class="cls-1" x1="-20.5746960454" y1="888.6176588183" x2="1280.5" y2="888.6176588183"/>
  <line class="cls-1" x1="-20.5746960454" y1="908.0469002505" x2="1280.5" y2="908.0469002505"/>
  <line class="cls-1" x1="-20.5746960454" y1="927.4761416826" x2="1280.5" y2="927.4761416826"/>
  <line class="cls-1" x1="-20.5746960454" y1="946.9053831148" x2="1280.5" y2="946.9053831148"/>
  <line class="cls-1" x1="-20.5746960454" y1="966.3346245469" x2="1280.5" y2="966.3346245469"/>
  <line class="cls-1" x1="-20.5746960454" y1="985.7638659791" x2="1280.5" y2="985.7638659791"/>
  <line class="cls-1" x1="-20.5746960454" y1="1005.1931074112" x2="1280.5" y2="1005.1931074112"/>
  <line class="cls-1" x1="-20.5746960454" y1="1024.6223488434" x2="1280.5" y2="1024.6223488434"/>
  <line class="cls-1" x1="-20.5746960454" y1="1044.0515902755" x2="1280.5" y2="1044.0515902755"/>
  <line class="cls-1" x1="-20.5746960454" y1="1063.4808317077" x2="1280.5" y2="1063.4808317077"/>
  <line class="cls-1" x1="-20.5746960454" y1="1082.9100731398" x2="1280.5" y2="1082.9100731398"/>
  <line class="cls-1" x1="-20.5746960454" y1="1102.339314572" x2="1280.5" y2="1102.339314572"/>
  <line class="cls-1" x1="-20.5746960454" y1="1121.7685560041" x2="1280.5" y2="1121.7685560041"/>
  <line class="cls-1" x1="-20.5746960454" y1="1141.1977974363" x2="1280.5" y2="1141.1977974363"/>
  <line class="cls-1" x1="-20.5746960454" y1="1160.6270388684" x2="1280.5" y2="1160.6270388684"/>
  <line class="cls-1" x1="-20.5746960454" y1="1180.0562803006" x2="1280.5" y2="1180.0562803006"/>
  <line class="cls-1" x1="-20.5746960454" y1="1199.4855217327" x2="1280.5" y2="1199.4855217327"/>
  <line class="cls-1" x1="-20.5746960454" y1="1218.9147631649" x2="1280.5" y2="1218.9147631649"/>
  <line class="cls-1" x1="-20.5746960454" y1="1238.344004597" x2="1280.5" y2="1238.344004597"/>
  <line class="cls-1" x1="-20.5746960454" y1="1257.7732460292" x2="1280.5" y2="1257.7732460292"/>
  <line class="cls-1" x1="-20.5746960454" y1="1277.2024874613" x2="1280.5" y2="1277.2024874613"/>
  <line class="cls-1" x1="-20.5746960454" y1="1296.6317288935" x2="1280.5" y2="1296.6317288935"/>
  <line class="cls-1" x1="-20.5746960454" y1="1316.0609703256" x2="1280.5" y2="1316.0609703256"/>
  <line class="cls-1" x1="-20.5746960454" y1="1335.4902117578" x2="1280.5" y2="1335.4902117578"/>
  <line class="cls-1" x1="-20.5746960454" y1="1354.9194531899" x2="1280.5" y2="1354.9194531899"/>
  <line class="cls-1" x1="-20.5746960454" y1="1374.3486946221" x2="1280.5" y2="1374.3486946221"/>
  <line class="cls-1" x1="-20.5746960454" y1="1393.7779360542" x2="1280.5" y2="1393.7779360542"/>
  <line class="cls-1" x1="-20.5746960454" y1="1413.2071774864" x2="1280.5" y2="1413.2071774864"/>
  <line class="cls-1" x1="-20.5746960454" y1="1432.6364189185" x2="1280.5" y2="1432.6364189185"/>
  <line class="cls-1" x1="-20.5746960454" y1="1452.0656603507" x2="1280.5" y2="1452.0656603507"/>
  <line class="cls-1" x1="-20.5746960454" y1="1471.4949017828" x2="1280.5" y2="1471.4949017828"/>
  <line class="cls-1" x1="-20.5746960454" y1="1490.924143215" x2="1280.5" y2="1490.924143215"/>
  <line class="cls-1" x1="-20.5746960454" y1="1510.3533846471" x2="1280.5" y2="1510.3533846471"/>
  <line class="cls-1" x1="-20.5746960454" y1="1529.7826260793" x2="1280.5" y2="1529.7826260793"/>
  <line class="cls-1" x1="-20.5746960454" y1="1549.2118675114" x2="1280.5" y2="1549.2118675114"/>
  <line class="cls-1" x1="-20.5746960454" y1="1568.6411089436" x2="1280.5" y2="1568.6411089436"/>
  <line class="cls-1" x1="-20.5746960454" y1="1588.0703503757" x2="1280.5" y2="1588.0703503757"/>
  <line class="cls-1" x1="-20.5746960454" y1="1607.4995918079" x2="1280.5" y2="1607.4995918079"/>
  <line class="cls-1" x1="-20.5746960454" y1="1626.92883324" x2="1280.5" y2="1626.92883324"/>
  <line class="cls-1" x1="-20.5746960454" y1="1646.3580746722" x2="1280.5" y2="1646.3580746722"/>
  <line class="cls-1" x1="-20.5746960454" y1="1665.7873161043" x2="1280.5" y2="1665.7873161043"/>
  <line class="cls-1" x1="-20.5746960454" y1="1685.2165575365" x2="1280.5" y2="1685.2165575365"/>
  <line class="cls-1" x1="-20.5746960454" y1="1704.6457989686" x2="1280.5" y2="1704.6457989686"/>
  <line class="cls-1" x1="-20.5746960454" y1="1724.0750404008" x2="1280.5" y2="1724.0750404008"/>
  <line class="cls-1" x1="-20.5746960454" y1="1743.5042818329" x2="1280.5" y2="1743.5042818329"/>
  <line class="cls-1" x1="-20.5746960454" y1="1762.9335232651" x2="1280.5" y2="1762.9335232651"/>
  <line class="cls-1" x1="-20.5746960454" y1="1782.3627646972" x2="1280.5" y2="1782.3627646972"/>
  <line class="cls-1" x1="-20.5746960454" y1="1801.7920061294" x2="1280.5" y2="1801.7920061294"/>
  <line class="cls-1" x1="-20.5746960454" y1="1821.2212475615" x2="1280.5" y2="1821.2212475615"/>
  <line class="cls-1" x1="-20.5746960454" y1="1840.6504889937" x2="1280.5" y2="1840.6504889937"/>
  <line class="cls-1" x1="-20.5746960454" y1="1860.0797304258" x2="1280.5" y2="1860.0797304258"/>
  <line class="cls-1" x1="-20.5746960454" y1="1879.508971858" x2="1280.5" y2="1879.508971858"/>
  <line class="cls-1" x1="-20.5746960454" y1="1898.9382132901" x2="1280.5" y2="1898.9382132901"/>
  <line class="cls-1" x1="-20.5746960454" y1="1918.3674547223" x2="1280.5" y2="1918.3674547223"/>
  <line class="cls-1" x1="-20.5746960454" y1="1937.7966961544" x2="1280.5" y2="1937.7966961544"/>
  <line class="cls-1" x1="-20.5746960454" y1="1957.2259375866" x2="1280.5" y2="1957.2259375866"/>
  <line class="cls-1" x1="-20.5746960454" y1="1976.6551790187" x2="1280.5" y2="1976.6551790187"/>
  <line class="cls-1" x1="-20.5746960454" y1="1996.0844204509" x2="1280.5" y2="1996.0844204509"/>
</svg>