<?xml version="1.0" encoding="UTF-8"?><svg xmlns="http://www.w3.org/2000/svg" viewBox="0 0 352.52 347.72"><g isolation="isolate"><g id="Calque_2"><g id="Layer_3"><path d="M144.7,335.94s1.11,.2,3.18,.57c1.04,.18,2.32,.4,3.82,.67,1.51,.19,3.25,.42,5.2,.67,7.8,.92,19.03,1.69,32.45,.62,13.41-1,29.02-4.07,44.79-10.07,15.79-5.94,31.56-15.01,45.46-26.38,13.83-11.46,25.78-25.14,34.66-39.46,8.96-14.28,15.01-28.98,18.62-41.97,3.69-12.99,5.09-24.21,5.66-32.02,.36-3.91,.37-7,.43-9.1,.05-2.1,.07-3.22,.07-3.22h8.72s-.03,1.18-.08,3.39c-.06,2.21-.08,5.46-.45,9.58-.6,8.23-2.07,20.05-5.96,33.74-3.81,13.69-10.18,29.19-19.62,44.23-9.35,15.09-21.94,29.5-36.51,41.57-14.63,11.99-31.26,21.54-47.89,27.8-16.62,6.33-33.07,9.56-47.2,10.61-14.14,1.13-25.96,.32-34.18-.65-2.05-.26-3.89-.5-5.48-.71-1.59-.28-2.93-.51-4.03-.7-2.19-.39-3.35-.6-3.35-.6l1.68-8.56Z" fill="#fffffe" mix-blend-mode="screen" opacity=".3"/><path d="M95.19,63.34s-.35,.25-1.04,.74c-.7,.47-1.69,1.24-2.97,2.25-2.58,2-6.32,5-10.72,9.22-2.25,2.06-4.55,4.53-7.08,7.19-1.2,1.39-2.45,2.83-3.75,4.33-1.3,1.5-2.51,3.16-3.84,4.81-5.15,6.74-10.37,14.83-14.91,24.25-4.5,9.43-8.29,20.17-10.76,31.89-1.1,5.88-2.12,11.96-2.47,18.24-.31,3.13-.27,6.31-.38,9.52,0,1.6,.07,3.21,.1,4.83l.06,2.43c.03,.81,.11,1.62,.17,2.44,.12,1.63,.25,3.26,.37,4.9,.21,1.63,.41,3.27,.62,4.92,.11,.82,.19,1.65,.33,2.47l.44,2.46c.31,1.64,.54,3.3,.93,4.94,1.38,6.58,3.34,13.11,5.67,19.55,2.39,6.43,5.33,12.7,8.65,18.79,3.32,6.09,7.24,11.88,11.45,17.42,4.2,5.56,8.93,10.71,13.92,15.52,2.46,2.45,5.11,4.67,7.72,6.94,2.71,2.13,5.37,4.32,8.21,6.25,2.75,2.04,5.68,3.81,8.54,5.64,2.95,1.69,5.85,3.42,8.88,4.89,2.96,1.6,6.05,2.87,9.07,4.25,3.09,1.2,6.12,2.49,9.24,3.47,12.35,4.28,24.91,6.39,36.85,7.13,11.96,.65,23.32-.29,33.58-2.2,10.27-1.91,19.45-4.84,27.28-8.09,7.84-3.25,14.35-6.83,19.56-9.97,5.17-3.23,9.06-6.03,11.65-8.02,2.57-2.02,3.94-3.09,3.94-3.09l11.58,14.08s-1.55,1.22-4.45,3.5c-2.93,2.25-7.33,5.42-13.18,9.06-5.9,3.56-13.26,7.6-22.14,11.28-8.87,3.68-19.26,7-30.89,9.17-11.62,2.16-24.45,3.23-37.95,2.49-13.49-.82-27.71-3.24-41.7-8.07-3.53-1.12-6.97-2.56-10.46-3.93-3.42-1.54-6.91-3-10.26-4.8-3.42-1.67-6.71-3.62-10.04-5.54-3.24-2.06-6.54-4.07-9.66-6.38-3.2-2.19-6.22-4.65-9.28-7.07-2.96-2.55-5.94-5.08-8.73-7.84-5.64-5.44-10.98-11.27-15.73-17.55-4.77-6.26-9.19-12.81-12.95-19.7-3.76-6.89-7.09-13.98-9.79-21.26-2.65-7.29-4.86-14.69-6.42-22.14-.43-1.85-.7-3.73-1.05-5.59l-.49-2.79c-.16-.93-.25-1.86-.38-2.79-.23-1.86-.47-3.71-.7-5.56-.14-1.85-.28-3.7-.43-5.54-.06-.92-.16-1.84-.19-2.76-.02-.92-.05-1.83-.07-2.75-.04-1.83-.11-3.65-.11-5.46,.12-3.62,.09-7.21,.43-10.75,.41-7.1,1.55-13.98,2.8-20.63,2.8-13.26,7.09-25.43,12.18-36.1,5.14-10.66,11.04-19.81,16.86-27.43,1.5-1.88,2.88-3.74,4.34-5.44,1.47-1.69,2.88-3.33,4.24-4.89,2.86-3.01,5.46-5.8,8-8.13,4.97-4.77,9.21-8.16,12.12-10.42,1.45-1.15,2.57-2.01,3.36-2.55,.78-.55,1.18-.84,1.18-.84l10.65,14.8Z" fill="#fff" mix-blend-mode="screen" opacity=".3"/><path d="M352.52,176.24s-.05-2.21-.15-6.34c-.02-2.07-.2-4.62-.44-7.62-.13-1.5-.21-3.11-.42-4.82-.22-1.71-.45-3.53-.69-5.45-1.1-7.66-2.78-16.97-5.99-27.31-3.18-10.33-7.66-21.75-14.11-33.38-6.45-11.61-14.69-23.53-25.03-34.69-1.31-1.38-2.63-2.76-3.96-4.15-1.32-1.4-2.77-2.7-4.16-4.06-2.78-2.74-5.82-5.27-8.83-7.88-6.19-5.04-12.76-9.91-19.84-14.25-1.73-1.14-3.58-2.12-5.38-3.18-1.81-1.05-3.63-2.09-5.53-3.03-1.88-.96-3.75-1.94-5.66-2.87-1.94-.88-3.88-1.76-5.83-2.64-1.94-.91-3.96-1.64-5.95-2.44-2-.79-4.01-1.59-6.07-2.26-2.05-.69-4.1-1.4-6.17-2.06-2.09-.6-4.19-1.19-6.29-1.79C205.14,1.48,187.35-.54,169.72,.12c-17.65,.62-35.3,3.97-51.77,9.76-16.49,5.76-31.8,13.94-45.21,23.71-6.69,4.9-13,10.1-18.71,15.69-.72,.69-1.44,1.38-2.16,2.07-.71,.69-1.38,1.42-2.07,2.13-1.36,1.43-2.71,2.85-4.05,4.27-1.28,1.47-2.55,2.94-3.81,4.39-.63,.73-1.26,1.45-1.87,2.19-.59,.75-1.19,1.5-1.77,2.25-1.17,1.5-2.35,2.97-3.48,4.47-1.09,1.53-2.17,3.04-3.24,4.55-.53,.76-1.06,1.51-1.59,2.26-.5,.77-.99,1.54-1.49,2.3-.98,1.53-1.95,3.06-2.91,4.56-3.65,6.16-6.97,12.25-9.68,18.33-5.53,12.1-9.21,23.8-11.58,34.34-.29,1.32-.62,2.61-.86,3.89-.23,1.29-.46,2.55-.69,3.79-.45,2.48-.88,4.88-1.14,7.2-.29,2.32-.6,4.54-.81,6.67-.16,2.13-.32,4.16-.47,6.09-.17,1.93-.21,3.76-.25,5.48-.04,1.72-.08,3.33-.12,4.83-.02,3,.1,5.55,.14,7.62,.03,2.07,.16,3.65,.24,4.72,.08,1.07,.12,1.62,.12,1.62l9.09-.67s-.04-.52-.12-1.54c-.08-1.01-.2-2.52-.23-4.48-.04-1.96-.15-4.38-.14-7.23,.03-1.42,.07-2.95,.11-4.58,.04-1.63,.07-3.37,.24-5.2,.14-1.83,.29-3.76,.44-5.78,.19-2.02,.5-4.12,.77-6.32,.24-2.2,.65-4.47,1.08-6.83,.21-1.18,.43-2.38,.65-3.6,.23-1.22,.54-2.44,.82-3.69,2.24-9.99,5.73-21.08,10.97-32.56,2.57-5.76,5.72-11.53,9.17-17.38,.91-1.43,1.84-2.87,2.77-4.33,.47-.73,.94-1.45,1.41-2.18,.5-.71,1-1.43,1.5-2.14,1.02-1.43,2.04-2.87,3.07-4.31,1.07-1.42,2.19-2.82,3.3-4.24,.56-.71,1.12-1.42,1.68-2.13,.57-.7,1.18-1.38,1.77-2.08,1.2-1.38,2.4-2.77,3.62-4.17,1.27-1.34,2.56-2.69,3.85-4.05,.65-.67,1.29-1.36,1.96-2.02,.68-.65,1.36-1.3,2.05-1.96,5.41-5.3,11.4-10.23,17.75-14.88,12.72-9.26,27.23-17.02,42.87-22.48,15.62-5.49,32.34-8.66,49.09-9.25,16.73-.63,33.6,1.29,49.6,5.58,1.99,.57,3.98,1.13,5.96,1.7,1.96,.62,3.91,1.3,5.85,1.96,1.95,.63,3.85,1.39,5.75,2.14,1.89,.77,3.81,1.45,5.64,2.32,1.85,.84,3.69,1.67,5.53,2.5,1.81,.88,3.59,1.82,5.37,2.72,1.79,.89,3.52,1.88,5.24,2.87,1.71,1.01,3.46,1.93,5.1,3.02,6.72,4.12,12.94,8.74,18.82,13.51,2.86,2.48,5.74,4.88,8.38,7.48,1.32,1.29,2.7,2.52,3.95,3.85,1.26,1.32,2.51,2.64,3.76,3.94,9.81,10.58,17.62,21.89,23.74,32.9,6.12,11.03,10.37,21.85,13.38,31.64,3.05,9.8,4.63,18.62,5.67,25.89,.23,1.82,.45,3.55,.65,5.17,.2,1.62,.27,3.16,.39,4.58,.23,2.84,.41,5.26,.42,7.23,.09,3.93,.14,6.02,.14,6.02h9.12Z" fill="#fffefd" mix-blend-mode="screen" opacity=".3"/><path d="M315.26,176.24s-.02-.94-.07-2.7c-.06-1.76-.04-4.34-.35-7.62-.46-6.54-1.59-15.92-4.62-26.78-.38-1.35-.78-2.74-1.18-4.15-.47-1.39-.95-2.8-1.43-4.24-.24-.72-.49-1.44-.74-2.17-.28-.72-.56-1.44-.85-2.17-.58-1.46-1.16-2.94-1.76-4.44-2.57-5.92-5.64-12-9.27-18.04-7.39-11.97-17.03-23.73-28.53-33.41-5.72-4.87-11.82-9.29-18.12-13.16-6.34-3.81-12.87-7.06-19.37-9.75-1.64-.65-3.26-1.29-4.87-1.92-1.64-.55-3.26-1.1-4.86-1.65-1.59-.58-3.22-1-4.81-1.46-1.6-.43-3.15-.95-4.73-1.28-1.57-.36-3.12-.72-4.65-1.07-1.53-.35-3.06-.57-4.55-.85-2.98-.6-5.9-.9-8.69-1.26-11.2-1.29-20.64-.94-27.18-.37-.82,.06-1.59,.12-2.32,.18-.73,.07-1.41,.17-2.04,.25-1.27,.16-2.34,.3-3.22,.41-.87,.11-1.54,.2-1.99,.25-.45,.08-.68,.12-.68,.12l-.87-5.48s.24-.04,.71-.13c.47-.06,1.17-.15,2.07-.27,.91-.11,2.03-.26,3.34-.42,.66-.08,1.36-.19,2.12-.25,.76-.06,1.56-.12,2.42-.18,6.8-.59,16.6-.96,28.25,.38,2.9,.38,5.94,.69,9.04,1.31,1.55,.3,3.14,.52,4.73,.89,1.59,.37,3.2,.74,4.84,1.12,1.65,.34,3.26,.88,4.93,1.33,1.65,.48,3.34,.91,5,1.51,1.67,.57,3.35,1.14,5.06,1.72,1.67,.66,3.36,1.33,5.07,2,6.76,2.8,13.55,6.18,20.14,10.15,6.55,4.02,12.89,8.62,18.84,13.68,11.96,10.07,21.98,22.29,29.67,34.74,3.78,6.27,6.98,12.6,9.65,18.76,.62,1.56,1.23,3.1,1.83,4.61,.3,.76,.59,1.51,.88,2.26,.26,.76,.51,1.51,.77,2.26,.5,1.5,1,2.97,1.49,4.41,.42,1.47,.83,2.9,1.23,4.31,3.15,11.3,4.33,21.05,4.81,27.85,.32,3.4,.31,6.09,.37,7.92,.04,1.83,.07,2.8,.07,2.8h-5.55Z" fill="#ff9676" mix-blend-mode="screen" opacity=".5"/><path d="M298.53,173.49c-.02-.87-.05-1.93-.08-3.15-.05-1.21-.19-2.58-.29-4.07-.46-5.96-1.6-13.86-3.67-21.54-2.04-7.69-4.87-15.15-7.49-20.52-.58-1.38-1.28-2.56-1.81-3.65-.55-1.08-1.04-2.02-1.43-2.79-.87-1.51-1.37-2.37-1.37-2.37l-14.85,8.53s.43,.74,1.18,2.04c.34,.67,.75,1.48,1.23,2.4,.45,.94,1.07,1.95,1.56,3.13,2.25,4.61,4.68,11.02,6.43,17.62,1.78,6.6,2.76,13.39,3.15,18.52,.08,1.28,.21,2.46,.26,3.5,.02,1.05,.04,1.96,.06,2.72,.04,1.51,.07,2.37,.07,2.37,0,0-.03,.86-.07,2.37-.02,.75-.04,1.67-.06,2.72-.04,1.05-.17,2.22-.26,3.5-.39,5.13-1.37,11.92-3.15,18.52-1.75,6.6-4.18,13.01-6.43,17.62-.49,1.19-1.1,2.19-1.56,3.13-.47,.93-.89,1.74-1.23,2.4-.75,1.3-1.18,2.04-1.18,2.04l14.85,8.53s.5-.86,1.37-2.37c.4-.77,.88-1.71,1.43-2.79,.53-1.09,1.23-2.27,1.81-3.65,2.61-5.37,5.45-12.83,7.49-20.51,2.07-7.68,3.21-15.59,3.67-21.54,.1-1.49,.24-2.85,.29-4.07,.03-1.21,.05-2.28,.08-3.15,.05-1.75,.07-2.74,.07-2.74,0,0-.03-1-.07-2.74Z" fill="#ff9676" mix-blend-mode="screen" opacity=".5"/><path d="M259.78,93.48s-.34-.38-1.06-1.04c-.71-.68-1.76-1.68-3.14-2.99-2.86-2.49-7-6.25-12.88-10.22-5.84-3.99-13.29-8.41-22.46-12.05-1.15-.45-2.31-.91-3.49-1.38-1.2-.41-2.43-.82-3.67-1.24-.62-.21-1.24-.42-1.87-.64-.64-.18-1.28-.36-1.93-.54-1.3-.36-2.6-.76-3.94-1.11-5.37-1.33-11.09-2.36-17.13-3.03-6.05-.56-12.41-.72-18.97-.37-6.55,.33-13.26,1.36-20.03,2.93-13.52,3.16-27.23,8.99-39.73,17.64-12.5,8.62-23.72,20.05-32.31,33.48-8.61,13.41-14.54,28.8-17.06,44.78-2.54,15.99-1.73,32.6,2.25,47.98,3.97,15.42,11.11,29.71,20.33,41.78,9.22,12.09,20.45,21.95,32.32,29.19,11.91,7.22,24.34,11.95,36.19,14.49,1.47,.39,2.96,.58,4.42,.86,1.46,.26,2.9,.55,4.35,.69,1.44,.18,2.87,.37,4.27,.55,1.42,.11,2.82,.21,4.2,.31,1.38,.14,2.75,.17,4.1,.19,1.35,.02,2.68,.09,4,.09,1.31-.04,2.61-.07,3.89-.1,.64-.01,1.27-.03,1.9-.04,.63-.05,1.25-.1,1.86-.15,9.86-.67,18.32-2.45,25.1-4.44,1.71-.44,3.29-1.01,4.78-1.51,1.49-.5,2.9-.96,4.16-1.5,1.28-.5,2.46-.97,3.55-1.39,1.07-.46,2.03-.92,2.89-1.3,.87-.39,1.63-.73,2.29-1.03,.66-.3,1.19-.6,1.62-.82,.87-.45,1.32-.68,1.32-.68l5.08,9.87s-.49,.25-1.45,.74c-.48,.24-1.06,.56-1.78,.9-.72,.33-1.56,.7-2.5,1.13-.95,.42-1.99,.92-3.17,1.42-1.19,.47-2.48,.98-3.88,1.53-1.39,.58-2.92,1.09-4.56,1.64-1.63,.55-3.36,1.17-5.24,1.66-7.42,2.18-16.68,4.12-27.47,4.86-.67,.05-1.35,.11-2.04,.16-.69,.02-1.38,.03-2.07,.05-1.39,.04-2.81,.07-4.25,.11-1.44,0-2.89-.07-4.37-.1-1.48-.03-2.97-.06-4.48-.21-1.51-.12-3.04-.23-4.59-.35-1.54-.2-3.1-.39-4.68-.59-1.58-.16-3.16-.47-4.76-.76-1.6-.3-3.23-.52-4.84-.94-12.98-2.78-26.6-7.96-39.63-15.87-12.99-7.93-25.28-18.71-35.36-31.93-10.09-13.2-17.91-28.85-22.25-45.74-4.35-16.86-5.24-34.98-2.46-52.48,2.76-17.5,9.25-34.36,18.68-49.04,9.4-14.7,21.68-27.19,35.35-36.62,13.67-9.47,28.69-15.85,43.5-19.32,7.41-1.72,14.76-2.84,21.92-3.21,7.16-.38,14.11-.21,20.73,.41,6.61,.73,12.88,1.86,18.76,3.32,1.46,.38,2.89,.82,4.31,1.21,.71,.2,1.41,.4,2.11,.6,.69,.23,1.37,.47,2.05,.7,1.36,.46,2.7,.91,4.01,1.36,1.29,.51,2.57,1.02,3.82,1.51,10.04,3.99,18.19,8.82,24.59,13.19,6.43,4.35,10.97,8.45,14.09,11.18,1.5,1.43,2.66,2.53,3.43,3.27,.79,.73,1.16,1.14,1.16,1.14l-7.88,7.81Z" fill="#ff9676" mix-blend-mode="screen" opacity=".5"/><path d="M256.3,116.44s-.42-.55-1.21-1.57c-.4-.51-.89-1.14-1.47-1.88-.61-.71-1.31-1.53-2.1-2.44-3.18-3.63-7.97-8.58-14.52-13.61-6.52-5.06-14.9-10.08-24.56-13.84-9.64-3.79-20.56-6.15-31.56-6.67-11.01-.47-22.07,.85-32.01,3.72-9.95,2.82-18.76,7.04-25.75,11.47-7.03,4.41-12.28,8.94-15.75,12.27-1.77,1.64-3.04,3.03-3.93,3.96-.88,.94-1.35,1.44-1.35,1.44l-6.47-5.84s.51-.54,1.47-1.56c.97-1.01,2.35-2.52,4.27-4.31,3.77-3.61,9.48-8.54,17.13-13.34,7.61-4.82,17.19-9.41,28.01-12.47,10.8-3.12,22.83-4.57,34.79-4.05,11.96,.57,23.83,3.14,34.32,7.26,10.51,4.08,19.62,9.55,26.71,15.05,7.12,5.46,12.32,10.85,15.78,14.79,.85,1,1.61,1.89,2.28,2.66,.63,.8,1.16,1.48,1.6,2.04,.86,1.11,1.32,1.71,1.32,1.71l-6.98,5.23Z" fill="#fff" mix-blend-mode="screen" opacity=".3"/><path d="M167.78,251.88s.24,.03,.7,.08c.46,.07,1.14,.12,2.03,.17,1.78,.13,4.41,.29,7.74,.19,6.65-.12,16.29-1.33,26.92-5.64,5.29-2.18,10.77-5.16,16.08-9.01,5.25-3.92,10.37-8.66,14.78-14.3,2.26-2.78,4.24-5.84,6.13-8.99,1.85-3.18,3.45-6.55,4.87-10.03,2.75-6.98,4.53-14.49,5.11-22.1,.33-3.8,.3-7.63,.04-11.42-.25-3.79-.81-7.55-1.64-11.21-.8-3.67-1.87-7.25-3.21-10.68-.62-1.73-1.41-3.39-2.13-5.05-.82-1.62-1.58-3.26-2.48-4.8-3.45-6.27-7.78-11.74-12.36-16.42-4.62-4.65-9.59-8.44-14.46-11.43-9.78-6.02-19.15-8.61-25.67-9.85-3.29-.58-5.9-.87-7.68-1.02-1.78-.12-2.74-.19-2.74-.19l.84-18.22s1.18,.08,3.39,.23c2.21,.18,5.44,.53,9.51,1.26,4.06,.78,8.96,1.94,14.4,3.88,5.43,1.93,11.4,4.63,17.45,8.34,6.05,3.71,12.19,8.39,17.9,14.15,5.68,5.78,11.04,12.59,15.33,20.37,1.12,1.92,2.08,3.94,3.08,5.96,.91,2.06,1.87,4.12,2.64,6.27,1.66,4.25,2.98,8.69,3.99,13.23,1.03,4.54,1.72,9.19,2.03,13.88,.32,4.69,.36,9.43-.05,14.14-.72,9.42-2.92,18.73-6.34,27.4-1.75,4.32-3.75,8.5-6.04,12.45-2.33,3.92-4.81,7.71-7.59,11.15-5.45,6.96-11.77,12.84-18.29,17.69-6.58,4.79-13.39,8.48-19.95,11.19-6.58,2.68-12.88,4.39-18.54,5.44-5.66,1.07-10.68,1.46-14.81,1.56-4.13,.12-7.38-.07-9.59-.23-1.11-.07-1.95-.14-2.52-.22-.57-.07-.86-.1-.86-.1l2.01-18.12Z" fill="#ff9676" mix-blend-mode="screen" opacity=".5"/><path d="M92.08,100.26s-.93,1.07-2.66,3.09c-.88,1-1.89,2.29-3.07,3.82-1.2,1.51-2.49,3.32-3.9,5.38-2.78,4.13-5.99,9.31-8.91,15.63-2.94,6.31-5.71,13.7-7.65,22.04-1.93,8.33-3.13,17.57-3,27.34,.05,4.89,.46,9.9,1.16,14.99,.78,5.07,1.82,10.22,3.33,15.35,2.98,10.25,7.54,20.46,13.65,29.91,6.11,9.45,13.74,18.08,22.42,25.34,8.69,7.3,18.57,13.32,28.94,17.66,10.37,4.36,21.21,7.05,31.82,8.17,21.28,2.28,41.41-1.79,57.05-8.67,7.86-3.4,14.67-7.4,20.35-11.42,5.67-4.03,10.27-8,13.81-11.49,1.8-1.71,3.27-3.37,4.61-4.76,1.3-1.42,2.34-2.69,3.21-3.69,.87-1,1.5-1.81,1.92-2.36,.42-.54,.64-.83,.64-.83l-7.2-5.6s-.2,.26-.59,.76c-.39,.5-.96,1.25-1.76,2.17-.8,.92-1.76,2.09-2.96,3.4-1.23,1.28-2.58,2.8-4.24,4.38-3.25,3.21-7.49,6.86-12.7,10.57-5.22,3.69-11.48,7.37-18.7,10.5-14.38,6.33-32.91,10.06-52.48,7.97-9.76-1.03-19.72-3.5-29.26-7.51-9.53-3.99-18.61-9.52-26.61-16.24-8-6.69-15.01-14.63-20.63-23.31-5.62-8.68-9.81-18.06-12.55-27.49-1.39-4.71-2.34-9.46-3.06-14.12-.65-4.68-1.02-9.29-1.07-13.79-.12-9,.99-17.49,2.76-25.15,3.6-15.36,10.08-27.1,15.23-34.63,1.3-1.89,2.48-3.56,3.59-4.95,1.08-1.41,2.01-2.6,2.82-3.52,1.6-1.85,2.45-2.84,2.45-2.84l-6.77-6.11Z" fill="#fff" mix-blend-mode="screen" opacity=".3"/><path d="M119.74,125.22s-.33,.39-.96,1.12c-.62,.74-1.58,1.78-2.65,3.23-2.22,2.83-5.19,7.06-7.95,12.58-1.43,2.74-2.67,5.85-3.88,9.16-1.13,3.35-2.11,6.95-2.85,10.74-1.39,7.58-1.79,15.9-.66,24.06,.54,4.08,1.4,8.11,2.54,12,1.18,3.88,2.64,7.59,4.29,11.07,3.32,6.97,7.54,12.88,11.63,17.5,4.08,4.64,8.05,7.96,10.92,10.12,1.4,1.13,2.61,1.87,3.39,2.44,.79,.56,1.22,.83,1.22,.83l-3.03,4.65s-.47-.29-1.31-.89c-.84-.61-2.13-1.41-3.63-2.62-3.07-2.32-7.32-5.88-11.7-10.85-4.38-4.95-8.91-11.3-12.48-18.78-1.78-3.74-3.34-7.73-4.61-11.88-1.23-4.17-2.15-8.49-2.72-12.87-1.2-8.75-.78-17.67,.71-25.8,.79-4.06,1.84-7.93,3.06-11.52,1.3-3.56,2.63-6.9,4.17-9.84,2.95-5.93,6.15-10.47,8.53-13.5,1.16-1.55,2.18-2.67,2.84-3.46,.67-.78,1.03-1.2,1.03-1.2l4.12,3.72Z" fill="#ff9676" mix-blend-mode="screen" opacity=".5"/><path d="M157.75,119.71s-.46,.15-1.27,.41c-.79,.31-1.93,.71-3.26,1.27-2.69,1.08-6.14,2.85-9.37,4.96-3.25,2.1-6.23,4.58-8.34,6.58-.52,.51-1.02,.95-1.43,1.37-.41,.43-.76,.81-1.05,1.12-.59,.61-.93,.97-.93,.97h0s-.32,.37-.87,1.02c-.28,.32-.62,.71-1,1.16-.38,.45-.77,1-1.22,1.57-1.78,2.3-3.94,5.52-5.69,8.96-1.76,3.43-3.18,7.04-3.98,9.83-.42,1.39-.7,2.56-.93,3.38-.18,.83-.28,1.3-.28,1.3l16.74,3.62s.07-.34,.19-.93c.17-.58,.36-1.42,.66-2.4,.56-1.98,1.57-4.54,2.82-6.97,1.24-2.44,2.78-4.73,4.05-6.37,.32-.41,.59-.8,.87-1.12,.28-.32,.52-.6,.72-.83,.39-.47,.62-.74,.62-.74h0s.24-.25,.67-.69c.21-.22,.46-.49,.75-.81,.3-.3,.66-.61,1.03-.98,1.51-1.43,3.62-3.2,5.93-4.68,2.3-1.49,4.73-2.76,6.65-3.52,.95-.4,1.76-.67,2.32-.9,.57-.18,.9-.28,.9-.28l-5.31-16.28Z" fill="#1da5d5" mix-blend-mode="screen" opacity=".5"/><path d="M121.59,178.78s0,.24,.04,.69c.03,.46,.08,1.13,.15,2.02,.22,1.75,.47,4.35,1.27,7.55,.78,3.2,1.97,7.05,4,11.16,.96,2.08,2.23,4.16,3.61,6.33,1.44,2.13,3.1,4.26,4.97,6.38,3.84,4.16,8.62,8.22,14.29,11.29,5.65,3.11,12.18,5.38,19.2,6.29,7.01,.92,14.47,.47,21.62-1.49,7.16-1.95,13.98-5.4,19.84-10.13,5.86-4.73,10.8-10.77,14.2-17.29,3.43-6.55,5.42-13.7,5.99-20.75,.58-7.05-.22-13.98-2.06-20.18-1.87-6.2-4.68-11.7-7.98-16.27-3.3-4.55-7.02-8.3-10.67-11.13-3.62-2.85-7.09-4.87-10.05-6.29-2.97-1.4-5.39-2.33-7.08-2.82-.84-.28-1.48-.48-1.93-.58-.44-.12-.67-.18-.67-.18l2.85-10.73s.27,.07,.8,.21c.54,.12,1.31,.37,2.32,.7,2.03,.6,4.95,1.71,8.53,3.4,3.56,1.72,7.74,4.15,12.09,7.57,4.37,3.4,8.83,7.87,12.81,13.37,3.97,5.5,7.37,12.13,9.61,19.6,2.22,7.46,3.19,15.77,2.48,24.25-.69,8.47-3.09,17.09-7.22,24.98-4.12,7.88-10.01,15.09-17.06,20.78-7.04,5.7-15.28,9.87-23.89,12.21-8.61,2.36-17.56,2.9-25.98,1.79-8.44-1.09-16.32-3.81-23.12-7.57-6.84-3.71-12.56-8.56-17.16-13.56-2.26-2.54-4.25-5.12-5.98-7.69-1.66-2.61-3.19-5.12-4.35-7.62-2.44-4.95-3.88-9.58-4.81-13.43-.95-3.85-1.27-6.97-1.52-9.08-.08-1.06-.14-1.87-.18-2.42-.05-.55-.05-.83-.05-.83l11.09-.52Z" fill="#1da5d5" mix-blend-mode="screen" opacity=".5"/><g mix-blend-mode="screen" opacity=".5"><path d="M35.2,107.39l-8.46-4.17,2.3-4.4c.94-1.8,2.22-4.25,3.96-7.11,5.57-9.52,12.18-18.55,19.64-26.81,10.21-11.44,22.67-21.85,36.02-30.09,14.74-9.22,31.89-16.32,49.58-20.54,12.57-2.93,25.47-4.41,38.33-4.41,5.16,0,10.29,.25,15.27,.73,19.8,1.86,35.74,7,45.63,10.98,10.23,4.06,20.15,9.17,29.47,15.2l4.46,2.96,6.28,4.6-5.72,7.5-5.94-4.35-4.21-2.79c-8.79-5.69-18.15-10.52-27.81-14.35-9.32-3.75-24.34-8.6-43.03-10.35-4.69-.46-9.53-.69-14.39-.69-12.13,0-24.3,1.4-36.17,4.16-16.71,3.99-32.89,10.7-46.77,19.38-12.6,7.78-24.35,17.59-33.97,28.38-7.03,7.79-13.26,16.3-18.52,25.29-1.63,2.66-2.83,4.97-3.71,6.66l-2.21,4.23Zm-7.11-4.61l6.67,3.28,1.75-3.36c.88-1.7,2.09-4.02,3.73-6.71,5.29-9.04,11.57-17.61,18.64-25.45,9.68-10.86,21.51-20.73,34.19-28.56,13.98-8.74,30.25-15.49,47.07-19.51,11.95-2.78,24.19-4.19,36.39-4.19,4.89,0,9.77,.23,14.48,.7,18.8,1.77,33.93,6.64,43.31,10.42,9.72,3.85,19.13,8.71,27.99,14.44l4.24,2.8,5.17,3.79,4.51-5.91-5.79-4.21-4.08-2.71c-9.26-5.99-19.12-11.07-29.29-15.11-9.83-3.96-25.67-9.06-45.35-10.91-4.94-.48-10.05-.73-15.17-.73-12.79,0-25.61,1.48-38.1,4.39-17.58,4.2-34.62,11.26-49.28,20.42-13.28,8.2-25.66,18.54-35.8,29.91-7.41,8.21-13.98,17.18-19.52,26.65-1.73,2.83-3,5.27-3.93,7.06l-1.82,3.5Z" fill="none" stroke="#fff" stroke-miterlimit="10"/></g><g mix-blend-mode="screen" opacity=".5"><path d="M200.89,326.78l-3.08-18.38,1.72-.28c.73-.1,1.81-.31,3.51-.68,3.26-.67,7.69-1.66,13.2-3.41,2.35-.68,4.86-1.61,7.52-2.59l1.68-.62,5.08-2.15c1.12-.47,2.22-1.01,3.39-1.58,.65-.32,1.31-.64,1.98-.95,8.22-4.08,16.03-9,23.19-14.62,8.42-6.65,16.11-14.39,22.87-22.99,3.91-5.23,7.1-9.74,9.89-14.71,1.12-1.79,2.11-3.7,3.06-5.55,.44-.85,.88-1.69,1.33-2.54,.43-.87,.84-1.77,1.25-2.67,.24-.52,.47-1.03,.71-1.54l.98-2.13c.2-.45,.38-.91,.57-1.37,.1-.27,.21-.53,.32-.8l1.77-4.41,1.55-4.51c.09-.26,.18-.53,.27-.8,.17-.49,.34-.97,.49-1.47l.67-2.32c.15-.56,.32-1.12,.48-1.68,.29-.97,.58-1.98,.81-2.98,1.52-5.93,2.63-12.25,3.42-19.33,.63-6.18,.8-12.89,.51-19.92-.26-6.12-1.07-12.64-2.49-19.93-1.18-6.15-2.96-12.47-5.43-19.34-.93-2.69-2.05-5.34-3.14-7.91l-.59-1.39-.85-1.79c-1.12-2.36-2.28-4.8-3.58-7.09-1.2-2.32-2.57-4.57-3.9-6.73-.37-.6-.73-1.2-1.1-1.8l-.86-1.28c-1.5-2.24-3.05-4.56-4.72-6.7-1.4-1.97-2.96-3.83-4.46-5.63-.53-.64-1.06-1.28-1.59-1.92-.5-.54-1.01-1.1-1.52-1.67-1.6-1.77-3.25-3.59-4.98-5.24-8.14-8.22-17.83-15.57-28.84-21.85-9.38-5.27-19.47-9.44-29.97-12.38-8.86-2.48-17.95-4.03-27.03-4.61-2.77-.18-5.61-.27-8.44-.27-4.1,0-8.26,.19-12.72,.57-6.03,.61-10.66,1.41-13.48,1.97l-5.21,1.1-4.27-18.14,5.85-1.24c4.72-.94,9.89-1.7,15.36-2.25,5.06-.44,9.79-.65,14.47-.65,3.23,0,6.47,.1,9.64,.31,10.35,.66,20.72,2.43,30.82,5.25,11.95,3.35,23.43,8.09,34.11,14.09,12.48,7.12,23.53,15.49,32.85,24.89,2.07,1.98,4.04,4.17,5.95,6.28l1.46,1.61c.53,.64,1.05,1.27,1.57,1.89,1.79,2.15,3.65,4.37,5.32,6.71,2,2.58,3.86,5.36,5.65,8.06l.7,1.05,1.01,1.65c1.59,2.6,3.24,5.28,4.68,8.06,1.54,2.74,2.92,5.65,4.26,8.47l1.25,2.74c1.31,3.08,2.67,6.26,3.79,9.49,2.79,7.75,4.81,14.95,6.18,22.01,1.61,8.22,2.53,15.65,2.83,22.7,.34,7.96,.14,15.6-.58,22.71-.88,8.01-2.15,15.21-3.89,22.02-.27,1.17-.62,2.35-.95,3.49-.18,.61-.35,1.21-.52,1.82l-.77,2.63c-.17,.58-.37,1.15-.57,1.72-.1,.29-.2,.59-.3,.88l-1.77,5.13-2.01,5.01c-.12,.28-.23,.56-.34,.85-.22,.55-.44,1.11-.68,1.65l-1.11,2.42c-.25,.53-.49,1.07-.74,1.6-.49,1.07-.98,2.15-1.5,3.2-.47,.87-.91,1.74-1.36,2.6-1.14,2.19-2.31,4.46-3.63,6.58-3.51,6.21-7.67,11.95-11.27,16.74-7.69,9.81-16.46,18.62-26.08,26.22-8.17,6.39-17.06,12-26.43,16.66-.71,.33-1.4,.67-2.08,1-1.39,.67-2.7,1.31-4.04,1.88l-5.78,2.44-1.33,.49c-3.24,1.2-6.29,2.33-9.13,3.16-6.29,2-11.33,3.12-15.01,3.88-1.93,.42-3.17,.66-4.03,.78l-1.86,.3Zm-1.93-17.55l2.75,16.41,.89-.14c.84-.12,2.07-.36,3.97-.77,3.66-.75,8.66-1.87,14.92-3.86,2.82-.83,5.86-1.95,9.08-3.14l1.32-.49,5.75-2.43c1.31-.56,2.62-1.19,3.99-1.86,.69-.33,1.38-.67,2.08-1,9.3-4.63,18.14-10.19,26.25-16.54,9.55-7.54,18.27-16.3,25.9-26.04,3.57-4.76,7.71-10.47,11.2-16.64,1.3-2.11,2.47-4.36,3.6-6.53,.45-.87,.9-1.73,1.36-2.6,.51-1.03,1-2.09,1.48-3.15,.24-.54,.49-1.07,.74-1.6l1.11-2.41c.24-.52,.45-1.06,.66-1.6,.11-.28,.23-.57,.34-.85l2-4.98,1.76-5.1c.1-.29,.2-.59,.3-.89,.19-.56,.39-1.11,.55-1.68l.76-2.63c.17-.6,.35-1.21,.52-1.83,.33-1.12,.67-2.29,.94-3.45,1.73-6.78,3-13.93,3.87-21.89,.72-7.06,.92-14.65,.58-22.56-.3-7.01-1.22-14.38-2.82-22.55-1.35-7.01-3.36-14.17-6.14-21.87-1.11-3.21-2.46-6.37-3.77-9.43l-.46-1.07-.77-1.63c-1.33-2.8-2.7-5.7-4.23-8.42-1.43-2.76-3.07-5.43-4.65-8.01l-1.7-2.67c-1.79-2.68-3.64-5.45-5.62-8.01-1.66-2.32-3.51-4.53-5.29-6.66-.52-.62-1.04-1.25-1.56-1.88l-1.45-1.6c-1.9-2.1-3.86-4.27-5.91-6.23-9.26-9.35-20.24-17.67-32.64-24.74-10.61-5.96-22.01-10.67-33.89-14-10.03-2.81-20.33-4.56-30.61-5.22-3.15-.2-6.37-.31-9.58-.31-4.65,0-9.36,.21-14.38,.64-5.43,.54-10.57,1.3-15.25,2.23l-4.85,1.03,3.81,16.19,4.26-.9c2.84-.57,7.5-1.37,13.59-1.99,4.5-.38,8.69-.57,12.82-.57,2.85,0,5.71,.09,8.5,.27,9.14,.58,18.3,2.14,27.23,4.64,10.58,2.97,20.74,7.17,30.2,12.48,11.08,6.33,20.85,13.74,29.04,22.01,1.75,1.67,3.41,3.51,5.02,5.28,.51,.56,1.02,1.12,1.53,1.68,.54,.66,1.07,1.29,1.6,1.93,1.52,1.82,3.08,3.69,4.49,5.67,1.68,2.16,3.24,4.49,4.75,6.75l.87,1.3c.37,.62,.74,1.22,1.11,1.81,1.34,2.18,2.72,4.44,3.93,6.78,1.31,2.31,2.47,4.76,3.6,7.14l.86,1.81,.6,1.41c1.1,2.58,2.23,5.25,3.17,7.96,2.49,6.91,4.27,13.28,5.47,19.48,1.43,7.34,2.25,13.91,2.51,20.08,.29,7.08,.12,13.84-.52,20.07-.79,7.14-1.91,13.5-3.44,19.46-.23,1.02-.53,2.04-.83,3.02-.16,.55-.33,1.11-.48,1.67l-.67,2.33c-.15,.51-.33,1.02-.5,1.52-.09,.26-.18,.52-.27,.79l-1.56,4.54-1.78,4.44c-.11,.27-.21,.53-.32,.79-.19,.48-.38,.95-.59,1.42l-.99,2.14c-.24,.51-.48,1.03-.71,1.54-.42,.91-.83,1.82-1.28,2.71-.46,.85-.89,1.7-1.33,2.54-.97,1.87-1.96,3.8-3.09,5.6-2.81,4.99-6.02,9.53-9.96,14.8-6.81,8.67-14.56,16.47-23.04,23.17-7.22,5.66-15.09,10.61-23.38,14.73-.68,.32-1.33,.64-1.98,.95-1.18,.57-2.29,1.12-3.44,1.6l-5.11,2.16-1.7,.63c-2.68,.99-5.2,1.92-7.57,2.61-5.53,1.76-10,2.76-13.28,3.43-1.72,.38-2.83,.59-3.57,.69l-.71,.12Z" fill="none" stroke="#fff" stroke-miterlimit="10"/></g><g mix-blend-mode="screen" opacity=".3"><path d="M176.14,347.22c-6.82,0-13.68-.41-20.39-1.23-16.99-2.03-33.56-6.64-49.24-13.68-15.66-6.98-30.12-16.24-42.99-27.52l-4.7-4.24c-1.18-1.13-2.32-2.27-3.46-3.4l-1.04-1.04c-1.46-1.41-2.83-2.93-4.16-4.4l-.16-.17c-.42-.47-.84-.93-1.27-1.4-.97-1.06-1.97-2.15-2.88-3.29l-3.92-4.77c-.93-1.2-1.82-2.4-2.71-3.6l-.99-1.33c-1.25-1.63-2.38-3.3-3.52-5.01-.36-.55-.73-1.1-1.1-1.65-.75-1.11-1.53-2.26-2.22-3.44-3.84-6.08-7.49-12.92-11.16-20.88l-.88-2.07c-1.19-2.8-2.43-5.7-3.44-8.59-.2-.57-.42-1.15-.63-1.72-.44-1.17-.89-2.38-1.26-3.6l-1.66-5.29c-3.9-13.07-6.23-26.83-6.93-40.91-.56-11.45,.12-23.26,2.01-35.1,1.75-11.12,4.54-20.35,6.48-26.33l1.74-5.03c.38-1.07,.78-2.07,1.17-3.03,.19-.46,.37-.91,.54-1.35,1.01-2.53,1.98-4.96,2.89-6.83l2.79-6.03,8.81,4.34-2.65,5.73c-.83,1.72-1.72,3.93-2.71,6.42-.16,.42-.34,.85-.52,1.3-.36,.9-.74,1.83-1.09,2.82l-1.64,4.76c-1.84,5.65-4.47,14.37-6.11,24.81-1.79,11.17-2.42,22.3-1.9,33.07,.66,13.29,2.86,26.26,6.53,38.56l1.58,5.02c.34,1.11,.76,2.24,1.16,3.32,.21,.56,.42,1.12,.62,1.69,.92,2.65,2.05,5.31,3.15,7.89,.3,.71,.61,1.43,.91,2.15,3.47,7.54,6.92,13.98,10.52,19.69,.64,1.09,1.36,2.15,2.05,3.17,.36,.54,.73,1.07,1.08,1.62,1.13,1.69,2.16,3.21,3.3,4.7l1.01,1.36c.82,1.1,1.64,2.21,2.48,3.29l3.72,4.52c.83,1.05,1.76,2.06,2.65,3.03,.42,.45,.83,.91,1.24,1.37l.19,.21c1.24,1.37,2.52,2.78,3.86,4.08l1.18,1.17c1.01,1.01,2.03,2.03,3.06,3.02l4.44,4c12.13,10.62,25.76,19.35,40.53,25.93,14.78,6.64,30.39,10.98,46.41,12.89,15.38,1.87,31.36,1.46,46.65-1.2,8.06-1.43,15.15-3.17,21.68-5.32l2.62-.83c.55-.18,1.11-.39,1.66-.59l5.95-2.19,5.74-2.42c.53-.22,1.05-.44,1.57-.68l3.66-1.75c1.13-.54,2.26-1.08,3.37-1.64l6.72-3.64,6.38-3.86c6.29-4.12,11.16-7.66,15.32-11.12,8.61-7.03,16.46-14.93,23.36-23.5,.25-.32,.51-.63,.76-.94,.52-.63,1.03-1.26,1.51-1.9l2.1-2.84c1.24-1.68,2.65-3.58,3.83-5.43,.37-.56,.73-1.11,1.09-1.66,.8-1.21,1.56-2.35,2.27-3.5l2.85-4.82c.83-1.36,1.53-2.69,2.2-3.98l2.27-4.33c.84-1.69,1.55-3.24,2.17-4.61,.28-.61,.54-1.18,.79-1.71,.79-1.66,1.32-3,1.68-3.89l.77-1.91,9.1,3.68-.77,1.92c-.4,.99-.97,2.43-1.82,4.23-.25,.54-.52,1.13-.81,1.75-.67,1.46-1.42,3.11-2.33,4.93l-2.39,4.58c-.72,1.37-1.46,2.79-2.35,4.25l-3.01,5.08c-.77,1.25-1.59,2.49-2.47,3.81-.36,.54-.73,1.09-1.09,1.65-1.19,1.86-2.49,3.64-4.08,5.79l-2.21,3c-.53,.7-1.08,1.38-1.65,2.07-.26,.32-.52,.64-.78,.96-7.32,9.09-15.66,17.48-24.79,24.93-4.46,3.71-9.62,7.46-16.27,11.8l-6.77,4.09-7.12,3.86c-1.19,.6-2.39,1.18-3.6,1.76l-3.85,1.84c-.58,.26-1.16,.51-1.75,.76l-6.02,2.54-6.28,2.31c-.6,.22-1.2,.44-1.8,.64l-2.76,.87c-6.96,2.29-14.48,4.13-23,5.64-9.56,1.66-19.35,2.5-29.12,2.5ZM23.52,101.64l-2.36,5.11c-.89,1.85-1.86,4.26-2.86,6.77-.17,.44-.35,.89-.54,1.36-.39,.95-.78,1.94-1.15,2.99l-1.73,5.02c-1.93,5.94-4.71,15.12-6.44,26.17-1.88,11.77-2.56,23.51-2,34.89,.7,14,3.01,27.69,6.89,40.67l1.66,5.29c.37,1.19,.81,2.39,1.24,3.54,.21,.58,.43,1.15,.64,1.73,1,2.86,2.23,5.74,3.41,8.53l.88,2.06c3.64,7.91,7.27,14.71,11.1,20.77,.68,1.16,1.45,2.3,2.2,3.4,.37,.55,.75,1.1,1.11,1.66,1.13,1.69,2.25,3.35,3.48,4.96l1,1.34c.89,1.19,1.77,2.39,2.69,3.57l3.92,4.77c.89,1.12,1.88,2.2,2.84,3.25,.43,.46,.85,.93,1.27,1.4l.15,.17c1.32,1.46,2.69,2.96,4.12,4.35l1.04,1.04c1.13,1.13,2.27,2.27,3.43,3.38l4.68,4.23c12.79,11.2,27.17,20.41,42.74,27.35,15.59,7,32.06,11.58,48.95,13.6,16.22,1.97,33.08,1.54,49.21-1.26,8.47-1.5,15.95-3.33,22.86-5.6l2.76-.87c.59-.2,1.18-.41,1.76-.63l6.26-2.31,6-2.53c.57-.24,1.15-.49,1.71-.74l3.84-1.83c1.2-.58,2.39-1.15,3.57-1.74l7.43-4.05,6.39-3.86c6.59-4.31,11.74-8.04,16.16-11.73,9.07-7.41,17.36-15.75,24.64-24.79,.26-.32,.52-.64,.78-.96,.55-.68,1.1-1.35,1.62-2.03l2.21-2.99c1.57-2.13,2.87-3.9,4.04-5.74,.37-.56,.74-1.12,1.1-1.66,.87-1.31,1.68-2.54,2.44-3.77l3-5.08c.88-1.44,1.61-2.84,2.32-4.2l2.38-4.56c.9-1.8,1.65-3.44,2.31-4.89,.29-.63,.56-1.22,.81-1.76,.84-1.77,1.4-3.19,1.78-4.13l.42-1.04-7.25-2.93-.37,.92c-.38,.96-.93,2.33-1.73,4.01-.25,.52-.5,1.09-.78,1.7-.63,1.37-1.34,2.93-2.19,4.65l-2.27,4.34c-.68,1.3-1.38,2.65-2.23,4.03l-2.85,4.82c-.72,1.17-1.48,2.31-2.29,3.53-.36,.54-.72,1.09-1.09,1.64-1.19,1.88-2.61,3.79-3.87,5.49l-2.1,2.84c-.49,.65-1.01,1.29-1.54,1.94-.25,.31-.51,.62-.76,.93-6.94,8.62-14.84,16.57-23.5,23.64-4.18,3.48-9.08,7.04-15.42,11.19l-6.42,3.88-6.75,3.66c-1.13,.57-2.26,1.11-3.4,1.66l-3.66,1.75c-.53,.24-1.07,.47-1.6,.69l-5.76,2.43-5.97,2.2c-.56,.21-1.12,.41-1.69,.6l-2.62,.83c-6.57,2.16-13.71,3.91-21.82,5.35-15.39,2.67-31.47,3.09-46.95,1.21-16.11-1.93-31.82-6.29-46.7-12.97-14.86-6.62-28.58-15.41-40.79-26.1l-4.45-4.02c-1.05-1.01-2.07-2.03-3.09-3.05l-1.17-1.16c-1.37-1.32-2.66-2.74-3.9-4.12l-.19-.21c-.41-.46-.82-.91-1.24-1.36-.91-.99-1.84-2.01-2.69-3.08l-3.72-4.52c-.86-1.11-1.68-2.22-2.5-3.32l-1.01-1.35c-1.15-1.5-2.19-3.04-3.34-4.75-.36-.54-.72-1.07-1.08-1.61-.7-1.04-1.43-2.11-2.08-3.21-3.62-5.73-7.09-12.22-10.58-19.81-.31-.73-.61-1.45-.92-2.16-1.1-2.59-2.25-5.27-3.18-7.95-.2-.56-.41-1.11-.61-1.67-.41-1.1-.83-2.23-1.18-3.37l-1.58-5.02c-3.7-12.39-5.91-25.44-6.57-38.81-.53-10.84,.11-22.04,1.91-33.28,1.65-10.5,4.3-19.28,6.15-24.97l1.64-4.77c.36-1.02,.74-1.96,1.11-2.87,.18-.44,.35-.87,.51-1.29,1-2.52,1.89-4.74,2.74-6.48l2.24-4.84-7.02-3.45Z" fill="#fffffe" stroke="#fff" stroke-miterlimit="10"/></g><g mix-blend-mode="screen" opacity=".4"><path d="M135.36,310.45l-1.14-.33-5.02-1.72c-.23-.08-.45-.16-.69-.24-.41-.14-.84-.29-1.28-.46l-2.18-.88c-8.53-3.31-16.75-7.5-24.44-12.44-.52-.35-1.05-.69-1.58-1.04-1.89-1.24-3.84-2.52-5.74-3.99-.42-.31-.85-.62-1.28-.94-.81-.59-1.65-1.2-2.46-1.86l-3.72-3.03c-.87-.67-1.7-1.44-2.51-2.18-.4-.36-.8-.73-1.21-1.09l-.85-.77c-.96-.86-1.95-1.75-2.87-2.71l-3.65-3.64-3.56-3.91c-4.85-5.53-9.29-11.4-13.2-17.47-4.02-6.37-7.57-13.09-10.55-19.99-5.71-13.01-9.5-27.87-10.95-42.97-.57-6.75-.69-13.64-.36-20.47l.67-7.82,.81-6.1,.78-4.29c1.69-9.01,4.29-17.86,7.75-26.32,.91-2.4,1.81-4.32,2.52-5.86,.2-.43,.39-.83,.55-1.19l1.35-2.93,5.71,2.81-1.3,2.81c-.16,.36-.34,.75-.55,1.18-.68,1.46-1.52,3.27-2.39,5.55-3.3,8.08-5.79,16.53-7.4,25.13l-.75,4.1-.86,6.47-.56,6.82c-.31,6.51-.2,13.09,.34,19.53,1.39,14.43,5,28.61,10.45,41.02,2.84,6.58,6.23,13,10.07,19.09,3.73,5.79,7.97,11.4,12.6,16.67l3.4,3.74,3.5,3.49c.87,.9,1.8,1.74,2.7,2.54l.84,.75c.4,.35,.8,.71,1.19,1.08,.79,.72,1.54,1.41,2.34,2.03l3.59,2.92c.74,.61,1.53,1.18,2.28,1.73,.43,.31,.86,.63,1.28,.94,1.79,1.38,3.64,2.59,5.42,3.76,.52,.34,1.05,.69,1.56,1.03,7.33,4.72,15.18,8.71,23.33,11.88l2.1,.84c.42,.16,.83,.3,1.23,.43l6.53,2.18-1.88,6.08ZM51.04,115.18l-.92,2c-.16,.36-.35,.76-.55,1.2-.71,1.52-1.59,3.42-2.5,5.8-3.43,8.41-6.02,17.2-7.7,26.14l-.78,4.26-.97,7.68-.5,6.15c-.33,6.77-.21,13.61,.36,20.32,1.44,14.99,5.2,29.74,10.87,42.66,2.96,6.85,6.48,13.53,10.47,19.85,3.88,6.02,8.28,11.86,13.1,17.34l3.74,4.09,3.44,3.43c.91,.94,1.89,1.82,2.83,2.67l.85,.77c.41,.36,.81,.73,1.22,1.1,.83,.76,1.62,1.48,2.46,2.13l3.73,3.04c.79,.64,1.62,1.25,2.42,1.83,.44,.32,.87,.63,1.29,.95,1.88,1.45,3.82,2.72,5.69,3.95,.53,.35,1.06,.69,1.57,1.04,7.62,4.9,15.78,9.06,24.26,12.34l2.18,.87c.42,.16,.84,.3,1.24,.44,.24,.08,.47,.16,.69,.24l5.16,1.76,1.29-4.17-.5-.16-5.09-1.75c-.41-.14-.84-.28-1.28-.45l-2.1-.84c-8.21-3.18-16.12-7.21-23.51-11.97-.52-.35-1.04-.69-1.56-1.03-1.8-1.18-3.66-2.4-5.48-3.8-.41-.31-.84-.62-1.27-.93-.77-.56-1.56-1.14-2.33-1.76l-3.58-2.92c-.83-.64-1.62-1.37-2.39-2.07-.39-.36-.78-.72-1.18-1.07l-.84-.76c-.91-.82-1.86-1.67-2.74-2.59l-3.51-3.5-3.42-3.76c-4.67-5.32-8.94-10.97-12.69-16.8-3.87-6.13-7.28-12.6-10.14-19.23-5.49-12.5-9.13-26.8-10.53-41.33-.55-6.49-.67-13.11-.35-19.69l.65-7.52,.78-5.88,.75-4.1c1.62-8.66,4.13-17.18,7.45-25.31,.87-2.29,1.72-4.13,2.41-5.6,.2-.43,.38-.82,.54-1.18l.89-1.93-3.92-1.93Z" fill="#fff"/></g><g mix-blend-mode="screen" opacity=".4"><path d="M57.7,184.22l-.21-3.14-.05-3.06c0-.42,0-.85-.02-1.3-.02-.85-.05-1.72,0-2.67,.02-6.31,.85-14,2.27-21.07,1.29-6.56,3.49-13.98,6.04-20.35,.21-.52,.41-1.02,.6-1.5,.31-.78,.6-1.51,.89-2.17l2.39-5.18,2.66-5.07c.35-.65,.75-1.32,1.18-2.04,.27-.44,.54-.9,.82-1.38,3.49-5.91,8.03-12.18,12.44-17.21,4.74-5.44,10.32-10.79,15.33-14.67,.7-.61,1.4-1.12,2.09-1.62,.36-.26,.71-.52,1.04-.77l2.45-1.82,2.63-1.76,9.8,14.57-2.31,1.54-2.07,1.54c-.28,.22-.6,.45-.93,.69-.57,.41-1.15,.83-1.73,1.34-4.24,3.28-8.99,7.83-13.06,12.5-3.75,4.27-7.61,9.61-10.59,14.65-.25,.44-.51,.86-.75,1.27-.35,.58-.67,1.12-.96,1.64l-2.28,4.35-2.04,4.44c-.24,.53-.47,1.12-.71,1.74-.17,.45-.36,.91-.55,1.39-2.17,5.44-4.05,11.75-5.14,17.32-1.22,6.07-1.92,12.61-1.93,17.94-.05,.8-.03,1.52,0,2.22,.01,.41,.02,.8,.02,1.17l.04,2.6,.19,2.75-17.53,1.12Zm52.28-105.41l-1.79,1.2-2.42,1.8c-.32,.25-.68,.51-1.05,.78-.67,.49-1.36,.99-2.04,1.58-4.98,3.87-10.51,9.16-15.21,14.56-4.38,4.98-8.87,11.2-12.33,17.05-.28,.48-.56,.94-.82,1.39-.42,.71-.82,1.37-1.16,2l-2.64,5.04-2.37,5.15c-.29,.65-.57,1.36-.87,2.13-.19,.48-.39,.99-.6,1.51-2.52,6.31-4.71,13.66-5.99,20.17-1.41,7.01-2.23,14.63-2.25,20.91-.06,.94-.03,1.79,0,2.61,.01,.46,.02,.9,.02,1.32l.05,3.02,.14,2.12,15.53-1-.13-2.34-.03-2.07c0-.37,0-.75-.02-1.14-.02-.69-.05-1.47,0-2.28,.01-5.36,.72-11.97,1.95-18.1,1.51-7.7,3.91-14.27,5.2-17.5,.2-.48,.38-.94,.55-1.38,.25-.64,.49-1.24,.73-1.79l2.06-4.47,2.3-4.38c.29-.54,.63-1.1,.98-1.69,.24-.4,.49-.82,.75-1.26,1.77-3,5.52-8.9,10.7-14.81,4.11-4.72,8.91-9.31,13.17-12.61,.58-.52,1.22-.98,1.78-1.38,.32-.23,.63-.45,.91-.67l2.1-1.57,1.5-1-8.68-12.91Z" fill="#fff"/></g><g mix-blend-mode="screen" opacity=".5"><path d="M176.24,301.21c-9.43,0-18.83-1.07-27.92-3.17-7.43-1.73-14.32-3.96-20.48-6.6-6.17-2.64-12.19-5.75-17.88-9.24-5.32-3.39-10.34-7.06-14.92-10.93-.7-.6-1.37-1.21-2.04-1.82-.4-.36-.8-.72-1.19-1.08l-1.58-1.42-4.4-4.39-2.69-2.96c-5.96-6.59-11.12-13.8-15.77-22.03-3.43-6.01-5.55-11.11-7.09-14.83l-.39-.94-1.59-4.33c-.19-.51-.33-.9-.42-1.16h-2.7l13.58-4.55,.14,.51s.13,.47,.46,1.31l1.87,4.96c1.39,3.35,3.3,7.93,6.36,13.28,4.22,7.47,8.89,14,14.28,19.96l2.44,2.69,3.99,3.98,1.42,1.27c.39,.35,.78,.7,1.17,1.06,.58,.53,1.16,1.06,1.76,1.58,4.14,3.49,8.69,6.82,13.52,9.9,5.17,3.17,10.64,5.99,16.23,8.38,5.54,2.39,11.78,4.4,18.55,5.98,13.59,3.14,28.01,3.71,41.82,1.65,14.78-2.18,29.35-7.43,42.16-15.19,13.24-7.98,24.92-18.86,33.78-31.44,8.95-12.66,15.33-27.33,18.46-42.41,3.03-14.58,3.1-30.05,.2-44.73-2.71-13.76-8.07-27.24-15.52-38.97-6.81-10.66-15.49-20.31-25.11-27.9-.75-.65-1.55-1.23-2.32-1.79-.38-.28-.77-.55-1.14-.84l-.49-.36c-1-.74-1.95-1.44-2.95-2.07l-3.49-2.31-3.49-2.05c-1.18-.73-2.44-1.38-3.45-1.9-.46-.24-.91-.48-1.36-.71-.69-.37-1.38-.73-2.06-1.07l-5.07-2.34-1.65-.66c-7.72-3.16-15.65-5.46-23.57-6.84-1.44-.3-2.81-.47-4.13-.64l-1.11-.15c-1.33-.18-2.58-.35-3.75-.41l-3.69-.31c-.66-.04-1.3-.05-1.91-.07-.4-.01-.78-.02-1.14-.04l-2.81-.09c-.29,0-.56,0-.8,.01-.2,0-.38,0-.55,.01l-1.93,.03-.21-11.73,2.07-.03c.18,0,.38,0,.58-.01,.4,0,.86-.02,1.37,0l2.66,.09c.37,.01,.75,.02,1.15,.04,.69,.02,1.43,.04,2.21,.08l4.04,.33c1.35,.08,2.79,.27,4.32,.48l.99,.13c1.49,.19,3.04,.39,4.66,.72,8.75,1.52,17.5,4.05,26,7.54l2.62,1.09,4.79,2.21c.79,.39,1.57,.8,2.35,1.21,.47,.25,.94,.5,1.42,.75,1.12,.58,2.52,1.3,3.83,2.11l3.83,2.26,3.83,2.53c1.14,.71,2.25,1.54,3.33,2.33l.5,.37c.4,.3,.8,.59,1.2,.88,.87,.63,1.78,1.29,2.63,2.02,10.62,8.39,20.21,19.04,27.71,30.8,8.22,12.94,14.14,27.81,17.12,42.98,3.21,16.21,3.13,33.29-.22,49.39-3.46,16.64-10.5,32.82-20.36,46.78-9.78,13.9-22.68,25.9-37.3,34.72-14.12,8.55-30.2,14.35-46.5,16.75-6,.9-12.14,1.35-18.26,1.35ZM58.87,216.11c.08,.24,.2,.57,.36,.99l1.97,5.24c1.53,3.7,3.63,8.76,7.04,14.72,4.61,8.17,9.73,15.32,15.64,21.85l2.67,2.94,4.37,4.35,1.56,1.4c.4,.36,.8,.72,1.2,1.08,.66,.6,1.33,1.21,2.02,1.8,4.55,3.84,9.53,7.49,14.8,10.85,5.64,3.46,11.62,6.55,17.74,9.17,6.1,2.63,12.93,4.83,20.31,6.55,14.87,3.44,30.68,4.07,45.81,1.8,16.17-2.39,32.12-8.14,46.13-16.62,14.5-8.75,27.3-20.65,37-34.44,9.78-13.86,16.77-29.9,20.2-46.41,3.33-15.97,3.4-32.91,.22-48.99-2.96-15.06-8.83-29.8-16.98-42.64-7.45-11.66-16.96-22.23-27.51-30.57-.83-.72-1.72-1.36-2.58-1.99-.41-.29-.81-.59-1.21-.89l-.5-.37c-1.11-.82-2.16-1.6-3.27-2.3l-3.82-2.52-3.81-2.25c-1.29-.8-2.67-1.51-3.78-2.08-.48-.25-.96-.5-1.43-.75-.77-.41-1.54-.81-2.31-1.2l-6.14-2.79-1.21-.48c-8.44-3.46-17.12-5.98-25.81-7.49-1.6-.33-3.13-.52-4.6-.71l-1-.13c-1.5-.2-2.92-.4-4.25-.47l-4.03-.33c-.76-.04-1.49-.06-2.18-.08-.4-.01-.79-.02-1.16-.04l-2.65-.09c-.48-.01-.93,0-1.31,0-.21,0-.41,0-.6,.01l-1.07,.02,.17,9.73,.94-.02c.17,0,.35,0,.54,0,.25,0,.53-.01,.83-.01l2.84,.09c.36,.01,.74,.02,1.13,.04,.61,.02,1.26,.03,1.95,.07l3.69,.31c1.2,.06,2.47,.24,3.82,.42l1.1,.14c1.34,.17,2.73,.35,4.19,.65,7.98,1.38,15.98,3.7,23.76,6.89l2.24,.93,4.54,2.09c.71,.35,1.4,.72,2.1,1.09,.45,.24,.9,.48,1.35,.71,1.27,.65,2.4,1.24,3.51,1.94l3.5,2.06,3.5,2.31c1.03,.64,2.03,1.39,3.01,2.11l.5,.37c.37,.28,.75,.56,1.13,.83,.79,.57,1.61,1.16,2.37,1.83,9.69,7.65,18.45,17.39,25.32,28.14,7.51,11.83,12.93,25.43,15.66,39.31,2.93,14.82,2.87,30.43-.2,45.13-3.16,15.22-9.6,30.01-18.62,42.79-8.94,12.69-20.72,23.66-34.08,31.72-12.91,7.82-27.62,13.12-42.52,15.32-13.93,2.08-28.48,1.51-42.19-1.66-6.83-1.59-13.13-3.62-18.72-6.04-5.64-2.41-11.14-5.26-16.36-8.46-4.87-3.11-9.46-6.47-13.64-9.99-.61-.53-1.2-1.07-1.79-1.6-.39-.35-.78-.71-1.17-1.05l-1.44-1.29-4.02-4.01-2.46-2.71c-5.44-6.01-10.15-12.6-14.41-20.13-3.09-5.4-5.01-10.02-6.41-13.39l-.43-1.04-1.45-3.96c-.14-.37-.25-.67-.33-.9l-9.23,3.09Z" fill="none" stroke="#fff" stroke-miterlimit="10"/></g><g mix-blend-mode="screen" opacity=".4"><path d="M176.33,281.81c-6.37,0-12.75-.58-18.96-1.71-10.89-1.94-21.98-5.88-32.07-11.4-10.04-5.55-19.31-12.83-26.81-21.06-8.53-9.28-13.86-18.49-16.83-24.58-3.09-6.26-5.58-12.88-7.41-19.66l-.84-3.29-1.04-5.02,9.27-1.74,.96,4.61,.77,3c1.66,6.18,3.93,12.21,6.75,17.92,2.7,5.54,7.55,13.92,15.32,22.38,6.82,7.48,15.26,14.11,24.41,19.17,9.21,5.04,19.31,8.62,29.21,10.38,5.65,1.04,11.46,1.56,17.26,1.56,3.34,0,6.65-.18,9.85-.52,6.4-.66,12.72-1.97,18.81-3.9,1.88-.56,3.39-1.12,4.5-1.54l2.83-1.06,3.49,8.76-3.04,1.13c-1.22,.45-2.88,1.07-4.96,1.69-6.68,2.12-13.63,3.56-20.65,4.28-3.51,.38-7.15,.57-10.82,.57Zm-102.78-85.92l.83,3.99,.83,3.26c1.8,6.72,4.27,13.27,7.34,19.48,2.94,6.03,8.23,15.15,16.67,24.35,7.43,8.15,16.61,15.36,26.56,20.85,9.99,5.47,20.98,9.37,31.76,11.29,6.15,1.13,12.47,1.7,18.78,1.7,3.63,0,7.23-.19,10.71-.57,6.95-.72,13.84-2.14,20.46-4.24,2.05-.62,3.7-1.23,4.91-1.68l2.08-.78-2.75-6.91-1.92,.71c-1.12,.42-2.65,.99-4.55,1.55-6.14,1.94-12.54,3.27-19,3.94-3.23,.35-6.58,.53-9.95,.53-5.86,0-11.73-.53-17.44-1.58-10-1.77-20.21-5.4-29.51-10.49-9.25-5.11-17.78-11.81-24.67-19.37-7.85-8.54-12.75-17.01-15.48-22.61-2.85-5.76-5.14-11.85-6.82-18.1l-.78-3.02-.76-3.68-7.31,1.37Z" fill="#fff"/></g><g mix-blend-mode="screen" opacity=".5"><path d="M132.39,256.86l-3.29-1.9c-2.5-1.49-5.11-3.24-7.76-5.19-4.06-3.07-7.62-6.2-10.91-9.57-4.36-4.47-8.28-9.44-11.65-14.77-3.98-6.3-7.19-13.03-9.54-20.03-2.7-8.18-4.26-16.37-4.64-24.36-.13-1.77-.13-3.59-.13-5.36v-1.15s.05-1.33,.05-1.33c.07-1.73,.13-3.52,.33-5.3,.37-4.34,1.11-8.81,2.2-13.25,1.07-4.46,2.48-8.83,4.19-12.98,1.87-4.57,3.87-8.6,6.11-12.32,4.63-7.83,10.45-14.96,17.3-21.18,3.56-3.17,7.13-5.95,10.62-8.27,4.32-2.81,7.95-4.87,11.42-6.47,7.23-3.48,15.15-6.04,23.55-7.58,7.34-1.27,14.91-1.68,22.22-1.19,6.22,.43,12.45,1.52,18.51,3.21,4.68,1.3,9.25,2.98,13.59,5,3.67,1.67,6.47,3.26,8.26,4.32,1.01,.58,1.68,.99,2.12,1.28l1.12,.72-10.03,15.71-.99-.64c-.33-.23-.84-.53-1.67-1-1.56-.92-3.7-2.13-6.6-3.45-5.4-2.54-14.22-5.73-25.6-6.56-5.79-.38-11.82-.06-17.68,.95-6.75,1.25-13.07,3.29-18.8,6.06-3.45,1.58-6.68,3.59-9.1,5.16-2.77,1.84-5.54,3.99-8.45,6.58-5.46,4.97-10.1,10.64-13.77,16.87-1.77,2.91-3.36,6.13-4.88,9.83-1.37,3.3-2.49,6.78-3.34,10.35-.87,3.55-1.46,7.1-1.76,10.56-.15,1.3-.2,2.62-.25,3.9-.02,.46-.04,.92-.06,1.38v1.24c0,1.29,0,2.63,.1,3.93,.29,6.31,1.53,12.84,3.69,19.41,1.88,5.57,4.44,10.95,7.62,15.98,4.66,7.4,10.7,13.92,17.95,19.38,2.67,1.96,4.83,3.33,6.18,4.13l2.71,1.57-8.99,16.32Zm44.01-171.39c-5.33,0-10.7,.46-15.97,1.38-8.3,1.53-16.14,4.05-23.3,7.5-3.43,1.59-7.02,3.62-11.29,6.4-3.45,2.29-6.98,5.04-10.5,8.18-6.77,6.15-12.53,13.2-17.11,20.95-2.22,3.68-4.2,7.66-6.05,12.18-1.69,4.11-3.09,8.42-4.14,12.84-1.08,4.4-1.81,8.81-2.18,13.11-.19,1.75-.26,3.52-.33,5.24l-.05,1.31v1.13c0,1.75,0,3.55,.13,5.3,.37,7.91,1.92,16.01,4.59,24.1,2.33,6.91,5.5,13.58,9.44,19.81,3.33,5.27,7.21,10.19,11.52,14.61,3.25,3.33,6.77,6.43,10.79,9.47,2.62,1.93,5.2,3.65,7.67,5.13l2.39,1.39,8.02-14.57-1.87-1.09c-1.37-.82-3.57-2.21-6.27-4.19-7.36-5.53-13.48-12.14-18.2-19.64-3.22-5.1-5.82-10.56-7.72-16.2-2.19-6.66-3.45-13.28-3.74-19.67-.1-1.32-.1-2.67-.1-3.99v-1.26c.02-.48,.04-.94,.05-1.4,.05-1.29,.1-2.63,.26-3.96,.3-3.5,.9-7.1,1.78-10.7,.86-3.62,2-7.15,3.39-10.5,1.54-3.75,3.15-7.01,4.94-9.96,3.72-6.31,8.42-12.06,13.96-17.1,2.95-2.62,5.75-4.8,8.57-6.67,2.46-1.59,5.73-3.62,9.23-5.22,5.8-2.8,12.21-4.87,19.05-6.14,5.94-1.02,12.04-1.35,17.92-.96,11.54,.84,20.48,4.08,25.95,6.65,2.93,1.33,5.11,2.56,6.68,3.49,.86,.49,1.37,.8,1.72,1.04l.13,.09,8.95-14.02-.29-.18c-.43-.29-1.08-.68-2.07-1.25-1.93-1.13-4.59-2.64-8.18-4.27-4.3-2-8.82-3.66-13.44-4.95-6-1.68-12.16-2.75-18.31-3.18-1.97-.13-3.99-.2-6-.2Z" fill="#fff" stroke="#fff" stroke-miterlimit="10"/></g><g mix-blend-mode="screen" opacity=".5"><path d="M216.58,278.78l-3.63-9.12,3.79-1.61c1.04-.42,2.27-1.02,3.93-1.83,1.7-.8,3.58-1.84,5.2-2.75,7.33-4.13,18.11-11.54,27.86-23.43,5.23-6.4,9.62-13.31,13.07-20.55,1.81-3.77,3.47-7.93,4.94-12.36,1.53-4.87,2.63-9.29,3.35-13.49,1.7-9.63,1.98-19.42,.84-29.08-1.17-9.97-3.83-19.69-7.91-28.89-4.06-9.24-9.47-17.76-16.08-25.33-6.38-7.35-13.81-13.71-22.07-18.92-14.59-9.22-31.89-14.7-48.7-15.42-6.9-.34-13.88,.04-20.61,1.12-5.54,.9-10.74,2.16-15.45,3.73-1.48,.46-2.84,.97-4.04,1.42-.52,.2-1.02,.39-1.5,.56-1.13,.44-2.14,.88-3.02,1.26l-.98,.42c-1.07,.45-1.88,.84-2.41,1.11l-1.3,.63-4.29-8.83,1.36-.66c.6-.3,1.51-.74,2.7-1.24l1.01-.44c.97-.42,2.09-.9,3.36-1.4,.51-.18,1.02-.38,1.55-.58,1.34-.5,2.85-1.07,4.51-1.59,5.19-1.73,10.9-3.11,16.96-4.1,7.4-1.18,15.08-1.6,22.64-1.23,18.47,.79,37.45,6.8,53.45,16.92,9.07,5.71,17.22,12.7,24.23,20.77,7.15,8.19,13.26,17.81,17.65,27.81,4.47,10.09,7.39,20.76,8.68,31.71,1.25,10.61,.94,21.36-.92,31.93-.81,4.65-2.01,9.49-3.68,14.81-1.61,4.86-3.43,9.42-5.42,13.57-3.79,7.95-8.61,15.54-14.34,22.55-4.69,5.73-10.11,11.09-16.12,15.93-5.7,4.61-10.99,7.8-14.48,9.8-2.44,1.38-4.2,2.31-5.72,3.02-1.75,.86-3.16,1.54-4.32,2.02l-4.09,1.74Zm-2.34-8.58l2.89,7.26,3.15-1.34c1.14-.47,2.53-1.14,4.27-1.99,1.5-.71,3.25-1.63,5.66-2.99,3.45-1.98,8.69-5.15,14.34-9.71,5.96-4.79,11.33-10.1,15.98-15.78,5.68-6.95,10.46-14.47,14.21-22.35,1.97-4.11,3.77-8.63,5.37-13.44,1.66-5.27,2.85-10.07,3.65-14.67,1.85-10.48,2.16-21.13,.92-31.64-1.28-10.85-4.17-21.43-8.6-31.42-4.36-9.91-10.41-19.43-17.49-27.55-6.95-8-15.03-14.92-24.01-20.58-15.86-10.03-34.67-15.98-52.97-16.77-7.51-.37-15.11,.04-22.44,1.21-6,.97-11.66,2.34-16.81,4.06-1.64,.51-3.14,1.08-4.47,1.58-.54,.2-1.05,.4-1.55,.58-1.25,.49-2.35,.97-3.32,1.38l-1.02,.44c-1.17,.49-2.05,.92-2.64,1.21l-.47,.23,3.42,7.03,.38-.19c.56-.28,1.39-.68,2.48-1.14l.97-.41c.89-.38,1.91-.82,3.06-1.28,.49-.18,.99-.36,1.5-.56,1.21-.46,2.58-.97,4.08-1.44,4.75-1.59,10-2.86,15.6-3.77,6.81-1.09,13.86-1.47,20.82-1.13,16.98,.72,34.45,6.25,49.19,15.57,8.34,5.26,15.84,11.69,22.29,19.11,6.67,7.64,12.13,16.25,16.24,25.58,4.11,9.29,6.8,19.1,7.99,29.18,1.15,9.76,.87,19.64-.85,29.36-.73,4.24-1.84,8.7-3.39,13.62-1.48,4.48-3.16,8.68-4.99,12.49-3.48,7.3-7.92,14.28-13.2,20.75-9.86,12-20.75,19.49-28.15,23.66-1.64,.92-3.54,1.97-5.26,2.78-1.67,.82-2.92,1.42-3.98,1.86l-2.88,1.23Z" fill="none" stroke="#fff" stroke-miterlimit="10"/></g><g mix-blend-mode="screen" opacity=".5"><path d="M205.22,250.28l-2.35-5.91,2.42-1.04c.81-.34,1.82-.77,2.99-1.37,4.3-2.07,8.4-4.58,12.2-7.48,2.63-1.92,5.25-4.36,7.24-6.26,2.51-2.52,4.87-5.23,7-8.04,4.71-6.35,8.44-13.43,10.77-20.45,1.26-3.71,2.23-7.55,2.9-11.42,.61-3.71,.94-7.53,.99-11.36,.08-6.58-.82-13.5-2.6-20.01-1.25-4.6-2.97-9.09-5.11-13.35-.5-1.07-.99-1.94-1.38-2.64-.19-.34-.37-.65-.51-.92-.42-.78-.68-1.19-.69-1.2l-.28-.44,5.48-3.25,.26,.41s.29,.46,.78,1.36c.14,.28,.32,.58,.51,.93,.44,.78,.98,1.74,1.53,2.93,2.33,4.62,4.19,9.5,5.55,14.5,1.94,7.07,2.92,14.6,2.83,21.76-.06,4.17-.42,8.32-1.08,12.36-.73,4.2-1.79,8.37-3.15,12.41-2.54,7.65-6.59,15.33-11.71,22.23-2.33,3.06-4.89,6.01-7.62,8.75-3.17,3.04-5.6,5.14-7.88,6.81-4.13,3.15-8.58,5.88-13.24,8.12-1.3,.67-2.41,1.13-3.3,1.51l-2.55,1.09Zm-1.07-5.38l1.62,4.06,1.61-.69c.87-.37,1.96-.83,3.24-1.49,4.61-2.22,9.01-4.92,13.09-8.03,2.25-1.65,4.64-3.72,7.77-6.72,2.69-2.7,5.22-5.61,7.52-8.63,5.05-6.8,9.05-14.39,11.56-21.94,1.35-3.99,2.4-8.11,3.11-12.26,.65-3.98,1.01-8.08,1.07-12.2,.09-7.07-.88-14.5-2.79-21.49-1.34-4.94-3.18-9.75-5.48-14.32-.54-1.16-1.08-2.11-1.51-2.87-.2-.35-.38-.67-.52-.95-.2-.37-.37-.67-.49-.88l-3.76,2.23c.12,.21,.28,.48,.46,.83,.14,.27,.31,.57,.5,.9,.4,.72,.91,1.61,1.41,2.7,2.17,4.31,3.92,8.86,5.18,13.53,1.81,6.6,2.72,13.61,2.64,20.28-.05,3.88-.39,7.76-1.01,11.52-.68,3.92-1.67,7.81-2.94,11.57-2.36,7.12-6.14,14.29-10.92,20.73-2.17,2.85-4.56,5.59-7.1,8.16-2.02,1.93-4.67,4.39-7.34,6.35-3.84,2.93-8,5.48-12.35,7.57-1.2,.61-2.22,1.05-3.05,1.4l-1.52,.65Z" fill="none" stroke="#fff" stroke-miterlimit="10"/></g><g mix-blend-mode="screen" opacity=".4"><path d="M176.13,234.28h0c-1.2,0-2.32-.04-3.35-.12-.9-.05-1.72-.13-2.4-.2-.36-.04-.69-.07-.98-.09l-1.8-.26,2.49-17.39,1.4,.22c.2,.01,.49,.04,.81,.07,.45,.04,.97,.1,1.54,.13,2.05,.17,4.71,.08,7.19-.21,3.06-.36,5.73-1.1,7.05-1.51,.21-.07,.43-.13,.63-.2,.23-.07,.46-.13,.66-.21l1.87-.69,1.81-.78c.19-.08,.39-.19,.6-.29,.19-.1,.4-.2,.61-.3,1.24-.61,3.69-1.91,6.15-3.75,2.03-1.51,3.98-3.25,5.35-4.78,.4-.43,.74-.82,1.04-1.16,.21-.25,.4-.46,.57-.64l.84-1.09,13.76,10.91-1.1,1.4c-.21,.23-.42,.48-.65,.75-.45,.52-.99,1.15-1.62,1.82-2.05,2.26-4.87,4.78-7.71,6.89-3.56,2.67-7.07,4.53-8.85,5.4-.25,.12-.49,.24-.72,.35-.36,.18-.7,.35-1.03,.49l-2.55,1.1-2.63,.97c-.33,.12-.69,.23-1.07,.34-.25,.08-.51,.16-.78,.24-1.89,.59-5.71,1.65-10.14,2.17-2.28,.27-4.7,.42-7,.42Zm-7.39-1.52l.78,.11c.26,.02,.59,.05,.96,.09,.67,.07,1.47,.15,2.37,.2,2.96,.22,6.75,.11,10.16-.3,3.18-.37,6.8-1.15,9.95-2.13,.27-.09,.54-.17,.79-.25,.36-.11,.71-.21,1.02-.33l2.69-1,2.44-1.05c.3-.13,.63-.3,.98-.47,.23-.12,.47-.24,.73-.36,1.74-.85,5.18-2.68,8.68-5.3,2.8-2.08,5.56-4.54,7.58-6.77,.63-.67,1.16-1.28,1.6-1.8,.24-.28,.45-.52,.64-.74l.47-.59-12.19-9.66-.25,.32c-.19,.21-.37,.42-.57,.65-.3,.35-.65,.75-1.06,1.18-1.41,1.57-3.41,3.36-5.49,4.91-2.53,1.89-5.04,3.22-6.32,3.85-.21,.1-.41,.2-.59,.29-.23,.12-.45,.23-.66,.32l-1.83,.79s0,0,0,0c0,0-.11,.04-.29,.11l-1.61,.59c-.23,.08-.47,.15-.72,.23-.2,.06-.4,.12-.61,.19-1.36,.42-4.1,1.19-7.24,1.55-2.54,.3-5.29,.38-7.37,.21-.58-.03-1.12-.09-1.57-.13-.31-.03-.58-.06-.82-.07l-.45-.07-2.21,15.4Z" fill="#fff"/></g><g mix-blend-mode="screen" opacity=".5"><path d="M134.43,224.9l-.98-.86c-.45-.37-1.1-.99-1.73-1.62-1.74-1.61-3.87-3.97-5.99-6.64-2.82-3.59-5.28-7.57-7.32-11.83-2.53-5.2-4.41-11.15-5.45-17.2-1.16-6.85-1.15-14.21,.03-21.27,1.32-7.76,4.18-15.46,8.26-22.28,4.36-7.28,10.26-13.77,17.07-18.74,7.04-5.15,15.29-8.9,23.86-10.83,8.49-1.93,17.56-2.06,26.15-.4,8.33,1.6,16.45,4.92,23.49,9.62,6.58,4.37,12.45,10.1,16.97,16.57,3.98,5.63,7.07,12.11,9.17,19.24,.86,3.13,1.51,6.26,1.93,9.3,.31,2.79,.59,5.74,.52,8.55,0,4.54-.51,9.06-1.57,13.81-.75,3.43-1.69,6.08-2.37,8.01l-.2,.57-.88,2.2c-.2,.52-.33,.78-.33,.78l-.21,.42-10.76-4.69,.24-.48s.1-.2,.24-.56l.96-2.46c.55-1.56,1.3-3.69,1.88-6.38,.87-3.9,1.29-7.59,1.28-11.28,.06-2.23-.17-4.57-.42-6.98-.34-2.45-.87-5.01-1.57-7.58-1.74-5.88-4.27-11.18-7.5-15.74-3.69-5.29-8.48-9.96-13.85-13.53-5.76-3.84-12.4-6.56-19.22-7.87-7.01-1.36-14.4-1.25-21.34,.32-7.02,1.58-13.77,4.64-19.52,8.86-5.56,4.06-10.37,9.36-13.93,15.3-3.35,5.58-5.69,11.88-6.76,18.22-.98,5.87-.98,11.71-.03,17.36,.85,4.98,2.4,9.85,4.46,14.08,1.68,3.49,3.69,6.74,5.98,9.66,1.78,2.23,3.51,4.16,4.88,5.41,.61,.6,1.07,1.04,1.4,1.31l.9,.78-7.71,8.85Zm41.76-111.82c-4.66,0-9.3,.52-13.79,1.53-8.44,1.9-16.56,5.59-23.49,10.66-6.7,4.9-12.51,11.28-16.8,18.45-4.02,6.71-6.84,14.29-8.14,21.93-1.16,6.96-1.17,14.2-.03,20.94,1.02,5.96,2.87,11.81,5.36,16.93,2.01,4.19,4.43,8.11,7.21,11.64,2.09,2.63,4.18,4.95,5.9,6.54,.63,.62,1.26,1.23,1.69,1.58l.24,.21,6.4-7.34-.13-.11c-.35-.28-.81-.72-1.45-1.35-1.39-1.28-3.17-3.24-4.98-5.52-2.34-2.98-4.39-6.29-6.09-9.84-2.1-4.31-3.68-9.27-4.55-14.34-.98-5.76-.97-11.71,.02-17.69,1.1-6.46,3.48-12.88,6.89-18.57,3.62-6.06,8.53-11.46,14.2-15.6,5.86-4.29,12.74-7.41,19.89-9.02,7.07-1.6,14.6-1.71,21.75-.33,6.94,1.33,13.72,4.1,19.58,8.01,5.47,3.63,10.35,8.4,14.11,13.78,3.3,4.65,5.87,10.05,7.65,16.04,.72,2.63,1.25,5.23,1.6,7.74,.26,2.46,.49,4.83,.43,7.11,0,3.76-.42,7.52-1.3,11.49-.6,2.75-1.36,4.92-1.91,6.5l-.23,.65-.74,1.84c-.02,.06-.04,.12-.07,.17l8.93,3.89c.03-.08,.07-.17,.1-.26l1.07-2.74c.68-1.91,1.6-4.53,2.34-7.89,1.04-4.68,1.55-9.13,1.54-13.6,.06-2.76-.21-5.68-.52-8.42-.41-2.99-1.05-6.07-1.9-9.15-2.07-7.02-5.1-13.4-9.03-18.94-4.45-6.37-10.22-12.01-16.7-16.31-6.93-4.62-14.93-7.89-23.13-9.47-3.91-.76-7.93-1.14-11.95-1.14Z" fill="#fff" stroke="#fff" stroke-miterlimit="10"/></g><g mix-blend-mode="screen" opacity=".5"><path d="M176.32,312.4v-5c1.95,0,3.93-.05,5.88-.13l.22,4.99c-2.03,.09-4.08,.14-6.11,.14Zm-6.1-.13c-2.03-.09-4.08-.22-6.09-.4l.44-4.98c1.94,.17,3.92,.3,5.87,.39l-.22,5Zm18.31-.42l-.45-4.98c1.95-.17,3.91-.39,5.85-.65l.67,4.96c-2.01,.27-4.05,.5-6.07,.68Zm-30.47-.66c-2-.27-4.03-.58-6.04-.94l.88-4.92c1.93,.35,3.88,.65,5.81,.91l-.66,4.96Zm42.58-.97l-.89-4.92c1.92-.35,3.86-.74,5.76-1.18l1.11,4.88c-1.98,.45-4,.86-5.99,1.22Zm-54.6-1.19c-1.97-.45-3.96-.95-5.93-1.48l1.32-4.82c1.89,.52,3.81,1,5.71,1.43l-1.11,4.88Zm66.51-1.53l-1.33-4.82c1.88-.52,3.78-1.09,5.64-1.69l1.54,4.76c-1.93,.62-3.89,1.22-5.85,1.76Zm-78.29-1.71c-1.93-.63-3.88-1.31-5.78-2.02l1.76-4.68c1.83,.69,3.71,1.34,5.57,1.95l-1.54,4.76Zm89.91-2.07l-1.76-4.68c1.82-.68,3.65-1.42,5.45-2.19l1.97,4.6c-1.87,.8-3.77,1.56-5.66,2.27Zm-101.38-2.23c-1.86-.79-3.74-1.65-5.57-2.53l2.17-4.5c1.77,.85,3.58,1.67,5.37,2.44l-1.96,4.6Zm112.58-2.57l-2.17-4.5c1.75-.84,3.51-1.74,5.23-2.67l2.37,4.4c-1.79,.96-3.62,1.9-5.43,2.77Zm-123.6-2.75c-1.78-.96-3.57-1.97-5.32-3.02l2.57-4.29c1.69,1.01,3.41,1.99,5.12,2.91l-2.37,4.4Zm134.34-3.04l-2.57-4.29c1.67-1,3.34-2.05,4.97-3.13l2.76,4.17c-1.69,1.12-3.43,2.21-5.16,3.25Zm-144.83-3.24c-1.69-1.12-3.38-2.29-5.02-3.48l2.94-4.04c1.58,1.15,3.21,2.28,4.84,3.36l-2.76,4.17Zm155.01-3.49l-2.94-4.04c1.58-1.15,3.16-2.35,4.68-3.57l3.12,3.91c-1.58,1.26-3.21,2.51-4.86,3.7Zm-164.9-3.7c-1.59-1.27-3.17-2.58-4.69-3.92l3.29-3.76c1.47,1.28,2.99,2.55,4.52,3.77l-3.12,3.91Zm174.44-3.92l-3.29-3.77c1.47-1.28,2.93-2.62,4.34-3.97l3.45,3.61c-1.46,1.4-2.98,2.79-4.51,4.12Zm-183.64-4.12c-1.47-1.41-2.93-2.86-4.32-4.32l3.61-3.46c1.34,1.4,2.74,2.8,4.16,4.16l-3.46,3.61Zm192.47-4.32l-3.61-3.46c1.35-1.41,2.69-2.87,3.98-4.34l3.76,3.29c-1.33,1.53-2.72,3.04-4.12,4.51Zm-200.91-4.51c-1.33-1.53-2.65-3.1-3.92-4.68l3.91-3.12c1.22,1.52,2.49,3.04,3.77,4.51l-3.76,3.29Zm208.96-4.69l-3.91-3.12c1.22-1.53,2.42-3.1,3.57-4.68l4.04,2.94c-1.19,1.64-2.44,3.27-3.71,4.86Zm-216.58-4.85c-1.19-1.63-2.36-3.32-3.48-5.01l4.17-2.76c1.08,1.63,2.21,3.26,3.35,4.83l-4.04,2.94Zm223.77-5.04l-4.17-2.76c1.08-1.64,2.14-3.32,3.14-4.98l4.29,2.57c-1.04,1.73-2.13,3.47-3.26,5.18Zm-230.51-5.14c-1.04-1.73-2.05-3.51-3.02-5.3l4.4-2.38c.93,1.72,1.91,3.44,2.91,5.11l-4.29,2.57Zm236.79-5.35l-4.4-2.37c.93-1.73,1.83-3.49,2.68-5.25l4.5,2.17c-.88,1.83-1.82,3.66-2.78,5.45Zm-242.59-5.38c-.88-1.82-1.73-3.69-2.53-5.55l4.6-1.97c.77,1.79,1.59,3.59,2.44,5.34l-4.5,2.18Zm247.91-5.64l-4.6-1.97c.77-1.8,1.51-3.65,2.2-5.47l4.68,1.76c-.71,1.9-1.48,3.81-2.28,5.68Zm-252.71-5.56c-.72-1.9-1.4-3.84-2.02-5.77l4.75-1.55c.6,1.85,1.26,3.72,1.95,5.55l-4.68,1.76Zm257.02-5.91l-4.76-1.54c.6-1.86,1.17-3.75,1.69-5.64l4.82,1.33c-.54,1.96-1.13,3.92-1.75,5.85Zm-260.8-5.71c-.54-1.95-1.04-3.95-1.49-5.92l4.88-1.11c.43,1.9,.92,3.82,1.44,5.71l-4.82,1.33Zm264.04-6.07l-4.87-1.11c.43-1.91,.83-3.85,1.17-5.77l4.92,.89c-.36,1.99-.77,4-1.22,5.99Zm-266.76-5.84c-.36-1.99-.68-4.02-.95-6.03l4.95-.67c.26,1.94,.57,3.89,.92,5.81l-4.92,.89Zm268.93-6.18l-4.96-.66c.26-1.93,.48-3.9,.65-5.85l4.98,.44c-.18,2.02-.41,4.06-.68,6.07Zm-270.56-5.92c-.18-2.01-.32-4.06-.41-6.09l5-.23c.09,1.96,.22,3.93,.4,5.87l-4.98,.45Zm271.65-6.24l-5-.22c.08-1.94,.13-3.92,.13-5.88v-.29h5v.29c0,2.04-.04,4.09-.13,6.1Zm-267.2-5.96h-5v-.15c0-1.98,.04-3.99,.13-5.96l5,.21c-.08,1.9-.12,3.83-.12,5.74v.15Zm262.19-6.32c-.09-1.96-.23-3.94-.4-5.87l4.98-.45c.18,2.01,.32,4.06,.42,6.09l-4.99,.23Zm-261.68-5.44l-4.98-.44c.18-2.03,.4-4.07,.67-6.07l4.96,.66c-.26,1.93-.47,3.89-.65,5.85Zm260.62-6.27c-.27-1.94-.58-3.9-.93-5.81l4.92-.9c.36,1.99,.69,4.02,.96,6.03l-4.95,.68Zm-259.07-5.39l-4.92-.88c.36-1.99,.76-4.01,1.21-5.99l4.88,1.1c-.43,1.91-.82,3.85-1.17,5.77Zm256.95-6.19c-.44-1.91-.93-3.83-1.45-5.7l4.82-1.34c.54,1.95,1.04,3.94,1.5,5.92l-4.87,1.12Zm-254.36-5.29l-4.82-1.32c.54-1.95,1.12-3.92,1.75-5.85l4.76,1.54c-.6,1.86-1.17,3.76-1.68,5.64Zm251.21-6.05c-.61-1.86-1.27-3.73-1.95-5.55l4.68-1.77c.71,1.89,1.4,3.83,2.03,5.76l-4.75,1.55Zm-247.59-5.16l-4.68-1.75c.71-1.91,1.48-3.82,2.28-5.69l4.6,1.96c-.77,1.8-1.5,3.64-2.19,5.48Zm243.43-5.83c-.77-1.78-1.59-3.58-2.44-5.34l4.5-2.18c.88,1.83,1.74,3.69,2.54,5.54l-4.59,1.98Zm-238.81-5.01l-4.51-2.17c.88-1.83,1.81-3.66,2.78-5.45l4.4,2.37c-.93,1.72-1.83,3.49-2.67,5.25Zm233.69-5.55c-.92-1.71-1.9-3.43-2.91-5.1l4.29-2.58c1.05,1.74,2.06,3.52,3.03,5.3l-4.4,2.38Zm-228.1-4.82l-4.29-2.57c1.04-1.74,2.13-3.48,3.25-5.18l4.17,2.75c-1.08,1.64-2.13,3.31-3.14,4.99Zm222.05-5.25c-1.08-1.62-2.21-3.25-3.36-4.83l4.04-2.95c1.2,1.64,2.37,3.32,3.49,5.01l-4.17,2.76Zm-215.56-4.58l-4.04-2.94c1.19-1.64,2.44-3.28,3.7-4.86l3.91,3.12c-1.22,1.53-2.42,3.1-3.57,4.69Zm208.63-4.92c-1.21-1.52-2.49-3.03-3.78-4.51l3.76-3.3c1.34,1.53,2.66,3.1,3.92,4.68l-3.9,3.12Zm-201.29-4.29l-3.77-3.29c1.33-1.53,2.72-3.05,4.12-4.51l3.62,3.45c-1.35,1.41-2.68,2.88-3.97,4.35Zm193.53-4.55c-1.35-1.41-2.75-2.81-4.17-4.16l3.45-3.62c1.47,1.4,2.92,2.85,4.33,4.31l-3.61,3.46Zm-185.41-3.96l-3.46-3.61c1.47-1.4,2.98-2.79,4.5-4.12l3.29,3.76c-1.47,1.29-2.93,2.62-4.34,3.98Zm176.89-4.17c-1.46-1.28-2.99-2.55-4.52-3.77l3.12-3.91c1.59,1.27,3.17,2.59,4.69,3.91l-3.29,3.77Zm-168.04-3.59l-3.12-3.9c1.58-1.27,3.21-2.51,4.85-3.71l2.95,4.04c-1.58,1.15-3.15,2.35-4.67,3.57Zm158.83-3.75c-1.59-1.15-3.22-2.28-4.84-3.35l2.75-4.17c1.69,1.11,3.38,2.28,5.03,3.48l-2.94,4.05Zm-149.33-3.18l-2.76-4.17c1.68-1.12,3.42-2.21,5.16-3.26l2.57,4.29c-1.68,1.01-3.35,2.06-4.97,3.14Zm139.49-3.3c-1.68-1-3.4-1.98-5.13-2.91l2.37-4.4c1.79,.96,3.58,1.98,5.32,3.02l-2.56,4.29Zm-129.42-2.74l-2.38-4.4c1.78-.96,3.61-1.9,5.43-2.78l2.18,4.5c-1.75,.85-3.51,1.75-5.23,2.68Zm119.04-2.83c-1.76-.84-3.56-1.66-5.37-2.43l1.96-4.6c1.88,.8,3.75,1.65,5.58,2.53l-2.17,4.51Zm-108.47-2.28l-1.97-4.59c1.86-.8,3.76-1.57,5.65-2.28l1.76,4.68c-1.82,.69-3.65,1.42-5.44,2.19Zm97.62-2.34c-1.84-.69-3.71-1.34-5.57-1.94l1.54-4.76c1.93,.62,3.88,1.3,5.79,2.01l-1.75,4.68Zm-86.63-1.81l-1.55-4.75c1.93-.63,3.9-1.22,5.85-1.76l1.33,4.82c-1.88,.52-3.77,1.09-5.63,1.7Zm75.42-1.81c-1.87-.51-3.8-.99-5.71-1.42l1.1-4.88c1.99,.45,3.98,.95,5.93,1.48l-1.32,4.82Zm-64.08-1.33l-1.12-4.87c1.98-.45,3.99-.87,5.98-1.23l.89,4.92c-1.92,.35-3.86,.75-5.76,1.18Zm52.6-1.26c-1.92-.34-3.87-.65-5.81-.9l.66-4.96c2.01,.27,4.05,.58,6.04,.94l-.88,4.92Zm-41.03-.85l-.67-4.95c2.01-.27,4.05-.5,6.07-.69l.45,4.98c-1.94,.18-3.91,.4-5.85,.66Zm29.36-.7c-1.94-.17-3.92-.3-5.87-.38l.21-5c2.03,.09,4.08,.22,6.09,.39l-.43,4.98Zm-17.64-.36l-.23-5c2.02-.09,4.07-.14,6.11-.14v5c-1.95,0-3.93,.05-5.88,.14Z" fill="#1da5d5"/></g><g mix-blend-mode="screen" opacity=".8"><path d="M176.29,216.95h-.04c-2.12,0-4.25-.16-6.32-.49l.77-4.94c1.82,.28,3.69,.43,5.55,.43l.04,5Zm6.36-.5l-.78-4.94c1.84-.29,3.67-.73,5.44-1.31l1.55,4.75c-2.02,.66-4.11,1.16-6.21,1.49Zm-18.94-1.47c-2.02-.65-4.01-1.47-5.91-2.44l2.27-4.46c1.66,.85,3.41,1.57,5.18,2.14l-1.54,4.76Zm31.05-2.48l-2.28-4.45c1.66-.85,3.26-1.84,4.77-2.93l2.95,4.04c-1.72,1.25-3.55,2.38-5.44,3.34Zm-42.4-3.3c-1.72-1.25-3.35-2.64-4.86-4.14l3.53-3.54c1.32,1.32,2.76,2.54,4.27,3.64l-2.94,4.05Zm52.69-4.19l-3.54-3.54c1.32-1.32,2.55-2.75,3.64-4.26l4.04,2.94c-1.25,1.72-2.64,3.35-4.15,4.86Zm-61.7-4.79c-1.25-1.72-2.38-3.54-3.35-5.43l4.45-2.28c.85,1.66,1.84,3.26,2.94,4.77l-4.04,2.95Zm69.19-5.51l-4.46-2.27c.85-1.66,1.57-3.4,2.14-5.17l4.76,1.54c-.66,2.02-1.48,4.01-2.45,5.9Zm-75-5.82c-.66-2.02-1.16-4.11-1.5-6.21l4.94-.79c.29,1.84,.73,3.67,1.31,5.44l-4.75,1.55Zm78.93-6.29l-4.94-.78c.29-1.83,.43-3.71,.43-5.59v-.15s5,0,5,0v.11c0,2.18-.16,4.32-.49,6.41Zm-80.93-6.28v-.08c0-2.1,.16-4.22,.48-6.28l4.94,.77c-.28,1.81-.42,3.67-.42,5.52l-5,.08Zm75.97-5.81c-.3-1.84-.74-3.67-1.33-5.44l4.75-1.56c.66,2.02,1.17,4.1,1.51,6.21l-4.94,.8Zm-69.26-5.23l-4.76-1.53c.65-2.02,1.47-4.01,2.43-5.91l4.46,2.26c-.84,1.66-1.56,3.41-2.13,5.18Zm65.77-5.37c-.85-1.65-1.84-3.26-2.95-4.76l4.03-2.96c1.26,1.71,2.39,3.54,3.36,5.43l-4.45,2.29Zm-60.71-4.59l-4.05-2.93c1.25-1.72,2.64-3.36,4.14-4.86l3.54,3.53c-1.32,1.32-2.54,2.76-3.63,4.27Zm54.11-4.42c-1.33-1.32-2.77-2.54-4.27-3.63l2.93-4.05c1.72,1.24,3.36,2.63,4.87,4.13l-3.52,3.55Zm-46.23-3.5l-2.95-4.04c1.72-1.26,3.54-2.39,5.43-3.35l2.28,4.45c-1.65,.85-3.26,1.84-4.76,2.94Zm37.17-3.04c-1.66-.84-3.41-1.56-5.18-2.13l1.53-4.76c2.03,.65,4.01,1.47,5.91,2.43l-2.26,4.46Zm-27.24-2.06l-1.56-4.75c2.02-.66,4.11-1.17,6.21-1.5l.79,4.94c-1.84,.29-3.67,.74-5.44,1.32Zm16.62-1.35c-1.8-.28-3.64-.42-5.48-.42h-.12s0-5,0-5h.09s0,0,0,0c2.12,0,4.22,.16,6.27,.48l-.76,4.94Z" fill="#fff"/></g><g mix-blend-mode="screen" opacity=".5"><path d="M176.28,276.92h-.53s.06-10,.06-10h.44s.5,0,.5,0l.06,10h-.52Zm-1.57,0l-1.04-.02,.24-10,.95,.02-.15,10Zm3.14,0l-.15-10c.31,0,.62-.01,.94-.02l.26,10c-.35,0-.7,.02-1.05,.02Zm-5.24-.05l-1.04-.04,.44-9.99,.95,.04-.35,9.99Zm7.34,0l-.35-9.99c.31-.01,.63-.02,.94-.04l.47,9.99c-.35,.02-.7,.03-1.06,.04Zm-9.44-.09c-.35-.02-.7-.04-1.06-.07l.67-9.98c.31,.02,.62,.04,.94,.06l-.56,9.98Zm11.53,0l-.56-9.98c.31-.02,.62-.04,.94-.06l.68,9.98c-.35,.02-.7,.05-1.05,.07Zm-13.63-.14c-.35-.03-.7-.06-1.05-.09l.88-9.96c.31,.03,.62,.05,.94,.08l-.76,9.97Zm15.74,0l-.79-9.97,.95-.08,.88,9.96-1.04,.09Zm-17.83-.18c-.35-.03-.7-.07-1.05-.11l1.09-9.94c.31,.03,.62,.07,.93,.1l-.97,9.95Zm19.92,0l-.99-9.95,.95-.1,1.09,9.94-1.04,.11Zm-22.01-.22c-.35-.04-.7-.08-1.05-.13l1.29-9.92c.31,.04,.62,.08,.93,.12l-1.17,9.93Zm24.1,0l-1.2-9.93,.95-.12,1.29,9.92-1.04,.13Zm-26.18-.27c-.35-.05-.7-.1-1.05-.15l1.5-9.89c.31,.05,.62,.09,.93,.13l-1.38,9.9Zm28.26,0l-1.41-9.9,.94-.14,1.5,9.89-1.03,.15Zm-30.34-.31c-.35-.06-.7-.11-1.04-.17l1.7-9.85c.31,.05,.62,.1,.93,.15l-1.58,9.87Zm32.42,0l-1.61-9.87,.94-.16,1.7,9.85-1.03,.17Zm-34.49-.35c-.35-.06-.7-.13-1.04-.2l1.91-9.82c.31,.06,.61,.12,.92,.17l-1.79,9.84Zm36.56,0l-1.81-9.83,.93-.18,1.91,9.82c-.34,.07-.69,.13-1.03,.19Zm-38.64-.39l-1.02-.22,2.11-9.77,.93,.2-2.02,9.79Zm40.7,0l-2.02-9.79,.93-.2,2.11,9.77-1.02,.22Zm-42.76-.43l-1.02-.24,2.32-9.73,.93,.22-2.23,9.75Zm44.81,0l-2.22-9.75,.92-.21,2.32,9.73c-.34,.08-.68,.16-1.02,.24Zm-46.84-.47c-.34-.08-.69-.17-1.03-.26l2.53-9.68c.3,.08,.6,.16,.91,.23l-2.4,9.71Zm48.89-.01l-2.43-9.7,.92-.24,2.52,9.68-1.01,.26Zm-50.92-.52c-.34-.09-.68-.19-1.02-.28l2.73-9.62c.3,.09,.6,.17,.9,.25l-2.61,9.65Zm52.96-.02l-2.64-9.65,.92-.25,2.73,9.62-1.01,.28Zm-54.98-.56c-.34-.1-.68-.2-1.01-.3l2.93-9.56c.3,.09,.6,.18,.9,.27l-2.82,9.6Zm56.99-.01l-2.82-9.6c.3-.09,.6-.18,.9-.27l2.93,9.56c-.34,.1-.67,.21-1.01,.3Zm-59.02-.6l-1-.32,3.12-9.5,.91,.29-3.04,9.53Zm61.03,0l-3.02-9.53c.3-.09,.6-.19,.89-.29l3.14,9.5c-.34,.11-.67,.22-1.01,.33Zm-63.02-.65c-.34-.11-.67-.23-1.01-.35l3.33-9.43c.3,.1,.59,.21,.89,.31l-3.21,9.47Zm65.02-.01l-3.22-9.47,.9-.31,3.32,9.43c-.33,.12-.66,.23-.99,.34Zm-67.02-.69c-.33-.12-.67-.24-1-.37l3.54-9.35c.29,.11,.59,.22,.88,.33l-3.42,9.4Zm69,0l-3.42-9.4c.29-.11,.59-.22,.88-.33l3.52,9.36c-.33,.12-.66,.25-.99,.37Zm-70.98-.74c-.33-.13-.65-.26-.98-.39l3.71-9.29,.89,.35-3.62,9.32Zm72.94,0l-3.61-9.33c.29-.11,.58-.23,.87-.34l3.73,9.28c-.33,.13-.66,.26-.99,.39Zm-74.9-.78c-.32-.13-.65-.27-.97-.41l3.92-9.2,.88,.37-3.83,9.24Zm76.87,0l-3.84-9.23,.87-.37,3.92,9.2-.96,.4Zm1.91-.81l-4-9.17c.29-.13,.57-.25,.86-.38l4.1,9.12c-.32,.14-.64,.29-.96,.43Zm-80.71,0c-.33-.14-.65-.29-.98-.43l4.12-9.11c.28,.13,.57,.25,.86,.38l-4,9.16Zm82.62-.86l-4.2-9.08,.85-.4,4.29,9.03c-.32,.15-.63,.3-.95,.45Zm-84.55,0c-.32-.15-.64-.3-.95-.45l4.3-9.03,.86,.4-4.21,9.07Zm86.44-.89l-4.38-8.99,.84-.42,4.47,8.94c-.31,.16-.62,.31-.94,.46Zm-88.34-.01c-.32-.16-.63-.31-.95-.47l4.5-8.93c.28,.14,.56,.28,.84,.42l-4.39,8.98Zm90.21-.92l-4.55-8.9c.27-.14,.55-.28,.82-.43l4.68,8.84c-.31,.17-.63,.33-.95,.49Zm-92.1-.03c-.31-.16-.63-.32-.94-.49l4.69-8.83c.28,.15,.56,.29,.84,.44l-4.59,8.88Zm93.97-.96l-4.79-8.78,.84-.46,4.86,8.74-.91,.5Zm-95.83-.02c-.31-.17-.63-.34-.94-.52l4.89-8.72c.27,.15,.54,.3,.82,.45l-4.77,8.79Zm97.65-.99l-4.95-8.69,.82-.47,5.03,8.64-.9,.52Zm-99.49-.03c-.31-.17-.61-.35-.92-.53l5.04-8.63c.27,.16,.54,.32,.82,.47l-4.95,8.69Zm101.31-1.03l-5.14-8.58,.82-.49,5.21,8.54-.89,.54Zm-103.13-.03c-.3-.18-.6-.36-.9-.54l5.21-8.54,.81,.49-5.13,8.59Zm104.91-1.06l-5.31-8.47,.8-.51,5.39,8.42c-.29,.19-.59,.37-.88,.56Zm-106.7-.04c-.3-.19-.6-.38-.89-.57l5.4-8.42c.26,.17,.53,.34,.8,.5l-5.3,8.48Zm108.48-1.09l-5.5-8.35,.8-.53,5.55,8.32-.86,.57Zm-110.25-.04c-.29-.19-.59-.39-.88-.58l5.57-8.31c.26,.18,.53,.35,.79,.52l-5.48,8.37Zm111.99-1.12l-5.66-8.25,.78-.54,5.73,8.2-.86,.59Zm-113.73-.05l-.86-.59,5.72-8.2,.79,.55-5.65,8.25Zm115.45-1.15l-5.83-8.12,.77-.56,5.9,8.07-.84,.61Zm-117.18-.06c-.29-.21-.57-.41-.85-.62l5.91-8.06,.77,.56-5.83,8.13Zm118.87-1.18l-6-8,.75-.57,6.08,7.94c-.28,.21-.56,.42-.84,.63Zm-120.57-.07l-.83-.63,6.08-7.94,.76,.58-6,8Zm122.24-1.21l-6.17-7.87,.75-.59,6.23,7.82-.81,.64Zm-123.91-.06c-.28-.22-.55-.43-.82-.65l6.24-7.81,.74,.59-6.16,7.88Zm125.55-1.24l-6.33-7.74,.74-.61,6.4,7.69-.8,.66Zm-127.19-.07l-.8-.66,6.4-7.69,.74,.61-6.33,7.74Zm128.79-1.26l-6.46-7.63c.24-.2,.48-.41,.71-.61l6.55,7.55c-.27,.23-.53,.46-.8,.69Zm-130.4-.08c-.27-.23-.53-.46-.8-.69l6.56-7.54,.72,.62-6.48,7.61Zm132-1.3l-6.63-7.48,.7-.63,6.71,7.41c-.26,.24-.52,.47-.78,.7Zm-133.58-.08c-.26-.23-.52-.47-.79-.71l6.72-7.41c.23,.21,.47,.42,.7,.63l-6.63,7.48Zm135.13-1.32l-6.77-7.36c.23-.21,.46-.42,.68-.64l6.86,7.27c-.26,.24-.52,.48-.78,.72Zm-136.69-.1l-.76-.71,6.86-7.27,.7,.65-6.8,7.33Zm138.22-1.35l-6.92-7.22c.22-.22,.45-.43,.67-.65l7.01,7.13c-.25,.25-.5,.5-.76,.74Zm-139.75-.1l-.74-.73,7.01-7.13,.69,.67-6.95,7.19Zm141.25-1.37l-7.07-7.07c.22-.22,.44-.44,.66-.67l7.16,6.98c-.25,.25-.5,.5-.75,.75Zm-142.74-.1l-.73-.75,7.17-6.97,.67,.68-7.1,7.04Zm144.2-1.4l-7.2-6.94c.21-.22,.42-.45,.64-.67l7.3,6.83c-.24,.26-.49,.52-.74,.78Zm-145.67-.11l-.72-.76,7.31-6.82,.65,.69-7.25,6.89Zm147.12-1.44l-7.37-6.76,.64-.7,7.44,6.68c-.23,.26-.47,.52-.7,.78Zm-148.54-.09c-.24-.26-.48-.52-.71-.79l7.46-6.66c.21,.23,.42,.46,.63,.69l-7.37,6.76Zm149.95-1.48l-7.51-6.6,.63-.72,7.57,6.54-.68,.78Zm-151.35-.09c-.23-.26-.46-.53-.69-.8l7.59-6.51c.2,.24,.41,.48,.62,.71l-7.52,6.59Zm152.72-1.5l-7.65-6.45,.61-.73,7.71,6.36c-.22,.27-.45,.54-.67,.81Zm-154.09-.1l-.66-.8,7.71-6.37,.61,.74-7.66,6.43Zm155.44-1.53l-7.79-6.27,.6-.76,7.83,6.22-.64,.8Zm-156.77-.08l-.65-.82,7.85-6.2,.59,.74-7.79,6.27Zm158.07-1.56l-7.91-6.12,.58-.75,7.97,6.04c-.21,.28-.42,.56-.64,.84Zm-159.37-.09c-.21-.28-.42-.55-.64-.83l7.97-6.04,.58,.75-7.91,6.12Zm160.64-1.6l-8.04-5.94,.56-.77,8.1,5.87-.62,.84Zm-161.91-.08l-.61-.84,8.09-5.88,.57,.77-8.04,5.94Zm163.15-1.62l-8.17-5.77,.55-.79,8.21,5.71-.59,.84Zm-164.38-.08l-.59-.85,8.21-5.71,.55,.79-8.17,5.77Zm165.58-1.65l-8.29-5.59,.54-.8,8.32,5.54-.57,.86Zm-166.77-.07c-.2-.29-.39-.58-.58-.87l8.34-5.52,.53,.79-8.28,5.61Zm167.93-1.67l-8.39-5.44,.52-.8,8.44,5.36-.56,.88Zm-169.08-.07c-.19-.3-.38-.6-.57-.9l8.46-5.33c.17,.26,.33,.52,.5,.78l-8.39,5.45Zm170.21-1.7l-8.5-5.27,.5-.81,8.55,5.18c-.18,.3-.36,.6-.55,.9Zm-171.33-.07c-.19-.3-.37-.6-.55-.9l8.56-5.16c.16,.27,.32,.53,.49,.8l-8.5,5.27Zm172.42-1.73l-8.61-5.09,.48-.82,8.66,5c-.18,.3-.35,.61-.53,.91Zm-173.51-.07l-.52-.9,8.66-4.99,.48,.82-8.62,5.07Zm174.56-1.76l-8.71-4.91,.46-.83,8.76,4.83-.51,.91Zm-175.61-.06c-.17-.3-.34-.61-.51-.92l8.77-4.81,.46,.82-8.72,4.9Zm176.62-1.78l-8.8-4.74c.15-.28,.29-.55,.44-.83l8.87,4.62c-.16,.32-.33,.63-.5,.94Zm-177.62-.05c-.17-.31-.33-.62-.5-.94l8.87-4.61c.14,.28,.29,.55,.43,.82l-8.81,4.73Zm178.6-1.82l-8.9-4.55c.14-.28,.28-.56,.42-.84l8.96,4.45c-.16,.32-.31,.63-.48,.95Zm-179.57-.05l-.47-.93,8.96-4.45,.43,.85-8.91,4.53Zm180.51-1.84l-9-4.37c.14-.28,.27-.56,.4-.84l9.05,4.25c-.15,.32-.3,.64-.46,.96Zm-181.44-.04l-.45-.94,9.05-4.26,.41,.86-9.01,4.34Zm182.34-1.88l-9.09-4.16c.13-.29,.26-.57,.39-.86l9.14,4.06c-.14,.32-.29,.65-.44,.97Zm-183.23-.02l-.43-.94,9.13-4.08,.39,.87-9.1,4.15Zm184.08-1.9l-9.17-3.98c.12-.29,.25-.57,.37-.86l9.22,3.87c-.14,.33-.28,.66-.42,.98Zm-184.93,0c-.14-.32-.27-.64-.41-.96l9.22-3.88,.37,.87-9.18,3.97Zm-.81-1.93c-.13-.33-.26-.65-.39-.98l9.3-3.67c.12,.29,.23,.58,.35,.88l-9.26,3.77Zm186.57-.02l-9.27-3.76,.36-.89,9.3,3.68-.39,.97Zm-187.34-1.93c-.13-.33-.25-.66-.37-.99l9.38-3.47c.11,.29,.22,.58,.33,.88l-9.34,3.58Zm188.11-.03l-9.34-3.56,.34-.9,9.38,3.48-.37,.98Zm-188.85-1.95l-.35-.99,9.45-3.29,.32,.9-9.41,3.37Zm189.58-.02l-9.41-3.39c.11-.3,.21-.59,.31-.89l9.45,3.28c-.12,.33-.23,.67-.35,1Zm-190.27-1.96c-.11-.33-.22-.67-.33-1l9.51-3.08c.1,.3,.2,.6,.3,.9l-9.48,3.18Zm190.96-.04l-9.48-3.18c.1-.3,.2-.6,.29-.9l9.52,3.07c-.11,.34-.22,.67-.33,1.01Zm-191.61-1.96l-.31-1,9.57-2.89,.28,.91-9.54,2.98Zm192.26-.04l-9.55-2.98,.28-.91,9.57,2.89-.31,1Zm-192.86-1.97c-.1-.33-.19-.67-.29-1.01l9.63-2.68,.26,.91-9.61,2.78Zm193.47-.04l-9.6-2.79c.09-.3,.17-.6,.25-.9l9.64,2.67c-.09,.34-.19,.68-.29,1.02Zm-194.03-1.98c-.09-.34-.18-.68-.27-1.02l9.69-2.48c.08,.3,.16,.61,.24,.91l-9.66,2.58Zm194.59-.05l-9.66-2.58c.08-.3,.16-.6,.24-.9l9.69,2.46c-.09,.34-.18,.69-.27,1.03Zm-195.11-1.99c-.08-.34-.16-.68-.24-1.02l9.74-2.27c.07,.31,.14,.61,.22,.92l-9.71,2.38Zm195.63-.05l-9.71-2.38c.07-.3,.15-.61,.22-.91l9.74,2.26c-.08,.34-.16,.69-.25,1.03Zm-196.11-2c-.08-.34-.15-.69-.22-1.03l9.78-2.06c.07,.31,.13,.62,.2,.92l-9.76,2.17Zm196.59-.05l-9.76-2.18c.07-.3,.13-.61,.2-.91l9.79,2.05c-.07,.35-.15,.69-.22,1.04Zm-197.02-2.01c-.07-.34-.14-.69-.2-1.03l9.83-1.86c.06,.31,.12,.62,.18,.93l-9.8,1.97Zm197.46-.05l-9.8-1.97c.06-.31,.12-.61,.18-.92l9.83,1.85c-.07,.35-.13,.69-.2,1.04Zm-197.85-2.02c-.06-.35-.12-.69-.18-1.04l9.86-1.65c.05,.31,.11,.62,.16,.93l-9.84,1.76Zm198.24-.05l-9.84-1.76c.06-.31,.11-.62,.16-.92l9.86,1.64c-.06,.35-.12,.7-.18,1.04Zm-198.59-2.02c-.05-.35-.11-.69-.16-1.04l9.89-1.45c.05,.31,.09,.62,.14,.93l-9.88,1.56Zm198.93-.05l-9.88-1.56c.05-.31,.09-.62,.14-.93l9.9,1.44c-.05,.35-.1,.7-.16,1.05Zm-199.24-2.03c-.05-.35-.09-.7-.14-1.04l9.92-1.24c.04,.31,.08,.62,.12,.94l-9.91,1.35Zm199.54-.05l-9.91-1.35c.04-.31,.08-.62,.12-.93l9.92,1.23c-.04,.35-.09,.7-.14,1.05Zm-199.8-2.03c-.04-.35-.08-.7-.11-1.05l9.95-1.04c.03,.31,.07,.63,.1,.94l-9.93,1.15Zm200.06-.07l-9.94-1.12,.1-.95,9.95,1.03-.11,1.04Zm-200.28-2.03l-.09-1.04,9.96-.84,.08,.95-9.96,.93Zm200.5-.06l-9.96-.91,.08-.95,9.97,.82-.09,1.04Zm-200.67-2.04l-.07-1.04,9.98-.63,.06,.95-9.97,.72Zm200.85-.06l-9.97-.7,.06-.95,9.98,.62-.07,1.04Zm-200.98-2.04l-.05-1.04,9.99-.43,.04,.95-9.99,.51Zm201.11-.06l-9.99-.5,.04-.95,9.99,.41-.05,1.04Zm-201.19-2.04l-.03-1.04,10-.22,.02,.95-10,.31Zm201.28-.06l-10-.29,.02-.95,10,.2-.03,1.04Zm-201.32-2.04v-1.04s9.99-.01,9.99-.01v.95s-9.99,.1-9.99,.1Zm201.37-.06l-10-.09v-.96s0-.12,0-.12l10,.03v1.13Zm-191.37-1.93l-10-.1,.02-1.04,10,.19v.95Zm181.35-.17l-.02-.95,10-.21,.02,1.04-10,.12Zm-181.33-1.73l-10-.31,.04-1.04,9.99,.4-.03,.95Zm181.29-.17l-.04-.95,9.99-.41,.04,1.04-9.99,.32Zm-181.21-1.73l-9.99-.51,.06-1.04,9.98,.6-.05,.95Zm181.13-.16l-.05-.95,9.98-.62,.06,1.04-9.99,.53Zm-181.02-1.73l-9.97-.72,.08-1.04,9.97,.81-.07,.95Zm180.9-.16l-.08-.95,9.97-.82,.08,1.04-9.97,.73Zm-180.74-1.73l-9.96-.92,.1-1.04,9.95,1.01-.09,.95Zm180.58-.16l-.09-.95,9.95-1.03,.1,1.04-9.96,.94Zm-180.39-1.72l-9.94-1.13c.04-.35,.08-.7,.12-1.04l9.92,1.23-.11,.94Zm180.19-.16c-.04-.31-.07-.62-.11-.93l9.92-1.26c.04,.35,.09,.7,.13,1.05l-9.93,1.14Zm-179.96-1.72l-9.91-1.33c.05-.35,.09-.69,.14-1.04l9.9,1.44-.13,.94Zm179.72-.16c-.04-.31-.09-.62-.13-.93l9.89-1.47c.05,.35,.1,.7,.15,1.05l-9.91,1.35Zm-179.45-1.71l-9.88-1.54,.17-1.03,9.87,1.63-.15,.94Zm179.18-.16c-.05-.31-.1-.62-.15-.93l9.86-1.67c.06,.35,.12,.7,.17,1.04l-9.88,1.56Zm-178.86-1.71l-9.85-1.74c.06-.35,.12-.69,.19-1.04l9.83,1.85c-.06,.31-.12,.62-.17,.93Zm178.55-.16c-.05-.31-.11-.61-.17-.92l9.82-1.88c.07,.35,.13,.69,.19,1.04l-9.84,1.76Zm-178.2-1.7l-9.81-1.95c.07-.34,.14-.69,.21-1.03l9.79,2.06c-.06,.31-.13,.62-.19,.92Zm177.85-.16c-.06-.31-.12-.61-.19-.92l9.78-2.08c.07,.35,.15,.69,.21,1.04l-9.8,1.96Zm-177.46-1.69l-9.76-2.16c.08-.34,.15-.68,.23-1.03l9.74,2.26c-.07,.31-.14,.61-.21,.92Zm177.06-.16c-.07-.3-.14-.61-.21-.91l9.73-2.29c.08,.34,.16,.69,.24,1.03l-9.76,2.17Zm-176.64-1.69l-9.72-2.36c.08-.34,.17-.68,.25-1.02l9.69,2.47c-.08,.3-.15,.61-.23,.92Zm176.2-.16c-.07-.3-.15-.61-.23-.91l9.68-2.49c.09,.34,.17,.69,.26,1.03l-9.71,2.37Zm-175.74-1.67l-9.66-2.57c.09-.34,.18-.68,.28-1.02l9.64,2.67c-.08,.3-.17,.61-.25,.91Zm175.27-.16c-.08-.3-.16-.6-.25-.9l9.63-2.7c.1,.34,.19,.68,.28,1.02l-9.66,2.58Zm-174.76-1.67l-9.61-2.77c.1-.34,.2-.68,.3-1.01l9.58,2.88c-.09,.3-.18,.6-.27,.91Zm174.26-.15l-.27-.91,9.58-2.88c.1,.33,.2,.67,.3,1l-9.6,2.79Zm-173.71-1.65l-9.55-2.98,.32-1,9.52,3.07-.29,.91Zm173.17-.15l-.29-.91,9.51-3.08,.32,1-9.54,2.99Zm-172.58-1.66l-9.49-3.17c.11-.34,.23-.67,.34-1l9.45,3.28c-.1,.3-.2,.6-.3,.89Zm172-.14l-.31-.9,9.44-3.29c.12,.33,.23,.66,.34,.99l-9.48,3.19Zm-171.38-1.65l-9.41-3.37c.12-.33,.24-.67,.36-1l9.37,3.48c-.11,.29-.22,.59-.32,.89Zm170.75-.14c-.11-.29-.21-.59-.32-.88l9.37-3.49c.12,.33,.25,.66,.36,1l-9.41,3.37Zm-170.09-1.64l-9.34-3.57c.13-.33,.25-.66,.38-.99l9.3,3.67c-.12,.29-.23,.59-.34,.88Zm169.43-.13l-.34-.89,9.3-3.67c.13,.32,.25,.65,.38,.98l-9.34,3.58Zm-168.74-1.63l-9.26-3.77c.13-.32,.27-.65,.4-.97l9.23,3.86-.36,.88Zm168.04-.13c-.12-.29-.24-.57-.36-.86l9.21-3.89c.14,.33,.27,.65,.41,.98l-9.26,3.77Zm-167.31-1.62l-9.18-3.96c.14-.32,.28-.64,.42-.97l9.14,4.06c-.13,.29-.26,.58-.38,.87Zm166.57-.12c-.12-.28-.25-.57-.37-.85l9.13-4.07c.14,.32,.29,.64,.42,.97l-9.19,3.95Zm-165.8-1.62l-9.1-4.15,.44-.95,9.06,4.24-.4,.87Zm165.04-.1c-.13-.28-.26-.56-.39-.84l9.04-4.27c.15,.32,.3,.64,.45,.96l-9.1,4.15Zm-164.23-1.62l-9.01-4.34c.15-.32,.31-.63,.46-.94l8.96,4.43-.42,.86Zm163.43-.08l-.41-.85,8.96-4.45c.16,.31,.31,.63,.46,.94l-9,4.35Zm-162.59-1.62l-8.91-4.54,.48-.93,8.87,4.62-.44,.85Zm161.75-.08l-.43-.84,8.87-4.62c.16,.31,.32,.62,.48,.93l-8.91,4.53Zm-160.87-1.61l-8.82-4.71c.17-.31,.34-.62,.51-.94l8.76,4.82c-.15,.27-.3,.55-.45,.82Zm159.99-.07c-.14-.27-.29-.54-.44-.81l8.76-4.83c.17,.31,.34,.62,.51,.94l-8.82,4.71Zm-159.08-1.59l-8.72-4.9c.17-.31,.35-.61,.52-.92l8.66,5c-.16,.27-.31,.55-.47,.82Zm158.19-.04l-.48-.83,8.66-5,.51,.9-8.7,4.94Zm-157.24-1.61l-8.61-5.08c.18-.3,.36-.61,.54-.91l8.56,5.18c-.16,.27-.32,.54-.48,.81Zm156.29-.04l-.49-.81,8.56-5.17c.18,.3,.36,.6,.54,.9l-8.61,5.09Zm-155.31-1.58l-8.51-5.26c.19-.3,.37-.6,.56-.9l8.44,5.36c-.17,.26-.33,.53-.5,.79Zm154.33-.04c-.16-.27-.33-.53-.5-.8l8.45-5.36c.19,.3,.37,.59,.56,.89l-8.51,5.26Zm-153.31-1.56l-8.39-5.43c.19-.3,.39-.59,.58-.89l8.33,5.53c-.17,.26-.35,.52-.52,.79Zm152.3-.03l-.52-.79,8.33-5.53c.19,.29,.38,.58,.57,.87l-8.39,5.44Zm-151.26-1.55l-8.28-5.61c.2-.29,.4-.58,.6-.87l8.22,5.7c-.18,.26-.36,.52-.54,.78Zm150.21-.02c-.18-.26-.35-.52-.53-.78l8.21-5.7c.2,.29,.4,.58,.59,.87l-8.28,5.61Zm-149.13-1.53l-8.16-5.78c.2-.29,.41-.57,.61-.85l8.1,5.87-.55,.77Zm148.06-.02l-.55-.77,8.09-5.88c.21,.28,.41,.57,.61,.85l-8.15,5.79Zm-146.94-1.52l-8.04-5.95c.21-.28,.42-.56,.63-.84l7.97,6.04-.57,.76Zm145.84-.01l-.57-.77,7.98-6.03,.62,.83-8.03,5.96Zm-144.69-1.5l-7.92-6.11c.22-.28,.43-.56,.65-.83l7.84,6.2c-.19,.25-.39,.49-.58,.74Zm143.54-.01c-.19-.25-.38-.49-.58-.74l7.85-6.2c.22,.28,.43,.55,.65,.83l-7.92,6.11Zm-142.37-1.47l-7.79-6.28c.22-.28,.45-.55,.67-.82l7.71,6.37c-.2,.24-.4,.48-.59,.73Zm141.2,0c-.2-.24-.4-.49-.59-.73l7.71-6.37c.22,.27,.45,.54,.67,.82l-7.78,6.28Zm-139.99-1.45l-7.65-6.44c.23-.27,.45-.54,.68-.8l7.58,6.52c-.21,.24-.41,.48-.61,.72Zm138.79,0c-.2-.24-.41-.48-.61-.72l7.58-6.52c.23,.27,.46,.53,.68,.8l-7.65,6.43Zm-137.56-1.42l-7.51-6.6,.69-.78,7.45,6.67-.63,.71Zm136.32,0l-.63-.71,7.45-6.67,.69,.78-7.51,6.6Zm-135.06-1.41l-7.38-6.75c.24-.26,.48-.52,.72-.77l7.3,6.83c-.21,.23-.43,.46-.64,.69Zm133.79,0l-.64-.69,7.3-6.83c.24,.26,.48,.51,.71,.77l-7.37,6.76Zm-132.51-1.38l-7.23-6.91c.24-.25,.48-.51,.73-.76l7.16,6.98-.66,.68Zm131.2-.01c-.21-.22-.43-.45-.65-.67l7.16-6.98c.25,.25,.5,.51,.74,.77l-7.25,6.88Zm-129.88-1.34l-7.09-7.06c.25-.25,.5-.5,.75-.74l7.01,7.13-.67,.67Zm128.57,0c-.22-.22-.44-.44-.67-.66l7.01-7.13c.25,.25,.5,.5,.75,.74l-7.09,7.05Zm-127.22-1.32l-6.94-7.2,.76-.72,6.87,7.27-.69,.66Zm125.86-.01c-.22-.22-.45-.43-.67-.64l6.86-7.27c.26,.24,.52,.49,.77,.74l-6.96,7.18Zm-124.48-1.29l-6.79-7.34c.26-.24,.52-.47,.77-.71l6.72,7.41-.7,.64Zm123.11,0c-.23-.21-.46-.42-.69-.64l6.71-7.41c.26,.24,.52,.47,.78,.71l-6.79,7.34Zm-121.71-1.26l-6.63-7.48,.79-.69,6.56,7.55-.71,.63Zm120.31,0l-.71-.62,6.56-7.55c.26,.23,.53,.46,.79,.69l-6.64,7.48Zm-118.88-1.23l-6.48-7.62,.8-.67,6.4,7.68-.73,.61Zm117.46,0l-.73-.61,6.4-7.68,.8,.67-6.48,7.62Zm-116-1.2l-6.31-7.75,.81-.66,6.24,7.81-.74,.6Zm114.55,0l-.74-.6,6.24-7.82,.81,.66-6.31,7.76Zm-113.07-1.18l-6.16-7.88,.82-.64,6.09,7.93-.75,.58Zm111.59,0l-.75-.58,6.07-7.95c.28,.21,.56,.43,.83,.64l-6.15,7.88Zm-110.09-1.14l-5.99-8,.84-.62,5.92,8.06-.76,.57Zm108.58,0l-.77-.57,5.91-8.07,.84,.62-5.98,8.01Zm-107.06-1.11l-5.82-8.13,.85-.6,5.75,8.18-.77,.55Zm105.53,0l-.78-.55,5.73-8.19,.85,.6-5.81,8.14Zm-103.98-1.08l-5.66-8.25c.29-.2,.58-.4,.87-.59l5.56,8.31c-.26,.17-.52,.35-.78,.53Zm102.42-.02c-.26-.18-.52-.35-.78-.53l5.56-8.31c.29,.2,.59,.4,.88,.6l-5.66,8.24Zm-100.85-1.03l-5.48-8.36c.29-.19,.58-.38,.88-.57l5.4,8.42-.79,.52Zm99.27-.02c-.26-.17-.52-.34-.78-.51l5.38-8.43c.3,.19,.6,.38,.9,.58l-5.5,8.35Zm-97.68-1l-5.31-8.47c.3-.19,.6-.37,.9-.55l5.21,8.53c-.27,.16-.53,.33-.8,.49Zm96.09-.02l-.81-.5,5.22-8.53c.3,.18,.6,.37,.89,.55l-5.3,8.48Zm-94.48-.96l-5.13-8.58c.3-.18,.6-.36,.91-.54l5.03,8.64c-.27,.16-.54,.32-.81,.48Zm92.86-.03l-.82-.48,5.04-8.64c.3,.18,.61,.36,.91,.54l-5.13,8.59Zm-91.24-.92l-4.94-8.69,.91-.51,4.86,8.74-.83,.47Zm89.6-.03c-.27-.16-.55-.31-.83-.46l4.85-8.74c.31,.17,.61,.34,.92,.52l-4.95,8.69Zm-87.95-.89l-4.77-8.79c.31-.17,.62-.33,.93-.5l4.67,8.84c-.28,.15-.55,.29-.83,.44Zm86.29-.03l-.84-.45,4.67-8.84,.92,.49-4.75,8.8Zm-84.63-.85l-4.58-8.89,.92-.47,4.51,8.93-.85,.43Zm82.94-.04c-.28-.14-.56-.29-.84-.43l4.47-8.94c.32,.16,.63,.32,.95,.48l-4.58,8.89Zm-81.25-.81l-4.4-8.98c.31-.15,.63-.31,.95-.46l4.3,9.03c-.28,.13-.56,.27-.85,.41Zm79.56-.04l-.85-.41,4.3-9.03c.32,.15,.63,.3,.95,.46l-4.39,8.99Zm-77.86-.77l-4.21-9.07c.32-.15,.63-.29,.95-.44l4.11,9.11-.86,.39Zm76.14-.04l-.86-.39,4.11-9.12c.32,.14,.64,.29,.96,.44l-4.2,9.08Zm-74.42-.73l-4.02-9.15c.32-.14,.64-.28,.97-.42l3.92,9.2c-.29,.12-.57,.25-.86,.37Zm72.69-.04c-.29-.13-.58-.25-.87-.37l3.9-9.21c.33,.14,.65,.28,.97,.42l-4.01,9.16Zm-70.96-.69l-3.83-9.24c.32-.13,.65-.27,.98-.4l3.72,9.28c-.29,.12-.58,.24-.87,.36Zm69.21-.05c-.29-.12-.58-.24-.87-.35l3.71-9.29c.33,.13,.66,.27,.99,.4l-3.83,9.24Zm-67.46-.65l-3.62-9.32c.33-.13,.65-.25,.98-.38l3.53,9.35-.89,.34Zm65.7-.05c-.29-.11-.59-.23-.89-.34l3.52-9.36c.33,.12,.66,.25,.99,.38l-3.62,9.32Zm-63.93-.62l-3.43-9.39c.33-.12,.66-.24,.99-.36l3.33,9.43c-.3,.1-.59,.21-.89,.32Zm62.15-.05c-.3-.11-.59-.21-.89-.32l3.31-9.43c.33,.12,.66,.24,1,.36l-3.42,9.4Zm-60.37-.58l-3.23-9.46c.33-.11,.66-.22,.99-.33l3.14,9.5-.9,.3Zm58.58-.05l-.91-.3,3.13-9.5,1,.33-3.21,9.47Zm-56.78-.55l-3.04-9.53c.33-.11,.67-.21,1.01-.31l2.93,9.56c-.3,.09-.6,.19-.9,.28Zm54.97-.05c-.3-.1-.6-.19-.9-.28l2.92-9.57c.34,.1,.68,.21,1.01,.31l-3.03,9.53Zm-53.16-.51l-2.83-9.59c.34-.1,.67-.2,1.01-.29l2.73,9.62c-.3,.09-.6,.17-.91,.26Zm51.35-.04c-.3-.09-.61-.18-.91-.26l2.71-9.62c.34,.1,.67,.19,1.01,.29l-2.82,9.59Zm-49.53-.47l-2.63-9.65c.34-.09,.67-.18,1.01-.27l2.54,9.67-.92,.25Zm47.72-.04l-.92-.24,2.51-9.68c.34,.09,.68,.18,1.01,.27l-2.6,9.66Zm-45.89-.44l-2.42-9.7c.34-.08,.68-.17,1.02-.25l2.33,9.72-.92,.23Zm44.06-.04l-.93-.23,2.31-9.73,1.02,.25-2.4,9.71Zm-42.21-.4l-2.23-9.75c.34-.08,.69-.15,1.03-.23l2.12,9.77c-.31,.07-.61,.13-.92,.21Zm40.37-.03l-.93-.21,2.11-9.77,1.02,.23-2.2,9.75Zm-38.52-.37l-2.03-9.79c.34-.07,.69-.14,1.03-.21l1.92,9.81c-.31,.06-.62,.12-.93,.19Zm36.67-.03l-.93-.19,1.9-9.82,1.02,.2-1.99,9.8Zm-34.81-.33l-1.82-9.83c.35-.06,.69-.13,1.04-.19l1.71,9.85c-.31,.05-.62,.11-.93,.17Zm32.95-.03l-.94-.17,1.7-9.85,1.03,.18-1.79,9.84Zm-31.09-.29l-1.6-9.87,1.03-.16,1.51,9.89-.94,.15Zm29.23-.03c-.31-.05-.62-.1-.93-.15l1.48-9.89c.35,.05,.69,.11,1.04,.16l-1.59,9.87Zm-27.36-.26l-1.4-9.9,1.03-.14,1.31,9.91-.94,.13Zm25.48-.02l-.94-.13,1.28-9.92c.35,.04,.69,.09,1.04,.14l-1.38,9.9Zm-23.6-.22l-1.19-9.93,1.04-.12,1.1,9.94-.95,.11Zm21.73-.02l-.94-.11,1.07-9.94c.35,.04,.7,.08,1.04,.12l-1.18,9.93Zm-19.85-.19l-.98-9.95,1.04-.1,.89,9.96-.95,.09Zm17.97-.01l-.95-.09,.87-9.96,1.04,.1-.95,9.96Zm-16.09-.15l-.78-9.97c.35-.03,.7-.05,1.05-.08l.67,9.98-.94,.07Zm14.19-.01l-.95-.07,.66-9.98c.35,.02,.7,.05,1.05,.07l-.76,9.97Zm-12.3-.12l-.57-9.98c.35-.02,.7-.04,1.05-.06l.47,9.99-.95,.05Zm10.41,0l-.95-.05,.45-9.99c.35,.02,.7,.03,1.05,.05l-.56,9.98Zm-8.52-.08l-.37-9.99,1.04-.03,.28,10-.95,.03Zm6.62,0l-.95-.03,.25-10c.35,0,.7,.02,1.05,.03l-.35,9.99Zm-4.73-.04l-.16-10c.35,0,.7,0,1.05-.01l.06,10h-.95Zm2.84,0h-.95s.04-10.01,.04-10.01c.35,0,.7,0,1.05,0l-.15,10Z" fill="#1da5d5"/></g><g mix-blend-mode="screen" opacity=".8"><path d="M176.54,205.34h-.29c-.39,0-.78,0-1.17-.02l.39-9.99c.21,0,.43,.01,.64,.02h.16s0,5,0,5l.56,4.96-.29,.03Zm.95-.03l-.44-9.99c.27-.01,.53-.03,.8-.05l.83,9.96c-.39,.03-.79,.06-1.19,.08Zm-3.6-.07c-.41-.03-.81-.07-1.21-.12l1.24-9.92c.25,.03,.51,.06,.77,.08l-.79,9.97Zm5.98-.13l-1.23-9.92c.26-.03,.52-.07,.77-.11l1.65,9.86c-.4,.07-.8,.12-1.2,.17Zm-8.37-.16c-.4-.07-.8-.14-1.19-.22l2.04-9.79c.25,.05,.51,.1,.77,.14l-1.61,9.87Zm10.74-.23l-2.05-9.79c.26-.05,.52-.11,.77-.18l2.45,9.7c-.39,.1-.78,.19-1.17,.27Zm-13.1-.26c-.39-.1-.77-.2-1.16-.32l2.83-9.59c.25,.07,.51,.14,.76,.21l-2.44,9.7Zm15.45-.34l-2.88-9.58c.26-.08,.51-.16,.77-.25l3.24,9.46c-.37,.13-.75,.25-1.13,.36Zm-17.75-.34c-.39-.13-.77-.27-1.15-.42l3.64-9.31c.24,.09,.49,.18,.73,.27l-3.22,9.47Zm20.02-.44l-3.65-9.31c.25-.1,.49-.2,.73-.31l4.02,9.16c-.36,.16-.73,.31-1.1,.46Zm-22.28-.44c-.37-.16-.74-.33-1.1-.51l4.4-8.98c.24,.12,.47,.22,.71,.33l-4.01,9.16Zm24.46-.52l-4.39-8.98c.23-.11,.46-.23,.69-.36l4.78,8.79c-.35,.19-.71,.38-1.08,.56Zm-26.63-.53c-.36-.19-.71-.39-1.06-.6l5.13-8.58c.22,.13,.45,.26,.68,.38l-4.75,8.8Zm28.76-.62l-5.15-8.57c.23-.14,.46-.28,.68-.43l5.48,8.37c-.33,.22-.67,.43-1,.63Zm-30.83-.61c-.34-.22-.67-.45-1-.68l5.82-8.13c.21,.15,.43,.3,.65,.44l-5.47,8.38Zm32.83-.7l-5.83-8.12c.21-.15,.43-.31,.64-.48l6.15,7.88c-.31,.25-.63,.48-.96,.72Zm-34.79-.7c-.32-.25-.63-.5-.93-.76l6.46-7.63c.2,.17,.41,.34,.62,.5l-6.14,7.89Zm36.69-.78l-6.49-7.61c.21-.17,.41-.35,.61-.54l6.77,7.36c-.29,.27-.59,.53-.89,.78Zm-38.52-.77c-.3-.27-.59-.55-.87-.83l7.06-7.08c.19,.19,.38,.37,.57,.55l-6.76,7.37Zm40.28-.85l-7.07-7.07c.19-.19,.37-.38,.54-.57l7.36,6.77c-.27,.29-.55,.58-.83,.87Zm-41.98-.85c-.27-.29-.54-.59-.79-.9l7.62-6.47c.17,.2,.35,.4,.53,.59l-7.35,6.78Zm43.61-.92l-7.63-6.46c.17-.2,.34-.41,.5-.62l7.88,6.15c-.24,.31-.5,.62-.75,.93Zm-45.17-.91c-.24-.31-.48-.63-.71-.95l8.12-5.84c.16,.22,.32,.43,.48,.64l-7.89,6.15Zm46.64-.99l-8.13-5.81c.15-.22,.3-.44,.45-.66l8.36,5.49c-.22,.33-.44,.66-.68,.99Zm-48.04-.97c-.22-.33-.43-.67-.63-1l8.57-5.15c.14,.23,.28,.46,.43,.68l-8.37,5.48Zm49.36-1.05l-8.59-5.12c.13-.22,.26-.45,.39-.68l8.8,4.75c-.19,.35-.39,.71-.6,1.05Zm-50.59-1.01c-.19-.35-.37-.71-.55-1.06l8.97-4.41c.12,.24,.24,.47,.36,.7l-8.79,4.78Zm51.73-1.09l-8.97-4.43c.11-.23,.22-.47,.33-.7l9.16,4.02c-.16,.37-.33,.74-.52,1.11Zm-52.79-1.07c-.16-.36-.31-.73-.46-1.1l9.3-3.67c.1,.25,.2,.49,.31,.74l-9.15,4.03Zm53.77-1.15l-9.31-3.64c.1-.25,.19-.49,.27-.74l9.46,3.25c-.13,.38-.27,.76-.42,1.13Zm-54.65-1.08c-.13-.38-.25-.76-.37-1.14l9.58-2.87c.08,.25,.16,.5,.24,.75l-9.45,3.26Zm55.43-1.19l-9.58-2.86c.07-.25,.14-.5,.2-.75l9.7,2.43c-.1,.4-.21,.79-.32,1.17Zm-56.12-1.11c-.1-.39-.19-.78-.27-1.17l9.78-2.06c.06,.26,.11,.52,.18,.77l-9.69,2.46Zm56.71-1.25l-9.8-2.01c.05-.26,.1-.53,.15-.8l9.87,1.64c-.07,.39-.14,.78-.22,1.16Zm-57.21-1.11c-.07-.39-.12-.79-.17-1.19l9.92-1.24c.03,.26,.07,.52,.11,.78l-9.86,1.65Zm57.6-1.26l-9.93-1.21c.03-.26,.06-.53,.08-.79l9.97,.82c-.03,.4-.07,.79-.12,1.19Zm-57.89-1.13c-.03-.4-.06-.8-.08-1.2l9.99-.42c.01,.26,.03,.53,.05,.79l-9.96,.84Zm58.09-1.26l-9.99-.41c.01-.26,.02-.52,.02-.79l10-.1v.1c0,.4,0,.8-.02,1.2Zm-48.19-1.06l-3.42-.1h-6.57s0-.05,0-.05c0-.38,0-.76,.02-1.14l9.99,.39c0,.25-.01,.5-.01,.75v.15Zm38.2-1.01c-.01-.27-.03-.54-.05-.8l9.96-.86c.03,.39,.06,.79,.08,1.19l-9.99,.47Zm-38.14-.69l-9.97-.79c.03-.4,.07-.8,.12-1.2l9.93,1.21c-.03,.26-.06,.52-.08,.78Zm38-.9c-.03-.26-.07-.52-.12-.77l9.86-1.68c.07,.4,.13,.8,.18,1.2l-9.92,1.26Zm-37.81-.66l-9.87-1.61c.06-.4,.14-.79,.22-1.18l9.79,2.02c-.05,.26-.1,.52-.14,.78Zm37.55-.89c-.05-.26-.12-.52-.18-.77l9.69-2.48c.1,.39,.19,.78,.27,1.17l-9.78,2.08Zm-37.23-.66l-9.7-2.42c.1-.39,.2-.78,.32-1.16l9.59,2.83c-.07,.25-.14,.5-.21,.76Zm36.84-.86c-.08-.26-.16-.51-.25-.76l9.45-3.27c.13,.37,.25,.75,.37,1.13l-9.57,2.91Zm-36.39-.65l-9.47-3.22c.13-.38,.27-.77,.42-1.14l9.32,3.63c-.09,.24-.18,.49-.27,.73Zm35.87-.84c-.1-.25-.2-.49-.31-.73l9.14-4.05c.16,.36,.31,.73,.46,1.1l-9.3,3.68Zm-35.3-.63l-9.16-4c.16-.37,.33-.73,.5-1.09l8.99,4.38c-.12,.24-.23,.48-.33,.72Zm34.66-.82c-.11-.23-.23-.46-.36-.69l8.77-4.8c.19,.35,.38,.71,.56,1.07l-8.97,4.42Zm-33.97-.6l-8.8-4.75c.19-.35,.39-.7,.59-1.04l8.6,5.09c-.14,.23-.27,.46-.39,.7Zm33.22-.78c-.13-.22-.27-.44-.42-.66l8.34-5.51c.22,.34,.44,.68,.64,1.02l-8.57,5.15Zm-32.41-.58l-8.38-5.46c.22-.34,.44-.67,.68-.99l8.15,5.8c-.15,.21-.3,.43-.45,.65Zm31.54-.73c-.15-.21-.31-.42-.47-.63l7.86-6.18c.25,.32,.49,.64,.73,.97l-8.12,5.84Zm-30.62-.56l-7.9-6.13c.25-.32,.5-.64,.77-.94l7.63,6.47c-.17,.2-.33,.4-.49,.6Zm29.65-.68c-.17-.2-.35-.4-.53-.59l7.34-6.79c.27,.29,.54,.59,.8,.9l-7.61,6.49Zm-28.63-.52l-7.37-6.76c.27-.29,.55-.58,.83-.87l7.09,7.06c-.19,.19-.37,.38-.55,.57Zm27.55-.65c-.18-.18-.37-.36-.56-.54l6.75-7.38c.3,.27,.59,.55,.88,.84l-7.06,7.08Zm-26.43-.47l-6.79-7.35c.29-.27,.59-.54,.9-.8l6.48,7.62c-.2,.17-.4,.35-.59,.52Zm25.28-.59c-.2-.17-.41-.34-.62-.5l6.13-7.9c.32,.25,.63,.5,.93,.75l-6.44,7.65Zm-24.07-.44l-6.17-7.87c.31-.25,.64-.49,.96-.72l5.84,8.12c-.21,.15-.43,.31-.63,.48Zm22.83-.53c-.22-.15-.43-.3-.66-.45l5.44-8.39c.34,.22,.67,.44,1,.68l-5.78,8.16Zm-21.55-.39l-5.5-8.35c.33-.22,.67-.43,1.01-.64l5.15,8.57c-.23,.14-.45,.28-.67,.42Zm20.21-.47c-.23-.13-.45-.26-.69-.39l4.74-8.81c.35,.19,.71,.39,1.05,.59l-5.11,8.6Zm-18.86-.34l-4.79-8.78c.35-.19,.71-.38,1.07-.56l4.41,8.97c-.23,.11-.46,.23-.69,.36Zm17.47-.41c-.23-.11-.47-.22-.71-.33l3.98-9.17c.37,.16,.74,.33,1.1,.51l-4.38,8.99Zm-16.06-.28l-4.05-9.14c.37-.16,.73-.32,1.11-.46l3.67,9.3c-.24,.1-.49,.2-.73,.3Zm14.62-.34c-.25-.1-.5-.19-.75-.27l3.22-9.47c.38,.13,.75,.26,1.12,.41l-3.59,9.33Zm-13.16-.23l-3.27-9.45c.38-.13,.76-.25,1.15-.37l2.87,9.58c-.25,.08-.5,.16-.75,.24Zm11.66-.28c-.25-.07-.5-.14-.76-.21l2.42-9.7c.39,.1,.78,.2,1.16,.31l-2.82,9.59Zm-10.14-.18l-2.48-9.69c.39-.1,.78-.19,1.18-.27l2.07,9.78c-.26,.05-.51,.11-.76,.18Zm8.61-.2c-.25-.05-.51-.1-.77-.14l1.6-9.87c.4,.07,.8,.14,1.19,.22l-2.02,9.79Zm-7.07-.12l-1.67-9.86c.39-.07,.79-.12,1.19-.18l1.26,9.92c-.26,.03-.52,.07-.78,.12Zm5.52-.13c-.26-.03-.53-.06-.79-.08l.79-9.97c.4,.03,.8,.07,1.19,.12l-1.19,9.93Zm-3.95-.07l-.84-9.96c.4-.03,.79-.06,1.2-.08l.44,9.99c-.27,.01-.53,.03-.79,.05Zm2.37-.05c-.24,0-.49-.01-.73-.01l-.07-10h.17c.27,0,.64,0,1.02,.02l-.38,9.99Z" fill="#fff"/></g><path d="M223.15,176.24c0,25.9-21,46.9-46.9,46.9s-46.9-21-46.9-46.9,21-46.9,46.9-46.9,46.9,21,46.9,46.9Z" fill="none" mix-blend-mode="screen" stroke="#fff" stroke-miterlimit="10"/></g></g></g></svg>