<?xml version="1.0" encoding="UTF-8"?><svg id="Calque_1" xmlns="http://www.w3.org/2000/svg" xmlns:xlink="http://www.w3.org/1999/xlink" viewBox="0 0 173 173"><defs><linearGradient id="Dégradé_sans_nom_364" x1="52.7" y1="109.58" x2="64.27" y2="109.58" gradientTransform="matrix(1, 0, 0, 1, 0, 0)" gradientUnits="userSpaceOnUse"><stop offset="0" stop-color="#333"/><stop offset="1" stop-color="#1a1a1a" stop-opacity=".6"/></linearGradient></defs><text transform="translate(53.69 112.91)" fill="#393939" font-family="Electrolize-Regular, Electrolize" font-size="84.03"><tspan x="0" y="0" xml:space="preserve"> S</tspan></text><g><path d="M78.12,45.35c.04,.52,.2,1.06,.1,1.54-2.64,12.7-5.05,25.46-8.09,38.07-1.07,4.43-3.65,8.49-5.55,12.71l-3.64-1.32c.33-5.25,.59-10.59,2.53-15.67,4.3-11.25,8.6-22.5,12.93-33.74,.25-.64,.77-1.18,1.17-1.77l.55,.18Z" fill="#333"/><path d="M55.71,119.77c-4.92-6.1-3.61-15.65,2.51-19.84,1.68-1.15,4.24-.4,5.06,1.48,1.91,4.39,1.08,8.47-2.71,11.35-2.4,1.82-4.53,3.65-4.86,7.01Z" fill="url(#Dégradé_sans_nom_364)"/></g><polygon points="45.4 68.06 45.4 74.41 19.92 86.81 45.4 99.82 45.4 106.09 14.7 90.06 14.7 84.47 45.4 68.06" fill="#393939"/><polygon points="128.7 68.06 128.7 74.41 154.19 86.81 128.7 99.82 128.7 106.09 159.4 90.06 159.4 84.47 128.7 68.06" fill="#393939"/></svg>