<svg xmlns="http://www.w3.org/2000/svg" width="48" height="48"><path d="M20 23c1 0 4-1.618 4-5.618C24 11.163 18.494 10 12.292 10c-1.172 0-4.745.002-7.292.001a3 3 0 0 0-3 3V35a3 3 0 0 0 3 3h11.8c4.419 0 8.165-3.496 8.2-7.915.047-6.076-5-7.085-5-7.085zM8 15h7a3 3 0 1 1 0 6H8v-6zm7.5 18H8v-7h7.5a3.5 3.5 0 1 1 0 7zm30.01-4a1.5 1.5 0 0 0 1.501-1.5c0-5.799-4.011-10.5-10-10.5-5.523 0-10 4.701-10 10.5s4.477 10.5 10 10.5c4.887 0 7.602-2.286 8.928-5.643.256-.647-.246-1.348-.942-1.348h-2.401c-.365 0-.688.207-.877.52C40.805 33.039 39.41 34 37.532 34c-2.812 0-4.86-2.135-5.382-5h13.36zm-8.499-8c2.077 0 4.09 1.656 4.658 4h-9.273c.753-2.349 2.535-4 4.615-4zm4.489-6h-8a1.5 1.5 0 0 1 0-3h8a1.5 1.5 0 0 1 0 3z"/></svg>