<?xml version="1.0" encoding="UTF-8"?><svg id="Calque_2" xmlns="http://www.w3.org/2000/svg" viewBox="0 0 50.79 50.75"><g id="Calque_1-2"><path d="M24.06,11.2c2.95-2.83,5.78-6.04,9.08-8.46C35.98,.65,39.82,.02,43.17,1.14s5.94,4.27,6.76,7.82c.88,3.82-.44,7.35-2.84,10.3-2.54,3.13-5.25,6.26-8.13,9.14s-5.85,5.98-9.73,7.29c-2.68,.9-5.7,.66-8.18-.72-2.6-1.45-4.41-4.25-6.13-6.6" fill="none" stroke="#000" stroke-linecap="round" stroke-miterlimit="10" stroke-width="1.18"/><path d="M14.93,19.32c2.77-2.89,7.2-5.39,11.33-4.64s7.17,4.48,9.54,7.74" fill="none" stroke="#000" stroke-linecap="round" stroke-miterlimit="10" stroke-width="1.18"/><path d="M26.67,39.58c-2.95,2.83-5.78,6.04-9.08,8.46-4.42,3.24-10.77,2.73-14.42-1.43-3.91-4.45-3.06-10.75,.48-15.1,2.54-3.13,5.25-6.26,8.13-9.14" fill="none" stroke="#000" stroke-linecap="round" stroke-miterlimit="10" stroke-width="1.18"/><path d="M31.14,12c1.56-1.42,2.99-3.03,4.68-4.29,1.23-.92,2.72-1.72,4.29-1.63,1.44,.09,2.74,.88,3.6,2.02,.66,.87,1.12,1.92,1.19,3.02,.11,1.75-.68,3.31-1.76,4.62-1.56,1.9-3.31,3.63-5.02,5.4s-3.56,3.65-5.45,5.37c-.32,.29-.65,.58-.97,.86-.72,.63-1.47,1.23-2.28,1.75-1.22,.78-2.67,1.4-4.14,1.41-2.33,.02-4-1.63-5.04-3.56-.02-.04-.04-.08-.06-.12" fill="none" stroke="#000" stroke-linecap="round" stroke-miterlimit="10" stroke-width="1.18"/><path d="M19.57,38.68c-1.56,1.42-2.99,3.03-4.68,4.29-1.23,.92-2.72,1.72-4.29,1.63-1.44-.09-2.74-.88-3.6-2.02-.66-.87-1.12-1.92-1.19-3.02-.11-1.75,.68-3.31,1.76-4.62,1.56-1.9,3.31-3.63,5.02-5.4s3.56-3.65,5.45-5.37c.32-.29,.65-.58,.97-.86,.72-.63,1.47-1.23,2.28-1.75,1.22-.78,2.67-1.4,4.14-1.41,2.33-.02,4,1.63,5.04,3.56,.02,.04,.04,.08,.06,.12" fill="none" stroke="#000" stroke-linecap="round" stroke-miterlimit="10" stroke-width="1.18"/></g></svg>