<?xml version="1.0" encoding="UTF-8"?><svg id="Calque_1" xmlns="http://www.w3.org/2000/svg" xmlns:xlink="http://www.w3.org/1999/xlink" viewBox="0 0 297 315"><defs><linearGradient id="Dégradé_sans_nom_31" x1="14" y1="172" x2="278" y2="172" gradientTransform="matrix(1, 0, 0, 1, 0, 0)" gradientUnits="userSpaceOnUse"><stop offset="0" stop-color="#ccc"/><stop offset="1" stop-color="#f2f2f2"/></linearGradient></defs><circle cx="146" cy="172" r="132" fill="url(#Dégradé_sans_nom_31)"/><g><path d="M24.2,180.12c-12.73-39.72,2.46-70.72,29.14-98.13,3.54,4.2-6.88,26.43,12.49,10.17,8.26-6.93,17.34-11.72,28.32-12.46,23.01-1.54,30.69,7.47,23.42,28.37-2.7,7.75-11.57,17.46,1.44,21.49,12.34,3.83,12.47-8.38,12.95-16.98,.61-10.96,4.3-19.15,15.93-20.67,9.76-1.28,16.87,3.58,20.36,12.58,5.31,13.71,17.14,20.36,27.54,28.68,3.83,13.43,27.13,16.18,20,34.62-5.52,14.3-19.1-2.54-25.61,2.56-9,10.64,14.4,18-.25,25.74-9.47,5.01-14.73-5.65-20.82-11.39-6.94-6.54-16.45-11.76-18.02-21.84-3.64-23.3-10.76-19.91-24.68-6.56-11.32,10.86-19.28,18.9-12.04,36.49,5.16,12.54,0,25.85-13.47,31.36-12.8,5.24-29.34,6.95-35.93-6.78-9.17-19.11-27.73-24.38-40.77-37.25Z" fill="#b2b2b2"/><path d="M210.41,113.1c-8.87-19.63-22.7-40.72,13.19-47.22,6.13,5.47,12.26,10.95,18.4,16.41-5.63,15.54-14.41,27.7-31.59,30.81Z" fill="#b2b2b2"/></g></svg>