<svg xmlns="http://www.w3.org/2000/svg" viewBox="0 0 268.72 255.28"><defs><linearGradient id="a" x1="8.2" y1="334.36" x2="217.72" y2="124.85" gradientTransform="matrix(1 0 0 -1 0 342.57)" gradientUnits="userSpaceOnUse"><stop offset="0" stop-color="#fed100"/><stop offset="1" stop-color="#e36001"/></linearGradient><linearGradient id="b" x1="163.74" y1="230.59" x2="219.27" y2="106.46" gradientTransform="matrix(1 0 0 -1 0 342.57)" gradientUnits="userSpaceOnUse"><stop offset="0" stop-color="#fcfcfc"/><stop offset="1" stop-color="#c3c9cd"/></linearGradient></defs><path d="M127.64 0C57.15 0 0 57.15 0 127.64s57.15 127.64 127.64 127.64 127.64-57.15 127.64-127.64S198.13 0 127.64 0Z" fill="url(#a)"/><path d="M228.4 130.9c-16.14-32.8-77.22-30.09-89.79 14.36-48.08 1.68-52.19 82.16-4.25 81.33h73.86c26.35-21.49 43.83-53.31 46.54-89.28-4.86-4.46-17.44-8.2-26.36-6.42Z" opacity=".05"/><path d="M227.91 132.17c-17.43-32.66-76.44-27.98-87.84 13.98-44.81 1.48-47.11 73.94-2.36 74.33 5.98.05 50.55 0 76.62 0 22.59-20.48 37.56-49.27 40.3-81.56-5.68-4.91-17.51-8.42-26.72-6.75Z" opacity=".07"/><path d="M227.42 133.44c-18.72-32.52-75.66-25.88-85.88 13.6-41.54 1.28-42.01 66.96-.46 67.33 6.2.05 57.04 0 79.37 0a123.241 123.241 0 0 0 34.07-73.83c-6.52-5.37-17.59-8.66-27.1-7.1Z" opacity=".07"/><path d="M231.77 134.36c-1.65 0-3.25.15-4.84.36-8.47-12.38-22.69-20.51-38.82-20.51-21.35 0-39.35 14.24-45.09 33.73-16.02.76-28.81 13.88-28.81 30.09s13.54 30.23 30.23 30.23h87.33c20.41 0 36.95-16.54 36.95-36.95s-16.54-36.95-36.95-36.95Z" fill="url(#b)"/></svg>