<?xml version="1.0" standalone="no"?>
<!DOCTYPE svg PUBLIC "-//W3C//DTD SVG 20010904//EN"
 "http://www.w3.org/TR/2001/REC-SVG-20010904/DTD/svg10.dtd">
<svg version="1.0" xmlns="http://www.w3.org/2000/svg"
 width="165.000000pt" height="165.000000pt" viewBox="0 0 165.000000 165.000000"
 preserveAspectRatio="xMidYMid meet">
<metadata>
Created by potrace 1.14, written by Peter Selinger 2001-2017
</metadata>
<g transform="translate(0.000000,165.000000) scale(0.100000,-0.100000)"
fill="#000000" stroke="none">
<path d="M33 1396 l-28 -24 0 -535 0 -535 24 -26 24 -26 768 0 768 0 28 24 28
24 0 537 0 537 -28 24 -28 24 -764 0 -764 0 -28 -24z m671 -252 c9 -8 16 -20
16 -26 0 -11 -120 -420 -125 -426 -2 -2 -22 2 -44 9 -30 9 -40 17 -37 28 56
204 121 409 134 419 21 16 37 15 56 -4z m398 -17 c16 -12 31 -37 34 -54 6 -32
5 -33 -27 -33 -26 0 -37 6 -44 23 -9 20 -17 22 -114 25 -67 2 -108 -1 -117 -9
-18 -15 -20 -159 -2 -177 8 -8 51 -12 128 -12 115 0 147 -8 172 -44 10 -14 10
-228 0 -242 -26 -37 -56 -44 -193 -44 l-137 0 -31 29 c-19 18 -31 39 -31 55 0
23 4 26 33 26 24 0 35 -6 42 -22 10 -22 15 -23 130 -23 l120 0 0 100 0 100
-132 5 c-122 5 -133 7 -157 29 -25 23 -26 30 -26 129 0 101 1 104 29 133 l29
29 134 0 c123 0 135 -2 160 -23z m-672 -89 c24 -40 22 -48 -20 -72 -23 -14
-37 -16 -49 -10 -12 8 -45 -5 -133 -51 l-118 -61 120 -59 c94 -47 121 -56 133
-47 11 10 21 7 47 -11 19 -12 35 -26 37 -32 5 -15 -35 -75 -49 -75 -26 0 -80
41 -74 55 4 11 -31 34 -134 85 -86 43 -140 76 -140 85 0 9 54 42 140 85 91 46
138 75 134 82 -9 14 44 58 69 58 9 0 26 -15 37 -32z m860 17 c18 -9 30 -24 30
-35 0 -15 31 -35 140 -90 86 -43 140 -76 140 -85 0 -9 -54 -42 -140 -85 -78
-39 -139 -74 -136 -78 9 -16 -44 -62 -71 -62 -14 0 -53 57 -53 77 0 19 58 45
88 39 20 -4 57 10 139 52 l113 57 -121 61 c-66 33 -122 57 -125 52 -9 -15 -39
-8 -69 16 l-29 24 19 36 c22 40 32 43 75 21z m-789 -383 c-11 -21 -5 -52 10
-52 5 0 9 9 9 19 0 11 5 23 11 27 8 4 9 -3 4 -26 -7 -30 -6 -31 13 -21 12 6
23 23 25 38 3 23 4 21 6 -9 1 -31 -2 -38 -18 -38 -11 0 -23 -4 -26 -10 -9 -15
-35 -12 -35 4 0 7 -7 19 -15 26 -13 11 -13 16 2 41 19 32 31 32 14 1z"/>
<path d="M363 1038 c-28 -13 -28 -16 -4 -47 18 -24 19 -24 46 -7 24 16 25 19
12 39 -17 26 -26 28 -54 15z"/>
<path d="M356 700 c-15 -27 -15 -28 11 -45 25 -17 27 -17 44 6 24 31 24 31
-10 50 -28 16 -29 16 -45 -11z"/>
<path d="M1231 1024 c-6 -15 -10 -28 -9 -29 2 -1 14 -8 27 -15 21 -11 26 -10
38 6 18 25 16 42 -6 54 -29 15 -37 13 -50 -16z"/>
<path d="M1236 705 c-18 -13 -18 -16 -2 -40 19 -29 24 -30 50 -10 16 12 18 19
8 40 -13 28 -28 31 -56 10z"/>
</g>
</svg>
